<?xml version="1.0" standalone="no"?>
<!DOCTYPE svg PUBLIC "-//W3C//DTD SVG 20010904//EN"
 "http://www.w3.org/TR/2001/REC-SVG-20010904/DTD/svg10.dtd">
<svg version="1.0" xmlns="http://www.w3.org/2000/svg"
 width="992.000000pt" height="992.000000pt" viewBox="0 0 992.000000 992.000000"
 preserveAspectRatio="xMidYMid meet">
<metadata>
Created by potrace 1.14, written by Peter Selinger 2001-2017
</metadata>
<g transform="translate(0.000000,992.000000) scale(0.100000,-0.100000)"
fill="#000000" stroke="none">
<path d="M4595 9554 c-22 -2 -92 -9 -155 -15 -1244 -115 -2454 -705 -3251
-1585 -63 -69 -117 -132 -122 -139 -9 -17 80 -19 888 -20 l580 0 5 75 5 75 35
-2 c19 -1 127 -3 240 -5 113 -2 211 -7 218 -11 9 -6 12 -51 12 -169 l0 -160
30 6 c22 4 32 1 36 -9 4 -8 13 -15 21 -15 18 0 73 57 73 75 0 18 39 30 53 16
7 -7 6 -16 -6 -29 -21 -23 -22 -52 -2 -52 27 0 16 -39 -20 -67 -23 -19 -35
-36 -35 -53 0 -14 -7 -35 -15 -47 -8 -11 -14 -33 -14 -49 0 -16 -4 -60 -8 -99
-8 -69 -8 -70 -39 -73 -25 -2 -40 5 -75 39 l-44 42 -3 -27 c-3 -26 -6 -28 -34
-22 -17 3 -35 6 -40 6 -5 0 -6 9 -3 20 4 11 3 34 0 51 -5 24 -11 29 -28 27
-25 -3 -36 -50 -18 -72 15 -18 3 -26 -41 -26 -37 0 -38 1 -38 36 0 42 -15 74
-35 74 -18 0 -27 -32 -19 -65 11 -44 -34 -59 -88 -31 -17 9 -42 12 -68 9 -40
-6 -41 -5 -57 36 -17 43 -30 51 -39 26 -4 -9 -11 -15 -18 -14 -29 4 -37 -2
-31 -21 4 -11 2 -20 -4 -20 -6 0 -11 8 -11 18 0 10 -4 22 -9 28 -15 14 -16
106 -3 131 14 26 -1 41 -23 23 -12 -10 -20 -9 -41 5 -19 12 -39 16 -70 12 -42
-4 -43 -4 -38 22 7 32 -15 55 -41 45 -11 -4 -15 -14 -11 -26 4 -17 1 -19 -20
-15 -13 2 -24 0 -24 -5 0 -5 -13 -14 -30 -19 -16 -6 -30 -15 -30 -20 0 -5 -12
-9 -26 -9 -23 0 -26 3 -22 28 3 15 7 33 9 41 2 8 -4 17 -14 19 -17 3 -18 -1
-12 -60 6 -62 6 -63 -21 -75 -16 -7 -37 -13 -48 -13 -18 0 -18 -2 -6 -10 13
-9 12 -12 -4 -22 -27 -15 -66 -58 -66 -72 0 -6 4 -18 10 -26 7 -12 12 -12 35
0 23 12 28 12 35 0 7 -11 3 -18 -15 -27 -31 -17 -43 -53 -21 -68 8 -7 13 -15
9 -18 -12 -12 -34 -7 -63 13 -21 15 -50 21 -112 25 -45 2 -164 9 -264 15 -99
6 -274 9 -387 6 -114 -3 -217 -2 -230 3 -12 4 -72 6 -133 3 l-111 -4 -32 -52
c-17 -29 -31 -62 -31 -74 0 -13 -7 -25 -15 -28 -17 -7 -88 -131 -81 -142 2 -4
35 -5 73 -1 72 6 120 -6 115 -30 -1 -7 -3 -38 -4 -68 -1 -30 -6 -56 -10 -59
-16 -10 -48 28 -48 57 0 18 -9 35 -26 48 -33 26 -49 26 -67 1 -10 -14 -20 -18
-33 -14 -14 5 -11 -1 10 -24 l30 -32 -42 0 c-22 0 -44 5 -47 11 -8 12 -37 -47
-110 -226 -92 -225 -154 -419 -101 -317 9 17 25 33 35 37 11 3 29 22 40 41 20
34 22 35 66 28 33 -4 51 -2 69 9 29 19 42 8 52 -40 7 -38 -9 -50 -33 -26 -18
18 -20 17 -58 -19 -28 -27 -47 -37 -65 -36 -17 2 -25 -2 -25 -12 0 -10 8 -14
27 -12 40 4 61 -32 47 -81 -7 -26 -16 -37 -28 -37 -10 0 -21 -8 -23 -17 -3
-10 -19 -26 -36 -36 -30 -17 -31 -17 -51 5 -12 12 -21 29 -21 39 0 19 -24 42
-33 32 -4 -3 -7 -32 -7 -63 0 -69 14 -85 65 -77 41 7 60 -8 70 -54 9 -38 -7
-52 -51 -45 -32 4 -54 -8 -54 -30 0 -8 11 -12 28 -11 22 2 28 -2 30 -24 2 -20
-4 -32 -26 -48 -21 -14 -31 -32 -36 -59 -6 -40 -37 -79 -54 -68 -20 12 -32
-19 -17 -44 8 -14 17 -30 20 -37 8 -14 -29 -53 -49 -53 -26 0 -46 12 -47 29
-1 28 -18 -20 -18 -55 l-1 -31 143 -6 c78 -3 234 -2 347 3 113 5 287 9 386 9
181 1 244 6 244 22 0 9 -106 32 -123 26 -17 -6 -67 21 -67 37 0 7 11 18 25 24
21 10 25 19 25 52 0 36 -3 42 -35 57 -29 14 -35 22 -33 42 4 34 30 38 69 11
16 -12 32 -20 35 -17 11 11 -21 89 -40 99 -12 6 -26 18 -33 27 -8 10 -12 11
-13 4 0 -7 -10 -21 -22 -33 -39 -36 -122 -20 -152 30 -14 25 -23 30 -57 30
-21 0 -42 0 -46 0 -5 0 -8 -8 -8 -17 0 -10 -10 -28 -21 -40 -21 -22 -57 -28
-151 -24 -22 1 -34 21 -13 21 6 0 10 25 10 58 -1 154 1 159 44 127 11 -8 33
-15 49 -15 20 0 39 -11 66 -40 36 -39 64 -50 76 -30 3 6 13 10 22 10 8 0 31
14 50 30 41 37 97 41 136 10 26 -21 44 -24 71 -14 11 4 13 10 8 18 -15 18 -21
115 -8 124 6 5 30 15 54 22 24 7 46 18 49 24 9 14 3 86 -8 108 -5 9 -6 23 -3
31 5 15 63 43 99 49 16 3 19 10 17 36 -5 49 11 62 79 62 47 0 62 4 79 22 12
13 18 29 14 40 -8 27 13 48 50 48 17 0 42 3 55 7 22 6 23 10 19 69 l-4 63 45
11 c27 7 83 9 145 5 56 -3 254 -10 441 -16 187 -5 355 -12 372 -15 32 -6 63
-46 63 -81 0 -7 5 -13 11 -13 5 0 19 -20 30 -45 13 -30 26 -45 39 -45 24 0 49
25 55 56 3 13 7 35 10 48 3 14 20 34 40 46 19 12 35 26 35 31 0 5 7 9 15 9 8
0 23 9 32 20 10 11 30 20 45 20 14 0 34 7 42 16 22 21 9 40 -13 20 -36 -33
-71 -12 -71 41 0 25 -6 36 -22 43 l-23 9 23 7 c12 3 22 10 22 15 0 5 5 9 12 9
6 0 20 8 30 17 18 16 21 16 51 -2 18 -10 62 -44 99 -76 37 -31 77 -64 89 -73
20 -13 21 -21 17 -85 -3 -43 -1 -74 5 -80 7 -7 60 -11 132 -11 66 0 161 -5
212 -10 81 -9 307 -17 648 -23 55 -1 110 2 123 7 24 10 35 36 30 76 -3 21 2
26 25 28 28 3 29 3 27 -50 -1 -29 -1 -59 -1 -65 1 -15 101 -18 116 -4 6 5 24
3 43 -5 36 -16 32 3 37 -201 l2 -93 -33 -6 c-19 -3 -34 -12 -34 -20 0 -15 -67
-27 -120 -22 l-35 3 -2 140 c-2 77 -3 148 -3 158 0 9 -4 17 -10 17 -8 0 -15
-171 -12 -283 2 -37 1 -38 -26 -33 -15 4 -52 10 -82 15 -30 5 -67 14 -82 20
l-28 11 0 126 c0 96 -3 125 -12 121 -10 -3 -13 -38 -14 -126 0 -93 -4 -125
-14 -131 -8 -5 -19 -6 -25 -2 -5 3 -48 9 -95 13 -47 4 -102 11 -123 17 -31 8
-39 7 -44 -4 -7 -19 -43 -18 -43 1 0 10 -10 15 -26 15 -22 0 -25 -2 -14 -15
11 -13 6 -15 -35 -15 -64 0 -55 -22 16 -35 l54 -10 -57 -3 c-32 -2 -66 2 -77
8 -11 5 -28 10 -38 10 -10 0 -43 27 -75 61 l-56 61 -264 -4 -263 -3 2 29 c3
35 -12 66 -32 66 -18 0 -28 -31 -19 -64 5 -22 2 -27 -21 -36 -15 -6 -48 -28
-73 -50 -24 -22 -49 -40 -54 -40 -6 0 -19 11 -30 25 -11 14 -28 25 -38 25 -11
0 -30 5 -44 11 -34 16 -77 -10 -69 -41 4 -13 -1 -22 -13 -26 -11 -3 -27 -10
-36 -15 -20 -10 -31 2 -22 25 7 17 -55 81 -67 68 -4 -4 -11 -31 -15 -61 l-7
-53 27 17 c19 13 30 15 37 8 19 -19 -8 -50 -72 -79 -57 -27 -60 -30 -55 -57 3
-16 6 -33 6 -37 0 -4 23 -7 50 -7 65 1 85 -18 84 -76 -1 -67 -22 -99 -81 -126
-29 -14 -53 -31 -53 -39 0 -8 -8 -12 -17 -10 -10 2 -17 12 -16 22 1 11 -4 15
-14 12 -8 -3 -19 -6 -24 -6 -5 0 -9 -7 -9 -15 0 -16 -12 -18 -47 -9 -17 5 -23
14 -23 35 0 27 -1 28 -32 17 -56 -18 -95 -63 -102 -117 -5 -37 -13 -53 -35
-71 -20 -15 -32 -34 -36 -60 -4 -22 -13 -44 -20 -50 -21 -17 -81 5 -117 44
-25 27 -28 36 -24 78 7 63 32 101 63 95 31 -6 51 27 31 51 -8 9 -22 34 -31 55
-17 38 -17 40 4 73 12 19 32 37 47 40 39 10 82 43 82 63 0 10 9 26 20 36 11
10 20 23 20 30 0 16 43 55 62 55 19 0 43 70 34 104 -5 22 -2 28 19 36 38 14
35 64 -5 85 -33 17 -66 20 -75 5 -9 -15 -36 -12 -49 4 -8 12 -21 13 -55 6 -53
-10 -68 -5 -77 22 -5 16 -12 19 -34 14 -29 -5 -57 14 -46 33 9 13 -33 41 -62
41 -17 0 -22 -4 -19 -15 8 -20 -11 -30 -28 -15 -11 10 -15 7 -21 -14 -3 -14
-12 -26 -20 -26 -8 0 -11 -6 -7 -16 4 -11 -1 -22 -12 -30 -17 -13 -24 -9 -67
37 -50 54 -68 56 -68 9 0 -24 6 -32 35 -44 37 -16 44 -36 20 -56 -22 -18 -62
2 -67 32 -2 15 -11 24 -25 26 -24 4 -31 -12 -12 -24 15 -9 4 -72 -14 -88 -8
-6 -19 -30 -26 -53 -9 -34 -17 -44 -46 -53 -19 -6 -39 -9 -45 -5 -15 9 -12 41
5 75 13 25 22 30 50 30 42 0 44 8 7 43 l-29 27 -11 -25 c-7 -16 -17 -23 -27
-19 -9 4 -15 1 -15 -7 0 -8 -7 -27 -15 -43 -8 -15 -12 -32 -9 -37 12 -20 10
-119 -3 -123 -8 -3 -13 -22 -13 -46 0 -43 -17 -53 -41 -24 -11 13 -14 13 -21
0 -4 -8 -4 -26 2 -40 5 -14 8 -55 7 -92 -2 -60 0 -67 20 -75 12 -4 27 -18 33
-29 16 -30 -12 -60 -56 -60 -24 0 -37 -6 -45 -22 -7 -13 -16 -26 -22 -29 -5
-4 -7 -19 -3 -33 5 -19 13 -26 31 -26 13 0 27 5 30 10 11 17 22 11 27 -15 3
-14 -3 -43 -15 -66 -17 -34 -18 -42 -6 -51 12 -8 657 -4 1124 7 66 2 400 6
743 10 l623 8 15 35 c19 46 14 58 -31 68 -39 9 -54 35 -75 124 -13 56 -34 100
-45 97 -5 -2 -11 -20 -13 -39 -3 -35 -4 -36 -42 -34 -31 2 -46 10 -72 39 -34
37 -42 40 -91 38 -22 -1 -31 -8 -43 -36 -15 -37 -34 -44 -54 -20 -14 17 -66
20 -76 4 -3 -6 -18 -9 -32 -6 -38 7 -66 -24 -67 -76 0 -30 -6 -48 -22 -64 -21
-21 -22 -53 -2 -53 5 0 9 -6 9 -14 0 -9 -13 -14 -40 -14 l-40 -1 0 44 c0 29 5
45 15 49 15 5 21 37 9 49 -4 3 -7 28 -8 54 -1 43 2 49 27 61 19 9 27 21 27 39
0 34 56 149 76 157 28 11 3 27 -31 20 -31 -5 -33 -4 -40 25 -4 19 -2 37 4 45
12 15 353 40 456 34 54 -3 61 -6 73 -30 7 -15 29 -40 49 -57 49 -40 98 -43
493 -31 179 5 396 10 483 10 179 1 186 5 150 72 -13 23 -17 40 -11 44 5 3 46
4 91 0 162 -11 576 -11 587 0 9 9 8 25 -4 63 l-15 51 106 0 106 0 -7 -52 c-4
-29 -14 -84 -22 -123 -16 -80 -18 -119 -5 -111 5 3 14 -1 21 -9 17 -20 30 -19
30 3 1 21 38 67 47 58 3 -3 2 -16 -4 -29 -36 -78 -43 -136 -22 -196 6 -17 8
-39 4 -49 -5 -14 -10 -9 -26 23 -28 57 -36 61 -44 24 -7 -29 -8 -31 -18 -13
-6 10 -10 31 -8 45 2 23 -1 26 -22 22 -14 -3 -49 2 -79 10 -42 12 -113 15
-355 14 l-302 -2 -29 -31 c-15 -17 -34 -33 -41 -35 -11 -4 -24 -102 -30 -234
-1 -5 -11 -11 -23 -12 -13 0 -32 -3 -43 -5 -16 -2 -20 2 -19 27 1 32 -10 45
-38 45 -13 0 -18 -8 -18 -25 0 -18 5 -25 20 -25 24 0 26 -15 4 -28 -12 -6 -5
-12 28 -22 33 -11 109 -13 338 -11 162 1 319 4 349 6 30 3 140 5 245 6 185 1
191 1 208 -21 10 -12 18 -32 18 -44 0 -12 14 -57 31 -101 35 -91 61 -175 80
-255 26 -118 42 -151 89 -183 13 -9 35 -17 48 -17 23 0 23 -1 9 -23 -22 -34
-31 -85 -17 -102 7 -8 27 -15 44 -15 26 -1 28 -2 13 -11 -12 -7 -16 -17 -11
-31 12 -40 -49 -158 -83 -158 -7 0 -13 -3 -13 -8 0 -4 -15 -15 -33 -25 -34
-19 -67 -63 -67 -91 0 -9 16 -33 35 -55 31 -34 34 -42 25 -65 -5 -14 -34 -50
-65 -79 -30 -30 -55 -60 -55 -66 0 -18 55 -69 126 -116 95 -64 151 -129 199
-230 61 -129 81 -245 67 -385 -6 -58 -15 -125 -22 -150 -6 -25 -15 -63 -19
-86 -7 -39 -41 -104 -68 -132 -7 -8 -18 -22 -23 -33 -14 -24 -40 -25 -47 0 -5
21 -1 23 -121 -37 l-63 -32 3 42 c3 39 6 44 33 49 27 6 26 7 -12 8 -23 0 -44
-3 -48 -8 -6 -10 -34 -13 -120 -13 -27 0 -44 -2 -37 -5 17 -7 15 -44 -4 -82
-14 -28 -14 -36 -3 -58 8 -14 23 -29 34 -33 11 -4 40 -29 64 -55 40 -43 45
-46 52 -28 6 15 20 21 61 26 59 6 178 58 243 106 22 16 74 52 115 80 41 27 87
62 101 76 24 25 27 25 33 8 7 -17 8 -17 22 1 16 23 121 41 157 27 14 -5 42 -7
64 -4 25 3 43 1 47 -6 11 -17 54 -13 106 11 36 16 50 29 54 48 3 19 17 32 46
45 62 28 79 46 73 78 -4 20 -1 28 13 33 11 3 27 10 37 15 27 15 22 -27 -8 -53
-26 -23 -28 -55 -6 -96 9 -18 10 -31 2 -54 -6 -17 -11 -55 -11 -85 0 -30 -5
-96 -12 -148 -11 -90 -12 -94 -38 -100 -34 -7 -244 3 -325 15 -74 12 -105 12
-105 2 0 -31 215 -62 428 -62 l71 0 78 75 78 76 0 257 0 257 -94 8 c-52 4 -97
10 -99 12 -3 2 3 23 12 45 15 38 15 44 -1 77 -14 31 -15 39 -3 67 13 28 16 96
9 179 -2 17 1 41 6 52 4 11 16 42 26 70 16 45 16 52 2 76 -15 25 -15 30 0 68
19 46 22 107 7 116 -6 3 -13 -2 -16 -12 -14 -45 -60 -135 -76 -150 -17 -15
-18 -15 -18 0 0 9 9 31 20 49 11 18 20 47 20 63 0 17 12 47 26 68 36 54 41 95
14 130 -12 15 -28 27 -37 27 -8 0 -29 11 -45 25 -24 21 -37 24 -64 19 -32 -6
-34 -5 -34 21 0 32 20 106 32 120 4 5 8 19 8 31 0 12 7 27 15 34 20 17 19 87
-3 126 -17 32 -39 78 -71 144 -9 19 -24 46 -33 59 -10 13 -18 31 -18 41 0 9
-11 27 -25 40 -32 30 -56 77 -48 96 3 8 -5 23 -21 35 -14 11 -26 29 -26 39 0
9 -7 23 -15 30 -8 7 -15 21 -15 31 0 11 -4 19 -10 19 -5 0 -10 9 -10 20 0 11
-4 20 -10 20 -5 0 -10 7 -10 15 0 9 -7 18 -15 21 -8 4 -15 17 -15 30 0 13 -6
24 -13 24 -8 0 -19 11 -25 24 -10 22 -55 41 -92 38 -24 -1 -50 18 -50 38 0 27
11 30 71 19 30 -5 83 -14 119 -19 36 -5 75 -12 88 -16 16 -5 37 1 64 16 39 22
47 22 167 16 69 -4 153 -11 186 -16 33 -6 96 -13 140 -16 71 -6 84 -4 115 15
32 19 49 21 200 21 164 -1 165 -1 183 -26 10 -13 17 -35 15 -47 -3 -22 -3 -22
-208 -20 -188 2 -749 19 -897 27 -60 4 -63 3 -63 -20 0 -12 6 -27 13 -31 13
-9 32 -42 99 -173 24 -47 46 -87 49 -90 4 -3 16 -23 28 -45 11 -22 32 -58 46
-80 24 -39 69 -123 107 -198 11 -21 27 -52 38 -69 l18 -30 20 43 c10 24 32 59
48 78 44 51 148 151 157 151 5 0 22 9 39 21 121 87 292 135 504 143 219 9 379
-15 603 -91 129 -43 184 -71 239 -123 24 -22 47 -40 50 -40 13 -1 78 -65 144
-142 113 -134 187 -306 236 -553 l8 -40 174 -5 c96 -3 181 -9 188 -13 6 -5 12
-25 12 -46 0 -21 3 -66 7 -100 l6 -63 253 4 c139 1 255 6 259 10 12 11 64 286
87 458 20 144 22 209 23 520 0 195 -4 384 -8 420 l-8 65 -102 2 c-56 1 -525 4
-1041 7 -517 3 -943 9 -948 14 -5 5 -11 25 -14 44 -7 43 7 51 74 38 74 -14
899 -30 1690 -34 l333 -1 -6 50 c-15 109 -46 279 -60 318 -8 22 -12 44 -10 47
5 9 -54 235 -96 367 -85 267 -254 642 -400 888 -741 1245 -2024 2096 -3519
2334 -283 45 -394 53 -780 56 -206 1 -393 1 -415 -1z m1332 -265 c14 -12 17
-57 5 -75 -4 -6 -22 -19 -39 -28 -18 -9 -33 -24 -33 -34 0 -9 -11 -30 -25 -46
-14 -16 -25 -40 -25 -53 0 -21 -42 -73 -59 -73 -4 0 -15 -14 -24 -30 -10 -17
-31 -37 -47 -45 -15 -8 -44 -37 -65 -65 -20 -27 -43 -50 -50 -50 -8 0 -29 -15
-47 -34 -33 -34 -136 -76 -220 -92 -36 -6 -53 -24 -24 -24 22 0 29 -19 15 -37
-7 -8 -38 -32 -69 -52 l-55 -37 -110 4 c-177 7 -307 0 -330 -18 -5 -4 -44 -11
-85 -14 -41 -4 -92 -14 -113 -23 -30 -13 -42 -14 -63 -5 -38 18 -64 15 -98
-11 -17 -13 -43 -27 -58 -31 -16 -3 -28 -10 -28 -15 0 -16 -289 -12 -328 5
-24 9 -39 11 -52 4 -10 -6 -31 -10 -45 -10 -26 0 -27 -2 -20 -36 l6 -36 -41
23 c-50 28 -56 35 -64 75 -5 24 -3 36 11 48 80 72 99 102 140 211 15 41 23 51
45 53 15 2 43 19 63 38 42 39 48 41 74 15 24 -24 61 -17 61 12 0 18 -25 46
-42 47 -3 0 -9 -8 -11 -17 -3 -12 -5 -10 -6 7 0 28 13 48 48 72 25 18 51 14
51 -7 0 -16 23 -26 39 -16 8 5 10 18 5 35 -4 16 -1 32 6 41 15 18 51 20 68 3
9 -9 15 -9 27 3 14 14 14 18 -4 41 -18 23 -19 27 -5 46 25 36 53 46 74 27 10
-9 29 -15 42 -13 18 2 24 10 26 35 4 36 33 63 69 63 13 0 31 9 40 20 18 21 77
28 87 11 9 -14 52 -19 71 -8 25 14 68 16 89 5 10 -6 35 -10 55 -10 20 0 40 -5
44 -11 5 -8 7 -4 5 8 -2 12 4 21 15 23 19 4 25 -32 7 -43 -16 -10 -1 -25 25
-25 32 0 40 16 21 44 l-15 24 65 -2 c35 0 64 -4 64 -8 0 -4 7 -5 15 -2 9 4 15
0 15 -10 0 -10 8 -16 21 -16 15 0 19 5 15 18 -4 12 3 23 24 35 33 20 70 15 70
-8 0 -18 37 -38 56 -31 8 3 14 18 14 34 0 20 8 32 29 45 42 24 58 21 65 -13 7
-37 28 -39 62 -5 29 29 63 40 95 30 19 -6 20 -9 6 -16 -24 -14 -9 -39 22 -39
21 0 31 -7 42 -32 17 -40 59 -52 59 -18 0 13 -8 24 -20 27 -11 3 -20 11 -20
18 0 7 -7 16 -15 19 -13 4 -14 10 -5 26 12 23 60 28 60 6 0 -20 27 -38 47 -32
10 3 23 16 28 28 18 42 114 58 152 27z m188 -333 c39 -17 41 -24 21 -64 -7
-15 -16 -45 -19 -66 -4 -21 -24 -64 -45 -95 -21 -31 -49 -82 -62 -114 -23 -58
-36 -72 -109 -116 -27 -17 -45 -38 -56 -65 -27 -65 -55 -97 -109 -121 -59 -27
-85 -52 -115 -117 -21 -45 -25 -48 -62 -48 -21 0 -66 -9 -100 -21 -37 -13 -72
-19 -90 -15 -20 4 -47 -3 -87 -21 -59 -28 -106 -32 -192 -18 -38 6 -57 2 -107
-19 -35 -14 -79 -26 -99 -26 -24 0 -55 -12 -95 -36 -62 -39 -59 -38 -159 -10
-55 15 -55 15 -119 -15 -59 -27 -70 -29 -135 -23 -66 6 -76 4 -141 -27 -79
-37 -113 -40 -170 -14 -46 21 -54 20 -112 -6 -54 -25 -86 -24 -133 2 -66 37
-77 89 -30 142 27 31 29 40 24 79 -7 47 3 62 41 70 14 2 22 14 26 38 4 19 7
27 8 17 2 -30 41 -40 83 -23 20 9 39 20 43 26 3 5 24 10 45 10 21 0 42 5 45
10 3 6 19 10 35 10 23 0 28 -3 23 -17 -5 -13 -1 -15 24 -10 17 3 53 9 81 13
29 3 57 13 63 20 6 8 17 14 24 14 8 0 27 12 44 26 27 23 38 25 103 24 40 -1
84 2 98 8 15 5 57 13 95 16 39 4 102 14 142 23 61 14 76 15 97 4 13 -7 29 -10
35 -7 13 8 99 9 167 2 55 -6 131 14 127 33 -2 6 4 11 12 11 8 0 15 -7 15 -15
0 -8 8 -15 17 -15 22 0 53 -29 53 -50 0 -9 5 -21 11 -27 26 -26 -35 -61 -130
-74 -36 -5 -79 -14 -96 -19 -16 -5 -64 -14 -105 -20 -41 -6 -102 -18 -135 -25
-33 -8 -91 -17 -130 -21 -38 -3 -108 -13 -155 -21 -98 -16 -174 -28 -279 -42
-41 -6 -86 -15 -100 -20 -26 -10 -165 -31 -201 -31 -11 0 -20 7 -20 15 0 8 -7
15 -15 15 -11 0 -14 -7 -9 -25 6 -23 3 -25 -25 -25 -17 0 -34 -1 -38 -2 -5 -1
-18 12 -29 30 -12 17 -24 29 -27 26 -6 -7 12 -63 26 -82 13 -16 121 -15 207 3
36 8 112 19 170 25 58 7 134 18 170 25 36 7 90 16 120 19 30 4 87 13 125 21
39 8 144 24 235 36 231 29 263 34 370 58 52 12 118 26 145 32 28 5 60 12 72
14 37 8 149 111 229 210 41 52 91 109 111 127 51 48 162 207 174 251 7 27 15
37 27 35 13 -2 18 5 20 31 2 18 -1 38 -7 44 -28 28 -7 34 44 13z m482 -596
l25 -19 -29 -6 c-15 -3 -42 -10 -60 -16 -23 -7 -37 -7 -52 3 -26 16 -27 27 -3
34 9 3 24 9 32 14 25 15 61 11 87 -10z m-268 -74 c9 -10 8 -15 -4 -20 -8 -3
-15 -15 -15 -26 0 -32 48 -28 56 5 6 25 37 35 49 15 9 -14 -20 -126 -46 -179
-14 -29 -31 -47 -54 -57 -68 -28 -118 25 -79 84 10 15 17 33 16 40 -2 7 4 15
13 18 8 3 15 12 15 20 0 8 6 23 12 34 10 16 10 24 0 40 -6 11 -12 24 -12 30 0
15 36 12 49 -4z m-4580 -258 c1 -47 -3 -74 -11 -79 -16 -10 -38 8 -38 32 0 10
-4 20 -9 23 -12 8 -1 58 17 79 29 34 39 20 41 -55z m247 59 c2 -7 -9 -44 -27
-82 -34 -75 -49 -74 -49 3 0 32 6 49 25 67 27 28 43 31 51 12z m-501 -35 c9
-53 -13 -116 -43 -120 -20 -3 -22 1 -22 46 0 32 5 54 15 62 8 7 15 21 15 31 0
36 28 20 35 -19z m113 -72 c-26 -46 -38 -51 -38 -16 0 27 24 56 46 56 11 0 10
-9 -8 -40z m4711 -21 c28 -10 43 -29 23 -29 -4 0 -25 -22 -46 -50 -21 -27 -42
-47 -47 -44 -17 10 -10 81 12 108 11 14 22 26 23 26 2 0 17 -5 35 -11z m-1470
-21 c20 -6 50 -17 66 -24 17 -7 44 -18 60 -24 22 -8 26 -13 16 -20 -16 -9 -41
-3 -41 11 0 5 -10 9 -23 9 -26 0 -126 35 -141 50 -14 14 18 13 63 -2z m1327
-107 c18 -47 46 -61 136 -68 49 -4 87 -1 134 12 52 14 73 15 102 7 20 -6 49
-13 63 -16 20 -4 32 -18 48 -57 13 -28 48 -79 79 -113 32 -33 68 -77 82 -96
29 -43 39 -50 67 -50 33 0 164 -64 192 -94 14 -14 29 -26 35 -26 20 -1 43 -44
77 -143 l33 -97 -34 -30 c-58 -49 -148 -78 -215 -68 -18 3 -20 -3 -22 -62 -1
-57 1 -68 23 -88 30 -28 30 -40 2 -44 -13 -2 -23 -10 -23 -18 0 -16 6 -17 41
-6 15 5 32 -5 66 -39 25 -25 49 -45 52 -45 4 0 11 11 16 25 6 16 17 25 31 25
15 0 19 -4 15 -16 -3 -9 -6 -23 -6 -32 0 -16 -14 -17 -142 -14 -79 2 -151 8
-160 13 -29 16 -67 10 -78 -11 -6 -11 -10 -50 -9 -85 1 -36 -1 -68 -4 -72 -10
-9 -120 -4 -131 7 -6 6 -5 14 2 22 8 11 0 21 -40 48 -46 32 -57 35 -117 34
-53 0 -76 -6 -116 -28 -112 -64 -194 -99 -270 -117 -44 -11 -92 -23 -106 -28
-14 -4 -36 -4 -49 1 -13 5 -55 7 -94 6 l-69 -3 -25 -44 c-28 -50 -62 -91 -62
-73 0 6 11 31 25 56 14 25 25 49 25 53 0 11 -69 48 -76 40 -3 -3 -12 -23 -19
-44 l-13 -38 -134 4 c-133 3 -169 12 -197 45 -8 10 -29 16 -52 16 -32 0 -39
-4 -39 -19 0 -14 -5 -18 -20 -14 -17 4 -20 0 -20 -24 0 -16 5 -34 12 -41 9 -9
9 -12 1 -12 -7 0 -14 4 -17 9 -7 10 -44 3 -63 -12 -7 -5 -13 -22 -13 -38 0
-27 -2 -29 -27 -23 -48 10 -51 12 -55 36 -3 23 -23 24 -23 1 0 -28 -22 -34
-99 -27 -61 5 -76 10 -72 21 10 26 -13 53 -44 53 -28 0 -30 -3 -30 -35 l0 -35
-54 0 c-59 0 -73 9 -57 38 6 12 5 39 -4 82 -7 35 -12 68 -9 71 2 4 0 9 -5 11
-5 1 -13 15 -16 30 -11 44 25 53 161 39 61 -6 178 -11 259 -11 175 0 185 4
185 81 0 27 -5 51 -12 56 -7 4 -44 13 -83 18 l-70 10 4 149 c3 120 6 152 20
165 9 10 26 30 38 44 13 15 26 27 31 27 4 0 21 -28 38 -62 l30 -63 144 -7 c80
-4 188 -8 240 -10 l95 -3 18 60 c10 33 35 104 55 158 44 121 41 129 -49 139
-77 8 -133 23 -148 42 -9 11 -20 12 -44 5 -72 -21 -104 -12 -155 39 -26 26
-89 81 -139 121 -51 41 -93 76 -93 79 0 8 72 95 99 121 34 30 126 71 161 71
20 0 45 -15 82 -48 29 -27 63 -54 75 -60 34 -19 104 -14 141 8 37 23 139 39
243 40 47 0 70 4 79 15 15 19 129 95 141 95 5 0 16 -17 25 -39z m-2524 -9 c6
-28 -6 -89 -15 -74 -14 22 -26 72 -21 87 7 18 31 9 36 -13z m464 -80 c15 -56
7 -92 -20 -92 -20 0 -26 23 -26 92 0 50 3 59 16 56 11 -2 22 -22 30 -56z m249
-12 c3 -5 -3 -10 -14 -10 -11 0 -23 5 -26 10 -3 6 3 10 14 10 11 0 23 -4 26
-10z m-129 -115 c4 -9 -8 -31 -30 -55 -35 -39 -36 -41 -21 -69 18 -37 7 -48
-58 -57 l-47 -7 5 -43 c3 -24 1 -45 -5 -49 -5 -3 -10 -19 -10 -35 0 -16 -5
-32 -11 -35 -6 -5 -3 -13 10 -22 28 -19 27 -43 -3 -43 -36 0 -53 48 -38 109 6
25 14 63 18 84 3 20 10 39 14 42 4 2 5 15 3 28 -3 14 2 29 11 36 9 8 16 29 16
51 0 36 2 38 45 49 25 6 45 16 45 21 0 16 50 11 56 -5z m592 -50 c24 -52 7
-95 -37 -95 -15 0 -14 93 1 108 17 17 23 15 36 -13z m62 5 c0 -15 -7 -20 -25
-20 -27 0 -32 9 -13 28 18 18 38 14 38 -8z m2227 -20 c-1 -22 -5 -40 -9 -40
-4 0 -8 18 -8 40 0 22 4 40 9 40 6 0 9 -18 8 -40z m-3467 -6 c0 -2 -9 -4 -21
-4 -11 0 -18 4 -14 10 5 8 35 3 35 -6z m-45 -64 c8 -13 -5 -13 -25 0 -13 8
-13 10 2 10 9 0 20 -4 23 -10z m-146 -68 c13 -24 17 -193 5 -214 -24 -43 -144
-130 -197 -142 -23 -6 -27 -10 -17 -21 8 -10 8 -19 0 -34 -13 -25 -18 -26 -41
-5 -10 9 -25 14 -32 11 -18 -7 -30 -64 -17 -87 7 -13 4 -22 -10 -35 -19 -17
-21 -17 -41 1 -17 15 -20 26 -15 55 4 25 1 40 -7 48 -8 6 -16 9 -19 6 -2 -3
-108 -5 -234 -6 -416 -1 -414 -1 -408 16 4 8 16 15 29 15 24 0 197 30 305 54
167 36 272 55 350 66 116 15 134 24 126 57 -6 22 -4 24 11 18 58 -24 72 -28
86 -22 8 3 18 20 22 37 5 23 10 28 19 21 7 -6 16 -8 19 -4 4 3 14 0 22 -7 21
-17 38 -1 33 31 -2 17 -10 24 -26 25 -12 1 -25 4 -29 8 -3 3 -12 1 -20 -5 -10
-9 -13 -3 -13 32 0 39 1 41 14 24 13 -18 14 -18 25 3 12 23 0 38 -24 28 -11
-4 -15 2 -15 19 0 23 4 25 45 25 32 0 47 -5 54 -18z m1794 -24 c64 -6 117 -15
117 -19 0 -4 -3 -15 -6 -23 -6 -15 -8 -15 -20 1 -12 16 -13 15 -14 -15 0 -25
-6 -35 -26 -44 -25 -12 -25 -12 -5 -20 12 -4 29 -21 40 -39 18 -29 20 -30 30
-12 10 16 11 14 9 -12 -3 -26 -7 -30 -33 -31 -16 0 -59 -4 -95 -8 -71 -8 -76
-5 -95 62 -10 36 -30 19 -30 -26 0 -31 -7 -48 -29 -71 -39 -41 -48 -30 -57 66
-5 47 -14 82 -23 91 -14 14 -18 14 -38 -5 -13 -12 -32 -23 -43 -25 -11 -2 -20
-10 -20 -18 0 -8 -17 -23 -37 -33 -21 -10 -38 -24 -38 -32 0 -7 -7 -18 -16
-25 -12 -11 -18 -11 -30 2 -13 13 -12 17 5 40 14 17 21 44 23 82 3 50 5 56 26
56 12 0 22 -5 22 -11 0 -15 47 -3 77 21 13 10 32 16 42 13 14 -4 20 3 25 27
l6 32 57 -6 c32 -3 111 -11 176 -18z m325 -81 c2 -11 -3 -17 -17 -17 -23 0
-35 15 -26 31 10 15 39 6 43 -14z m-1326 -102 c0 -6 -6 -13 -14 -16 -7 -3 -23
-11 -36 -18 -23 -12 -42 -8 -42 10 0 5 13 9 29 9 17 0 31 6 35 16 6 16 27 16
28 -1z m55 -1 c-3 -3 -12 -4 -19 -1 -8 3 -5 6 6 6 11 1 17 -2 13 -5z m-272
-83 c32 -33 62 -67 67 -75 5 -9 8 -51 6 -93 l-3 -78 -50 3 c-27 1 -66 5 -86 8
-32 5 -42 0 -83 -35 -26 -23 -50 -41 -54 -41 -4 0 -32 -23 -62 -51 -88 -81
-89 -81 -277 -77 -116 2 -166 7 -171 15 -5 7 -5 37 -2 67 3 30 2 88 -3 129 -6
41 -7 86 -3 101 6 24 10 26 64 26 31 0 128 -5 215 -10 182 -12 160 -19 277 94
43 42 85 76 93 76 8 0 40 -27 72 -59z m703 -40 c26 -22 28 -31 7 -31 -8 0 -15
-4 -15 -10 0 -14 23 -13 38 2 9 9 16 7 32 -10 21 -22 14 -32 -7 -11 -7 7 -13
8 -17 0 -4 -6 2 -19 14 -31 11 -11 20 -31 20 -44 0 -14 5 -28 10 -31 18 -11
10 -23 -20 -30 -27 -6 -30 -11 -30 -43 0 -19 7 -44 17 -54 15 -17 14 -18 -36
-18 -51 0 -55 -2 -106 -55 -52 -54 -72 -68 -62 -41 3 8 -5 18 -19 25 -13 6
-24 17 -24 25 0 21 -35 29 -62 15 -17 -9 -23 -9 -26 1 -2 6 -17 24 -33 40 -16
15 -29 32 -29 39 0 20 15 12 32 -19 14 -24 24 -30 50 -29 20 0 27 3 18 7 -60
27 -84 104 -37 121 12 5 30 5 40 -1 18 -9 25 6 7 17 -5 3 -10 13 -10 21 0 8 5
14 10 14 6 0 10 -6 10 -14 0 -8 7 -16 15 -20 17 -6 21 -36 5 -36 -5 0 -10 -9
-10 -20 0 -14 7 -20 23 -20 28 0 39 9 30 23 -3 6 -8 32 -10 58 -4 45 -2 49 22
55 16 4 25 13 25 25 0 17 3 18 20 7 32 -20 74 11 78 56 2 20 4 36 6 36 2 0 13
-8 24 -19z m-134 -26 c-4 -8 -8 -15 -10 -15 -2 0 -4 7 -4 15 0 8 4 15 10 15 5
0 7 -7 4 -15z m2944 -17 c-3 -31 -5 -33 -35 -30 -23 3 -33 -1 -33 -10 0 -33
49 -52 51 -20 1 9 5 -17 10 -58 4 -41 5 -78 3 -82 -9 -14 -71 -8 -84 7 -9 11
-9 15 -1 15 8 0 11 11 9 28 -2 19 -9 28 -25 30 -17 3 -23 10 -23 28 0 14 6 24
14 24 8 0 18 5 21 10 10 16 -5 50 -21 50 -8 0 -14 9 -14 20 0 18 7 20 66 20
l65 0 -3 -32z m206 -14 c19 -18 20 -36 4 -52 -17 -17 -48 4 -48 32 0 38 18 47
44 20z m201 -34 c0 -22 -39 -19 -43 3 -3 15 1 18 20 15 12 -2 23 -10 23 -18z
m-3115 0 c0 -5 -2 -10 -4 -10 -3 0 -8 5 -11 10 -3 6 -1 10 4 10 6 0 11 -4 11
-10z m3830 -26 c11 -11 15 -43 18 -120 3 -123 -7 -148 -83 -203 -44 -32 -52
-45 -37 -67 8 -12 73 -36 112 -40 104 -13 111 -15 104 -38 -9 -30 -14 -33 -24
-15 -10 16 -77 24 -95 11 -21 -15 -37 -61 -43 -128 -5 -52 -11 -69 -22 -69 -9
0 -16 11 -18 27 -7 55 -69 66 -87 15 -8 -24 -6 -31 9 -43 11 -8 17 -16 15 -19
-3 -3 -56 -2 -117 2 -93 5 -111 9 -110 22 5 61 -19 88 -50 57 -14 -13 -14 -21
-5 -46 l12 -31 -72 3 c-70 3 -71 3 -77 33 -4 17 -14 45 -24 62 -9 18 -16 35
-16 38 1 21 -2 25 -14 25 -7 0 -16 -9 -19 -20 -3 -12 -14 -20 -26 -20 -17 0
-21 6 -21 29 0 16 -6 32 -12 34 -7 3 2 6 20 6 18 1 41 -3 50 -8 12 -6 27 -2
49 13 l32 22 -25 37 c-13 20 -35 39 -47 41 -12 3 -93 7 -180 9 -113 3 -161 7
-167 16 -4 7 -7 43 -6 79 1 62 3 67 26 73 14 4 107 7 208 8 105 1 192 5 203
11 17 10 19 22 19 116 l0 106 253 -7 c196 -5 255 -10 267 -21z m-4330 -14 c11
-7 15 -37 16 -144 1 -118 0 -133 -13 -121 -8 8 -20 15 -26 15 -6 0 -28 17 -49
37 l-38 37 0 86 c0 48 3 90 7 93 10 10 86 8 103 -3z m60 -50 c0 -11 -4 -22
-10 -25 -5 -3 -10 0 -10 9 0 8 -3 22 -6 30 -5 12 -2 15 10 10 9 -3 16 -14 16
-24z m-2640 0 c0 -5 -5 -10 -11 -10 -6 0 -38 -20 -72 -44 -34 -24 -75 -51 -92
-60 -39 -21 -64 -37 -93 -58 -13 -9 -44 -20 -70 -23 -140 -19 -258 -51 -285
-77 -21 -21 -29 -22 -44 -7 -8 8 -17 8 -31 0 -14 -8 -32 -6 -73 9 -29 11 -55
17 -58 14 -3 -2 -4 -23 -2 -44 4 -54 -15 -59 -79 -19 -52 32 -65 31 -72 -5 -1
-10 -13 -23 -26 -27 -19 -7 -24 -4 -32 15 -13 34 -40 42 -40 11 0 -13 -9 -31
-21 -39 -24 -16 -18 -36 12 -36 14 0 19 -7 19 -30 0 -35 -19 -39 -77 -15 -19
8 -36 15 -37 15 0 0 1 -23 3 -51 4 -62 -10 -81 -40 -53 -11 10 -28 32 -36 47
-12 24 -19 28 -40 22 -16 -4 -34 0 -49 10 -26 17 -32 35 -10 35 7 0 31 14 52
31 28 22 44 29 63 24 13 -3 27 -3 30 2 3 4 15 13 26 19 11 6 22 20 23 30 2 10
17 33 33 50 16 17 26 34 22 38 -5 4 0 13 10 20 13 10 26 11 58 2 27 -7 42 -7
47 0 15 22 58 44 87 44 17 0 51 7 76 15 61 21 326 74 429 87 47 5 105 16 130
23 62 18 169 37 178 31 4 -3 14 -1 22 5 20 12 70 12 70 -1z m5907 -36 c9 -23
-13 -40 -32 -24 -8 7 -15 19 -15 26 0 19 39 18 47 -2z m-3594 -11 c-7 -2 -19
-2 -25 0 -7 3 -2 5 12 5 14 0 19 -2 13 -5z m4902 -18 c0 -21 -31 -33 -46 -18
-5 5 -7 17 -3 27 9 24 49 17 49 -9z m479 -21 c10 -26 7 -34 -12 -34 -24 0 -42
19 -35 36 7 19 39 18 47 -2z m-2212 -89 c4 -28 3 -67 -3 -88 -11 -41 -73 -117
-96 -117 -15 0 -15 -1 27 65 14 22 19 50 19 106 1 79 5 92 30 87 11 -2 18 -20
23 -53z m-2765 -27 c-3 -8 -6 -5 -6 6 -1 11 2 17 5 13 3 -3 4 -12 1 -19z m96
-68 c15 -13 -4 -89 -24 -95 -44 -14 -73 59 -39 100 12 15 44 13 63 -5z m-183
-20 c0 -5 -2 -10 -4 -10 -3 0 -8 5 -11 10 -3 6 -1 10 4 10 6 0 11 -4 11 -10z
m2630 -70 c20 -20 17 -50 -6 -50 -7 0 -26 11 -41 25 -24 21 -26 26 -13 35 22
15 38 12 60 -10z m281 -53 c-8 -8 -11 -5 -11 9 0 27 14 41 18 19 2 -9 -1 -22
-7 -28z m96 11 c-3 -8 -6 -5 -6 6 -1 11 2 17 5 13 3 -3 4 -12 1 -19z m506 -30
c-2 -5 -3 -12 -3 -18 0 -5 -5 -10 -12 -10 -6 0 -20 -8 -30 -17 -14 -13 -21
-14 -30 -5 -19 19 -55 14 -61 -8 -6 -24 -42 -27 -63 -6 -23 23 -18 64 9 68 42
7 192 3 190 -4z m-506 -90 c-2 -18 -4 -4 -4 32 0 36 2 50 4 33 2 -18 2 -48 0
-65z m1507 83 c7 -11 -3 -41 -13 -41 -17 0 -43 28 -37 38 9 14 42 16 50 3z
m-1619 -10 c3 -5 1 -12 -5 -16 -5 -3 -10 1 -10 9 0 18 6 21 15 7z m235 -62 c0
-11 -4 -17 -10 -14 -5 3 -10 13 -10 21 0 8 5 14 10 14 6 0 10 -9 10 -21z
m-670 -10 c30 -5 83 -12 118 -15 l63 -7 -1 -71 c-1 -39 1 -80 6 -90 8 -22 14
-17 -113 -101 -45 -30 -85 -55 -89 -55 -4 0 -16 -7 -26 -17 -15 -13 -23 -14
-44 -5 -15 7 -46 10 -78 6 l-52 -6 -13 40 c-14 40 -13 80 6 257 3 33 11 63 17
67 15 10 139 9 206 -3z m-1595 -53 c-11 -16 -26 -26 -41 -26 -27 0 -27 0 -14
34 6 16 15 24 24 20 8 -3 17 0 21 6 5 8 11 8 17 2 6 -6 4 -19 -7 -36z m1953
-6 c-4 -20 -28 -19 -41 2 -8 12 -7 21 3 33 13 16 15 16 27 -1 8 -10 12 -25 11
-34z m561 -27 c-15 -18 -38 -17 -46 2 -3 9 2 22 13 30 17 12 21 12 31 -2 9
-12 10 -20 2 -30z m274 22 c-7 -21 -13 -19 -13 6 0 11 4 18 10 14 5 -3 7 -12
3 -20z m1049 8 c10 -9 18 -25 18 -35 0 -15 -6 -19 -27 -16 -28 3 -40 25 -29
54 7 18 15 18 38 -3z m-3413 -37 c-7 -20 -17 -36 -21 -36 -4 0 -8 -8 -9 -17 0
-10 -3 -13 -5 -6 -5 12 36 107 43 99 3 -2 -1 -21 -8 -40z m2274 31 c8 -20 -9
-41 -27 -34 -19 8 -21 33 -3 40 20 9 25 8 30 -6z m785 -29 c3 -13 -3 -18 -21
-18 -29 0 -37 7 -30 27 8 19 47 12 51 -9z m160 10 c16 -16 15 -38 -2 -38 -18
0 -39 27 -31 40 8 13 18 13 33 -2z m307 -49 c13 -39 13 -325 0 -355 -10 -25
-12 -12 -18 106 -4 74 -10 168 -13 208 -6 64 -5 72 9 66 9 -3 19 -15 22 -25z
m-8721 -5 c10 -26 7 -52 -6 -56 -19 -7 -78 20 -78 35 0 35 72 53 84 21z m8836
-34 c24 -24 25 -43 5 -60 -12 -10 -21 -10 -40 -2 -39 18 -34 77 8 81 4 1 16
-8 27 -19z m170 0 c14 -26 5 -40 -25 -40 -29 0 -39 13 -30 40 8 26 41 26 55 0z
m-6590 -35 c7 -9 19 -14 26 -11 23 9 74 -43 74 -74 0 -46 -57 -56 -93 -16 -40
43 -71 43 -113 2 -39 -38 -54 -39 -54 -1 0 30 -18 42 -27 18 -4 -10 -18 -33
-31 -51 -25 -33 -46 -38 -48 -11 -1 8 -2 21 -3 29 -3 36 -22 -13 -36 -95 -26
-146 -31 -168 -49 -200 -21 -40 -20 -58 4 -73 22 -14 26 -52 8 -70 -10 -10
-10 -17 -1 -31 9 -15 9 -23 -1 -37 -20 -26 -48 -11 -40 21 8 30 -10 34 -28 5
-15 -24 -48 -27 -48 -4 0 8 5 25 11 36 9 17 8 28 -6 54 -17 32 -17 34 5 81 12
26 29 56 38 66 16 18 15 20 -11 42 -15 13 -27 28 -27 33 0 19 40 44 62 39 42
-11 63 36 37 84 -13 26 12 69 41 69 14 0 20 7 20 24 0 36 22 47 92 45 35 -1
73 3 83 8 24 12 75 30 91 32 6 1 17 -6 24 -14z m6000 -50 c0 -8 -4 -15 -10
-15 -5 0 -10 7 -10 15 0 8 5 15 10 15 6 0 10 -7 10 -15z m-1484 -73 c-8 -9
-19 -13 -22 -9 -10 9 16 38 28 31 6 -4 4 -13 -6 -22z m402 6 c7 -7 12 -22 12
-35 0 -18 -6 -23 -25 -23 -21 0 -25 5 -25 28 0 41 15 53 38 30z m292 -55 c0
-7 -2 -13 -4 -13 -2 0 -11 -3 -19 -6 -9 -3 -20 2 -26 15 -9 15 -7 23 6 36 16
16 17 16 30 -1 7 -10 13 -24 13 -31z m73 28 c2 -10 1 -25 -4 -32 -6 -10 -9 -4
-9 19 0 36 5 42 13 13z m-2586 -13 c-3 -8 -6 -5 -6 6 -1 11 2 17 5 13 3 -3 4
-12 1 -19z m-4840 -4 c2 -5 -3 -19 -11 -29 -21 -28 -43 -7 -26 25 11 21 31 23
37 4z m7861 -37 c4 -33 -22 -47 -45 -24 -22 21 -8 59 20 55 16 -2 23 -11 25
-31z m-2258 1 c0 -19 -2 -20 -10 -8 -13 19 -13 30 0 30 6 0 10 -10 10 -22z
m1503 -3 c11 -8 31 -11 51 -8 77 12 146 -54 124 -120 -17 -46 -94 -63 -144
-31 -19 13 -28 14 -37 5 -6 -6 -26 -11 -44 -11 -23 0 -33 -5 -33 -15 0 -19 -1
-19 -47 3 -68 31 -73 42 -61 116 12 73 11 73 113 74 37 1 67 -4 78 -13z m605
-12 c5 -10 7 -23 5 -29 -2 -6 12 -21 32 -33 35 -20 39 -20 81 -6 72 24 114 -4
114 -79 0 -25 -6 -39 -22 -50 -28 -20 -77 -20 -102 -1 -15 11 -36 13 -88 8
-57 -5 -71 -3 -88 12 -38 34 -17 107 36 131 17 7 22 13 13 13 -16 1 -29 20
-29 42 0 16 39 10 48 -8z m-2165 -50 c20 -57 35 -186 18 -163 -6 8 -11 25 -11
37 0 12 -4 25 -10 28 -5 3 -10 24 -10 45 0 21 -4 42 -10 45 -12 7 -14 55 -2
55 4 0 16 -21 25 -47z m-86 19 c6 -4 19 -30 28 -57 10 -28 30 -77 46 -110 16
-33 29 -65 29 -72 0 -6 14 -37 31 -67 22 -41 26 -56 16 -56 -31 0 -85 73 -132
180 -11 25 -35 72 -53 105 -31 55 -32 60 -16 72 20 15 34 16 51 5z m2985 -95
c14 -21 9 -65 -8 -71 -25 -10 -72 -7 -80 5 -4 7 -13 -2 -21 -20 -13 -25 -22
-31 -47 -31 -39 1 -63 18 -72 54 -4 19 -1 33 12 47 15 17 26 19 68 14 38 -5
56 -2 71 9 21 17 64 13 77 -7z m-1097 -11 c20 -15 15 -46 -8 -46 -21 0 -38 25
-31 44 7 20 15 20 39 2z m221 -11 c20 -31 10 -65 -20 -65 -12 0 -27 5 -34 12
-13 13 -16 60 -5 71 14 15 43 6 59 -18z m1324 15 c52 -28 44 -90 -10 -90 -20
0 -35 8 -46 25 -15 23 -15 27 0 50 18 28 28 30 56 15z m-7440 -90 c0 -5 -4
-10 -10 -10 -5 0 -10 5 -10 10 0 6 5 10 10 10 6 0 10 -4 10 -10z m3460 -56 c0
-7 7 -14 15 -18 17 -6 21 -36 5 -36 -5 0 -10 6 -10 13 0 8 -11 24 -25 37 -14
13 -25 33 -25 44 0 20 2 20 20 -4 11 -14 20 -30 20 -36z m1694 13 c7 -35 -3
-51 -30 -45 -23 4 -40 54 -25 72 19 22 48 8 55 -27z m-1004 8 c0 -8 5 -15 10
-15 6 0 10 -10 9 -22 l0 -23 -9 21 c-5 12 -13 25 -19 29 -14 8 -14 25 -1 25 6
0 10 -7 10 -15z m1170 -10 c11 -13 10 -14 -4 -9 -9 3 -16 10 -16 15 0 13 6 11
20 -6z m1782 -37 c-12 -12 -35 -1 -27 12 3 5 13 6 21 3 10 -4 12 -9 6 -15z
m-3575 -10 c-3 -8 -6 -5 -6 6 -1 11 2 17 5 13 3 -3 4 -12 1 -19z m2218 -13 c0
-10 -6 -20 -12 -22 -8 -3 -13 5 -13 22 0 17 5 25 13 23 6 -3 12 -13 12 -23z
m1167 3 c-12 -12 -35 -1 -27 12 3 5 13 6 21 3 10 -4 12 -9 6 -15z m-3879 -9
c6 -9 7 -24 4 -33 -10 -24 -47 1 -47 32 0 27 26 27 43 1z m344 -12 c26 -23 22
-37 -12 -37 -27 0 -48 30 -39 54 7 17 17 14 51 -17z m-527 -28 c0 -23 -4 -30
-17 -27 -24 4 -45 48 -31 65 17 21 48 -3 48 -38z m-4740 26 c0 -8 -10 -20 -22
-26 -13 -7 -34 -25 -48 -40 -23 -27 -27 -28 -50 -16 -36 18 -35 61 2 65 14 2
32 10 38 18 17 19 80 19 80 -1z m1720 -20 c0 -32 -2 -35 -30 -35 -25 0 -30 4
-30 23 0 15 9 28 23 35 34 16 37 15 37 -23z m3725 25 c3 -5 1 -10 -4 -10 -6 0
-11 5 -11 10 0 6 2 10 4 10 3 0 8 -4 11 -10z m-39 -14 c8 -8 14 -17 14 -20 0
-11 -29 6 -34 20 -7 18 1 18 20 0z m2768 -17 c-3 -5 -10 -7 -15 -3 -5 3 -7 10
-3 15 3 5 10 7 15 3 5 -3 7 -10 3 -15z m-2584 -235 c0 -8 -4 -12 -10 -9 -5 3
-10 10 -10 16 0 5 5 9 10 9 6 0 10 -7 10 -16z m530 -29 c0 -8 -4 -15 -10 -15
-5 0 -10 7 -10 15 0 8 5 15 10 15 6 0 10 -7 10 -15z m-513 -52 c-3 -10 -5 -2
-5 17 0 19 2 27 5 18 2 -10 2 -26 0 -35z m533 17 c0 -5 -4 -10 -10 -10 -5 0
-10 5 -10 10 0 6 5 10 10 10 6 0 10 -4 10 -10z m-513 -92 c-2 -13 -4 -5 -4 17
-1 22 1 32 4 23 2 -10 2 -28 0 -40z m550 -30 c-2 -13 -4 -5 -4 17 -1 22 1 32
4 23 2 -10 2 -28 0 -40z m-380 -30 c-3 -7 -5 -2 -5 12 0 14 2 19 5 13 2 -7 2
-19 0 -25z m433 -57 c0 -14 -5 -18 -20 -14 -19 5 -20 6 -3 19 23 17 23 17 23
-5z m-430 -180 c0 -5 -9 -7 -20 -4 -11 3 -20 7 -20 9 0 2 9 4 20 4 11 0 20 -4
20 -9z m570 -17 c0 -8 -5 -12 -10 -9 -6 4 -8 11 -5 16 9 14 15 11 15 -7z m-40
-18 c0 -14 -4 -27 -9 -30 -10 -6 -23 33 -15 46 10 16 24 7 24 -16z m65 -25 c3
-5 1 -12 -5 -16 -5 -3 -10 1 -10 9 0 18 6 21 15 7z m-445 -298 c0 -33 -50 -68
-64 -45 -6 10 40 62 54 62 6 0 10 -8 10 -17z m-340 -62 c0 -5 -7 -14 -15 -21
-12 -10 -15 -10 -15 2 0 8 3 18 7 21 9 10 23 9 23 -2z m255 -33 c-2 -24 -8
-43 -14 -42 -6 1 -18 2 -26 3 -24 2 -17 33 13 58 15 12 28 22 29 23 1 0 0 -19
-2 -42z m75 12 c0 -5 -8 -10 -17 -10 -15 0 -16 2 -3 10 19 12 20 12 20 0z
m436 -15 c-8 -8 -17 -15 -20 -15 -3 0 -3 7 0 15 4 8 13 15 21 15 12 0 12 -2
-1 -15z m-172 -28 c-8 -21 -23 -22 -31 -1 -7 18 17 38 30 25 4 -4 5 -15 1 -24z
m-205 -61 c-12 -13 -34 8 -25 23 5 8 11 7 21 -2 8 -7 10 -16 4 -21z m58 2 c-3
-7 -5 -2 -5 12 0 14 2 19 5 13 2 -7 2 -19 0 -25z m223 2 c-23 -19 -46 -30 -67
-30 -18 0 -33 -5 -33 -12 0 -6 -3 -9 -6 -6 -3 4 0 16 6 28 9 17 18 21 43 17
21 -3 37 2 51 14 11 11 25 19 30 19 6 0 -5 -14 -24 -30z m220 -10 c14 -26 5
-55 -32 -103 -33 -41 -48 -40 -48 3 0 27 -17 46 -66 76 -16 10 -17 13 -5 28
10 12 30 16 77 16 53 0 65 -3 74 -20z m80 -46 c0 -14 -47 -84 -71 -105 -11 -9
-19 -22 -19 -30 0 -25 -53 -89 -128 -153 -78 -68 -106 -81 -241 -106 -59 -11
-66 -10 -78 6 -7 10 -12 25 -12 33 1 13 2 13 6 -1 5 -18 40 -34 51 -23 4 4 0
11 -9 16 -13 7 -15 19 -12 56 5 46 45 123 65 123 5 0 22 -10 38 -21 25 -19 38
-21 97 -17 75 5 131 29 188 79 35 31 85 123 85 158 0 10 3 21 7 25 8 8 33 -22
33 -40z m-470 -19 c20 -25 4 -29 -21 -6 -18 16 -19 21 -7 21 9 0 21 -7 28 -15z
m-305 -16 c24 -11 49 -27 56 -35 6 -8 21 -14 33 -14 41 0 86 -38 111 -93 12
-28 19 -53 14 -55 -4 -2 -18 -19 -30 -38 -15 -26 -19 -42 -13 -62 7 -27 7 -45
-2 -71 -3 -9 -11 -5 -26 15 -12 16 -25 31 -28 34 -4 3 -25 30 -47 61 -48 64
-89 101 -147 131 -63 32 -106 68 -106 89 0 26 57 59 103 59 20 0 57 -9 82 -21z
m559 -5 c33 -32 9 -75 -41 -74 -17 1 -17 1 0 14 19 14 14 46 -7 46 -7 0 -23
-12 -37 -26 l-24 -26 33 -27 c37 -32 33 -41 -19 -41 -76 0 -108 33 -88 88 20
53 145 84 183 46z m146 -257 c0 -7 -12 -26 -27 -43 -16 -17 -38 -44 -49 -60
-12 -16 -24 -26 -28 -23 -3 3 12 30 34 60 61 84 70 92 70 66z m-327 -124 c-7
-2 -19 -2 -25 0 -7 3 -2 5 12 5 14 0 19 -2 13 -5z m-57 -14 c5 -8 29 -10 78
-5 138 13 130 15 133 -20 3 -37 -17 -54 -86 -75 -34 -10 -52 -10 -94 1 -71 18
-97 36 -97 69 0 15 3 31 7 34 10 11 51 8 59 -4z m40 -145 c30 -3 68 -4 84 0
39 7 90 -3 90 -19 0 -14 -62 -57 -115 -79 -48 -20 -124 -20 -153 -1 -19 14
-21 24 -20 88 l2 72 29 -27 c20 -19 43 -29 83 -34z m377 -33 c-29 -47 -120
-138 -189 -191 -92 -70 -208 -93 -276 -53 -30 18 -33 23 -33 69 0 44 2 49 20
45 109 -22 365 36 365 83 0 4 6 6 14 3 14 -6 31 11 89 88 21 29 22 29 25 7 2
-13 -5 -36 -15 -51z m-528 -211 c3 -5 1 -10 -4 -10 -6 0 -11 5 -11 10 0 6 2
10 4 10 3 0 8 -4 11 -10z m144 -120 c17 0 53 5 81 11 70 15 76 11 72 -49 -3
-41 -10 -57 -34 -81 -34 -33 -121 -81 -147 -81 -34 0 -101 40 -101 60 0 11 -6
20 -12 21 -10 0 -10 2 0 6 7 3 12 25 12 59 0 30 5 62 11 73 11 17 13 17 50 -1
21 -10 52 -18 68 -18z"/>
<path d="M4766 9175 c-3 -8 -12 -12 -20 -9 -25 10 -27 -13 -1 -30 30 -20 49
-20 64 -2 9 11 9 19 -1 35 -15 25 -33 27 -42 6z"/>
<path d="M4575 9148 c0 -31 4 -34 35 -29 14 2 13 34 -2 49 -21 21 -34 13 -33
-20z"/>
<path d="M5610 9100 c0 -11 4 -20 9 -20 11 0 22 26 14 34 -12 12 -23 5 -23
-14z"/>
<path d="M5486 9024 c-3 -7 3 -23 13 -35 24 -30 51 -19 51 19 0 25 -4 29 -30
29 -16 0 -31 -6 -34 -13z"/>
<path d="M5180 8973 c-14 -3 -31 -10 -38 -16 -8 -6 -65 -11 -140 -12 -75 0
-142 -6 -164 -13 -26 -9 -47 -10 -70 -4 -20 5 -43 6 -58 0 -15 -6 -33 -5 -46
1 -15 6 -29 6 -46 -3 -14 -7 -32 -9 -43 -5 -57 22 -89 9 -145 -57 -14 -16 -39
-35 -57 -43 -17 -7 -38 -20 -47 -30 -14 -15 -13 -19 14 -45 29 -27 40 -56 20
-56 -5 0 -14 8 -19 18 -9 14 -10 13 -11 -10 0 -21 6 -29 25 -34 56 -14 77 54
25 81 -35 18 -38 31 -10 40 11 3 20 11 20 16 0 5 10 9 23 9 13 0 32 7 43 15
10 8 29 15 42 15 12 0 33 7 47 16 13 8 29 14 37 13 7 -1 33 3 57 10 33 10 54
10 91 1 31 -8 54 -8 66 -2 66 34 75 36 117 25 29 -8 46 -8 54 -1 7 5 32 8 55
5 45 -4 128 12 128 25 0 15 26 8 43 -12 18 -21 37 -19 37 4 0 10 15 13 50 13
35 -1 56 4 67 16 16 16 16 17 -7 18 -14 0 -50 2 -80 3 -30 2 -66 1 -80 -1z"/>
<path d="M5400 8925 c-10 -12 -9 -20 4 -41 10 -14 25 -24 34 -22 24 5 28 47 5
63 -23 18 -28 18 -43 0z"/>
<path d="M5250 8920 c0 -5 5 -10 10 -10 6 0 10 5 10 10 0 6 -4 10 -10 10 -5 0
-10 -4 -10 -10z"/>
<path d="M5288 8874 c-3 -3 -3 -17 1 -32 10 -36 51 -44 51 -10 0 35 -33 62
-52 42z"/>
<path d="M5140 8821 c0 -21 6 -32 21 -36 32 -11 45 9 25 39 -23 36 -46 34 -46
-3z"/>
<path d="M4935 8821 c-3 -6 -15 -11 -26 -11 -24 0 -24 -11 2 -44 23 -29 66
-35 76 -10 14 38 -32 96 -52 65z"/>
<path d="M4730 8788 c1 -20 26 -48 43 -48 18 0 29 24 21 45 -7 18 -64 21 -64
3z"/>
<path d="M4548 8766 c-23 -32 -4 -59 37 -54 36 4 45 31 19 59 -22 25 -35 24
-56 -5z"/>
<path d="M3960 8717 c0 -14 -6 -27 -12 -30 -20 -7 -2 -19 27 -19 35 0 40 7 29
40 -13 36 -44 42 -44 9z"/>
<path d="M4150 8711 c0 -12 -5 -21 -11 -21 -20 0 -5 -45 17 -48 27 -4 53 42
37 66 -16 26 -43 27 -43 3z"/>
<path d="M5180 8630 c0 -5 5 -10 10 -10 6 0 10 5 10 10 0 6 -4 10 -10 10 -5 0
-10 -4 -10 -10z"/>
<path d="M3862 8140 c0 -14 2 -19 5 -12 2 6 2 18 0 25 -3 6 -5 1 -5 -13z"/>
<path d="M6041 7724 c0 -11 3 -14 6 -6 3 7 2 16 -1 19 -3 4 -6 -2 -5 -13z"/>
<path d="M6258 7669 c-40 -23 -12 -70 43 -72 42 -3 58 34 29 63 -22 22 -46 25
-72 9z"/>
<path d="M5962 7611 c2 -7 7 -12 11 -12 12 1 9 15 -3 20 -7 2 -11 -2 -8 -8z"/>
<path d="M5910 7480 c6 -11 15 -18 20 -15 13 8 0 35 -16 35 -12 0 -12 -4 -4
-20z"/>
<path d="M5870 7361 c0 -12 5 -21 10 -21 6 0 10 6 10 14 0 8 -4 18 -10 21 -5
3 -10 -3 -10 -14z"/>
<path d="M5810 7196 c0 -18 17 -29 30 -21 8 5 7 11 -1 21 -15 18 -29 18 -29 0z"/>
<path d="M6505 7052 c0 -167 0 -167 147 -175 62 -4 123 -10 135 -13 39 -11 40
34 3 95 l-32 51 -81 0 c-45 0 -99 5 -119 10 -35 10 -37 12 -33 48 1 20 3 45 4
55 1 15 7 18 34 13 17 -3 25 -3 17 1 -8 3 -21 12 -28 20 -7 7 -21 13 -30 13
-15 0 -17 -14 -17 -118z"/>
<path d="M6557 7103 c-10 -10 -8 -51 2 -57 13 -9 41 4 41 19 0 16 -35 47 -43
38z"/>
<path d="M6670 7055 c0 -18 5 -25 20 -25 21 0 24 8 14 34 -10 25 -34 19 -34
-9z"/>
<path d="M5765 7060 c3 -5 10 -10 16 -10 5 0 9 5 9 10 0 6 -7 10 -16 10 -8 0
-12 -4 -9 -10z"/>
<path d="M5725 6938 c-4 -9 -2 -25 3 -35 10 -17 11 -17 17 -1 4 9 2 25 -3 35
-10 17 -11 17 -17 1z"/>
<path d="M5277 6923 c-14 -13 -7 -84 8 -89 24 -10 65 23 65 51 0 32 -52 60
-73 38z"/>
<path d="M5680 6800 c0 -5 5 -10 10 -10 6 0 10 5 10 10 0 6 -4 10 -10 10 -5 0
-10 -4 -10 -10z"/>
<path d="M5650 6670 c0 -14 7 -20 21 -20 15 0 19 4 15 16 -3 9 -6 18 -6 20 0
2 -7 4 -15 4 -8 0 -15 -9 -15 -20z"/>
<path d="M5524 6654 c-8 -33 6 -59 32 -59 15 0 19 7 19 40 0 34 -4 40 -22 43
-17 3 -24 -3 -29 -24z"/>
<path d="M6700 6611 c0 -12 2 -21 4 -21 2 0 12 -3 21 -6 13 -5 16 -2 13 17 -4
31 -38 39 -38 10z"/>
<path d="M5300 6596 c0 -9 7 -16 16 -16 9 0 14 5 12 12 -6 18 -28 21 -28 4z"/>
<path d="M4930 6525 c-18 -21 -5 -47 22 -43 26 3 37 36 16 49 -18 12 -24 11
-38 -6z"/>
<path d="M3422 7369 c1 -13 8 -23 13 -21 15 3 12 35 -3 40 -9 3 -13 -3 -10
-19z"/>
<path d="M5113 7344 c-3 -8 -1 -20 4 -25 12 -12 48 14 39 29 -10 17 -36 15
-43 -4z"/>
<path d="M3947 7123 c-25 -46 -5 -100 28 -73 21 18 19 57 -4 70 -11 5 -22 7
-24 3z"/>
<path d="M3406 6803 c-3 -4 -6 -17 -6 -30 0 -16 6 -23 20 -23 14 0 20 7 20 24
0 23 -22 41 -34 29z"/>
<path d="M3640 6768 c0 -29 2 -31 15 -17 9 9 13 23 9 32 -10 28 -24 19 -24
-15z"/>
<path d="M4723 7003 c-18 -7 7 -43 29 -43 10 0 18 2 18 5 0 13 -36 42 -47 38z"/>
<path d="M4597 6810 c3 -11 9 -20 13 -20 5 0 16 -7 24 -16 16 -15 36 -12 36 6
0 5 -18 19 -39 29 -39 20 -39 20 -34 1z"/>
<path d="M8234 6855 c-7 -18 2 -45 15 -45 11 0 19 30 14 48 -6 17 -22 15 -29
-3z"/>
<path d="M8524 6836 c-9 -24 4 -48 23 -44 12 2 18 12 18 28 0 29 -32 41 -41
16z"/>
<path d="M7760 6695 c0 -8 5 -15 10 -15 6 0 10 7 10 15 0 8 -4 15 -10 15 -5 0
-10 -7 -10 -15z"/>
<path d="M7982 6688 c2 -13 10 -23 18 -23 8 0 16 10 18 23 3 17 -2 22 -18 22
-16 0 -21 -5 -18 -22z"/>
<path d="M8112 6698 c-8 -8 -9 -15 -1 -25 17 -20 29 -15 29 12 0 27 -9 32 -28
13z"/>
<path d="M8500 6666 c0 -21 20 -30 33 -17 9 9 8 14 -3 21 -21 14 -30 12 -30
-4z"/>
<path d="M8405 6529 c-10 -15 3 -25 16 -12 7 7 7 13 1 17 -6 3 -14 1 -17 -5z"/>
<path d="M8536 6515 c-12 -13 -14 -21 -5 -36 13 -25 33 -20 37 10 5 33 -12 46
-32 26z"/>
<path d="M8145 6499 c-4 -6 -3 -15 3 -21 6 -6 11 -4 15 6 7 18 -9 31 -18 15z"/>
<path d="M8392 6363 c-6 -2 -10 -9 -7 -13 7 -11 35 -2 35 11 0 10 -8 10 -28 2z"/>
<path d="M8175 6350 c3 -5 8 -10 11 -10 2 0 4 5 4 10 0 6 -5 10 -11 10 -5 0
-7 -4 -4 -10z"/>
<path d="M1042 6723 c-41 -5 -38 -27 4 -30 16 -1 45 -5 64 -8 l35 -6 -28 25
c-15 14 -31 25 -35 24 -4 0 -22 -3 -40 -5z"/>
<path d="M910 6710 c0 -5 9 -10 20 -10 11 0 20 5 20 10 0 6 -9 10 -20 10 -11
0 -20 -4 -20 -10z"/>
<path d="M6770 6310 c0 -25 4 -31 18 -28 11 2 17 12 17 28 0 16 -6 26 -17 28
-14 3 -18 -3 -18 -28z"/>
<path d="M6874 6316 c-10 -26 1 -51 21 -51 23 0 32 30 15 50 -16 19 -29 19
-36 1z"/>
<path d="M6644 6176 c-9 -25 0 -51 20 -54 31 -6 41 14 22 42 -18 29 -34 33
-42 12z"/>
<path d="M2714 7889 c-3 -6 -1 -16 5 -22 8 -8 11 -5 11 11 0 24 -5 28 -16 11z"/>
<path d="M2600 7880 c0 -5 5 -10 11 -10 5 0 7 5 4 10 -3 6 -8 10 -11 10 -2 0
-4 -4 -4 -10z"/>
<path d="M2595 7760 c-8 -26 3 -60 20 -60 19 0 26 26 15 55 -11 30 -26 32 -35
5z"/>
<path d="M2952 7746 c2 -15 8 -26 13 -26 15 0 12 43 -3 48 -10 3 -13 -4 -10
-22z"/>
<path d="M990 7661 c0 -5 7 -14 15 -21 13 -10 15 -9 15 9 0 12 -6 21 -15 21
-8 0 -15 -4 -15 -9z"/>
<path d="M1272 7654 c1 -9 9 -19 16 -22 9 -3 13 2 10 14 -1 9 -9 19 -16 22 -9
3 -13 -2 -10 -14z"/>
<path d="M1407 7664 c-9 -9 4 -34 18 -34 8 0 11 8 8 20 -5 20 -15 25 -26 14z"/>
<path d="M1620 7650 c0 -11 5 -20 10 -20 6 0 10 9 10 20 0 11 -4 20 -10 20 -5
0 -10 -9 -10 -20z"/>
<path d="M1822 7648 c6 -18 28 -21 28 -4 0 9 -7 16 -16 16 -9 0 -14 -5 -12
-12z"/>
<path d="M2030 7645 c0 -8 5 -15 10 -15 6 0 10 7 10 15 0 8 -4 15 -10 15 -5 0
-10 -7 -10 -15z"/>
<path d="M2150 7641 c0 -11 4 -21 9 -21 18 0 21 18 6 30 -13 10 -15 9 -15 -9z"/>
<path d="M2600 7594 c0 -32 18 -66 31 -59 10 7 12 45 3 69 -10 26 -34 19 -34
-10z"/>
<path d="M2834 7585 c-9 -22 5 -38 22 -24 18 15 18 25 -1 33 -9 3 -18 -1 -21
-9z"/>
<path d="M851 7545 l-30 -42 272 -11 c334 -15 763 -16 772 -2 3 6 22 10 41 10
55 0 96 58 56 79 -10 6 -230 9 -549 8 l-532 -1 -30 -41z"/>
<path d="M2947 7576 c-6 -16 2 -28 14 -20 12 7 11 34 0 34 -5 0 -11 -6 -14
-14z"/>
<path d="M3062 7532 c-2 -7 0 -18 7 -25 14 -14 66 3 66 22 0 19 -66 21 -73 3z"/>
<path d="M3185 7540 c-3 -5 1 -10 10 -10 9 0 13 5 10 10 -3 6 -8 10 -10 10 -2
0 -7 -4 -10 -10z"/>
<path d="M2596 7471 c-5 -7 12 -11 51 -11 66 0 77 -5 88 -38 8 -29 30 -23 29
8 -1 23 -1 23 110 16 61 -3 136 -8 166 -11 54 -6 93 6 76 22 -9 9 -41 11 -312
19 -141 4 -204 2 -208 -5z"/>
<path d="M766 7424 c-8 -22 1 -31 16 -16 9 9 9 15 1 23 -7 7 -12 5 -17 -7z"/>
<path d="M886 7433 c-12 -12 -6 -43 9 -43 8 0 15 9 15 19 0 21 -13 34 -24 24z"/>
<path d="M1272 7418 c2 -12 11 -24 21 -26 14 -3 18 1 15 20 -2 12 -11 24 -21
26 -14 3 -18 -1 -15 -20z"/>
<path d="M2907 7434 c-13 -13 -7 -44 8 -44 16 0 17 5 6 33 -3 10 -10 15 -14
11z"/>
<path d="M1130 7416 c0 -7 7 -19 15 -26 12 -10 16 -9 21 3 3 9 3 21 -1 27 -9
15 -35 12 -35 -4z"/>
<path d="M1405 7410 c-8 -24 7 -46 24 -36 15 10 14 31 -3 45 -11 10 -16 8 -21
-9z"/>
<path d="M1524 7416 c-4 -10 -2 -22 4 -28 8 -8 13 -7 18 6 4 10 2 22 -4 28 -8
8 -13 7 -18 -6z"/>
<path d="M1627 7424 c-13 -13 -7 -44 7 -44 8 0 17 4 20 9 7 11 -18 44 -27 35z"/>
<path d="M1026 7401 c-4 -5 -2 -12 3 -15 5 -4 12 -2 15 3 4 5 2 12 -3 15 -5 4
-12 2 -15 -3z"/>
<path d="M3020 7390 c0 -13 7 -20 20 -20 13 0 20 7 20 20 0 13 -7 20 -20 20
-13 0 -20 -7 -20 -20z"/>
<path d="M764 7320 c-19 -19 -5 -50 22 -50 29 0 30 10 7 39 -14 17 -21 19 -29
11z"/>
<path d="M1140 7300 c0 -20 5 -30 15 -30 21 0 30 27 15 45 -19 23 -30 18 -30
-15z"/>
<path d="M1270 7296 c0 -27 28 -43 36 -21 9 21 -3 45 -21 45 -9 0 -15 -9 -15
-24z"/>
<path d="M1766 7313 c-12 -12 -6 -43 9 -43 8 0 15 9 15 19 0 21 -13 34 -24 24z"/>
<path d="M1404 7296 c-4 -10 -2 -22 4 -28 8 -8 13 -7 18 6 4 10 2 22 -4 28 -8
8 -13 7 -18 -6z"/>
<path d="M676 7291 c-4 -7 -5 -15 -2 -18 9 -9 19 4 14 18 -4 11 -6 11 -12 0z"/>
<path d="M905 7281 c-6 -11 9 -23 19 -14 9 9 7 23 -3 23 -6 0 -12 -4 -16 -9z"/>
<path d="M1642 6577 c-15 -18 4 -59 25 -55 26 5 29 44 5 57 -15 8 -23 7 -30
-2z"/>
<path d="M1841 6564 c0 -11 3 -14 6 -6 3 7 2 16 -1 19 -3 4 -6 -2 -5 -13z"/>
<path d="M2297 6573 c-4 -3 -7 -19 -7 -35 0 -24 4 -28 30 -28 35 0 41 27 12
53 -20 19 -26 20 -35 10z"/>
<path d="M2052 6550 c0 -14 2 -19 5 -12 2 6 2 18 0 25 -3 6 -5 1 -5 -13z"/>
<path d="M3030 6520 c0 -6 7 -10 15 -10 8 0 15 2 15 4 0 2 -7 6 -15 10 -8 3
-15 1 -15 -4z"/>
<path d="M3796 6475 c-3 -8 -1 -27 4 -41 8 -20 16 -25 38 -22 50 6 38 78 -13
78 -13 0 -25 -7 -29 -15z"/>
<path d="M1880 6450 c0 -5 5 -10 10 -10 6 0 10 5 10 10 0 6 -4 10 -10 10 -5 0
-10 -4 -10 -10z"/>
<path d="M4172 6438 c-6 -6 -12 -32 -12 -56 0 -43 0 -43 32 -40 24 2 33 9 38
28 14 56 -24 102 -58 68z"/>
<path d="M3000 6370 c0 -13 7 -20 20 -20 13 0 20 7 20 20 0 13 -7 20 -20 20
-13 0 -20 -7 -20 -20z"/>
<path d="M226 6233 c-17 -17 -2 -83 19 -83 11 0 40 59 33 65 -15 12 -47 23
-52 18z"/>
<path d="M5398 6233 c7 -3 16 -2 19 1 4 3 -2 6 -13 5 -11 0 -14 -3 -6 -6z"/>
<path d="M2227 6204 c-4 -4 -7 -15 -7 -25 0 -10 -7 -22 -16 -27 -17 -9 -16
-51 1 -55 14 -3 56 65 53 87 -3 21 -20 31 -31 20z"/>
<path d="M5414 6137 c-8 -22 11 -46 26 -31 7 7 5 17 -4 30 -14 18 -15 18 -22
1z"/>
<path d="M1145 6132 c-3 -3 -5 -13 -5 -23 0 -21 -28 -39 -49 -31 -8 3 -11 0
-7 -7 11 -17 41 -13 79 9 46 27 54 55 16 56 -16 1 -31 -1 -34 -4z"/>
<path d="M4803 6084 c-3 -8 -1 -20 4 -25 14 -14 43 0 43 22 0 24 -38 26 -47 3z"/>
<path d="M109 5946 c-11 -49 -10 -58 4 -74 10 -10 17 -31 17 -46 0 -19 7 -29
26 -37 15 -5 29 -7 32 -4 3 3 -1 5 -8 5 -9 0 -11 10 -7 34 4 26 1 39 -14 52
-13 11 -19 30 -19 58 0 69 -16 76 -31 12z"/>
<path d="M3917 5929 c-24 -14 -24 -79 1 -79 24 0 42 19 42 46 0 29 -20 45 -43
33z"/>
<path d="M4117 5914 c-13 -13 -7 -55 8 -60 21 -9 47 15 43 40 -3 21 -37 34
-51 20z"/>
<path d="M1125 5810 c-3 -5 -1 -10 4 -10 6 0 11 5 11 10 0 6 -2 10 -4 10 -3 0
-8 -4 -11 -10z"/>
<path d="M67 5741 c-9 -44 -9 -51 2 -51 15 0 22 35 13 60 -8 23 -9 22 -15 -9z"/>
<path d="M4448 5740 c-4 -14 -10 -68 -13 -121 -8 -107 -1 -122 40 -95 28 18
32 41 10 50 -11 4 -15 21 -16 58 0 29 -3 71 -8 93 -6 36 -8 37 -13 15z"/>
<path d="M4140 5725 c0 -8 2 -15 4 -15 2 0 6 7 10 15 3 8 1 15 -4 15 -6 0 -10
-7 -10 -15z"/>
<path d="M4324 5685 c-8 -60 -1 -77 28 -66 18 6 24 17 26 51 3 42 -7 59 -35
60 -6 0 -15 -20 -19 -45z"/>
<path d="M1913 5705 c-14 -10 -24 -12 -28 -5 -3 5 -14 10 -24 10 -14 0 -20 -9
-23 -36 -6 -50 8 -65 55 -58 30 5 37 11 37 29 0 12 6 28 14 35 8 6 12 18 9 26
-7 18 -13 18 -40 -1z"/>
<path d="M3704 5698 c-11 -17 -5 -90 7 -103 16 -16 59 39 52 67 -11 44 -42 63
-59 36z"/>
<path d="M4122 5633 c5 -25 28 -28 28 -4 0 12 -6 21 -16 21 -9 0 -14 -7 -12
-17z"/>
<path d="M3900 5616 c0 -8 5 -18 10 -21 13 -8 42 14 34 26 -9 15 -44 10 -44
-5z"/>
<path d="M5208 5448 c-13 -3 67 -6 176 -7 110 -1 197 2 193 5 -8 9 -340 11
-369 2z"/>
<path d="M5505 5260 c9 -16 19 -30 24 -30 4 0 18 -21 31 -46 36 -69 44 -68 56
3 5 32 3 41 -10 46 -14 6 -15 3 -5 -14 8 -15 8 -24 0 -32 -8 -8 -11 -5 -11 11
0 12 -6 22 -14 22 -8 0 -18 9 -21 20 -8 26 -33 50 -51 50 -12 0 -12 -4 1 -30z"/>
<path d="M5110 5190 c0 -5 5 -10 10 -10 6 0 10 5 10 10 0 6 -4 10 -10 10 -5 0
-10 -4 -10 -10z"/>
<path d="M7525 5083 c-16 -2 -48 -8 -70 -13 -22 -5 -52 -11 -67 -15 -42 -8
-34 -31 17 -49 25 -9 66 -23 93 -32 95 -33 315 -159 369 -211 102 -100 233
-258 233 -282 0 -6 11 -22 25 -37 14 -15 25 -35 25 -44 0 -10 8 -28 19 -41 10
-13 22 -35 26 -48 l7 -24 20 32 c18 28 22 30 37 17 9 -8 27 -12 42 -9 15 3 30
0 33 -6 4 -5 13 -8 22 -4 8 3 21 -2 28 -12 9 -12 20 -16 35 -12 17 4 24 0 32
-20 8 -21 12 -23 24 -13 18 15 17 15 39 -27 9 -18 21 -33 26 -33 6 0 6 -10 -1
-27 -8 -22 -6 -32 9 -52 l19 -25 -34 -23 c-38 -26 -70 -29 -122 -11 -47 16
-46 15 -32 32 9 11 6 15 -16 19 -15 3 -35 1 -44 -4 -11 -5 -30 -2 -55 10 -34
17 -40 17 -47 4 -13 -21 17 -50 61 -58 20 -4 62 -15 92 -26 30 -10 69 -19 87
-19 17 0 34 -4 37 -9 7 -11 68 -24 131 -27 28 -1 87 -9 133 -16 46 -8 85 -11
88 -7 2 4 2 25 0 46 -2 21 -7 72 -11 113 -4 41 -13 99 -21 128 -54 202 -65
232 -116 329 -58 110 -116 181 -216 260 -115 92 -149 112 -267 161 -165 67
-310 92 -525 90 -74 -1 -148 -3 -165 -5z m1065 -892 c0 -27 -17 -35 -23 -11
-5 19 0 30 15 30 4 0 8 -9 8 -19z m157 -28 c-3 -10 -5 -4 -5 12 0 17 2 24 5
18 2 -7 2 -21 0 -30z m-163 -99 c3 -8 2 -12 -4 -9 -6 3 -10 10 -10 16 0 14 7
11 14 -7z m146 -44 c0 -5 -9 -10 -19 -10 -11 0 -23 5 -26 10 -4 6 5 10 19 10
14 0 26 -4 26 -10z"/>
<path d="M4380 5065 c-102 -18 -180 -39 -237 -65 l-48 -22 35 -15 c103 -45
255 -120 274 -137 21 -19 21 -19 -27 -14 -26 3 -49 2 -52 -2 -3 -4 -22 -10
-42 -13 -21 -3 -48 -8 -60 -12 -17 -5 -23 -3 -23 8 0 23 -37 9 -75 -29 -18
-18 -48 -40 -66 -49 -18 -10 -51 -37 -72 -61 -22 -24 -45 -44 -51 -44 -15 0
-38 -38 -27 -45 5 -3 23 6 39 20 37 31 57 32 77 1 28 -43 19 -124 -13 -125
-108 -5 -153 -11 -184 -25 -52 -22 -101 -22 -96 2 2 9 19 22 38 28 37 12 53
34 25 34 -14 0 -16 6 -11 32 3 18 9 57 13 87 3 31 15 73 25 95 24 48 19 71
-27 118 -39 40 -39 40 -206 59 -93 10 -109 10 -137 -5 -17 -9 -50 -16 -74 -16
-39 0 -47 -5 -94 -55 -28 -31 -64 -60 -80 -64 -29 -8 -29 -8 11 -15 55 -8 194
-42 227 -55 49 -19 87 -129 73 -211 -6 -34 -9 -39 -21 -29 -9 8 -14 33 -14 79
0 83 -5 97 -39 114 -38 20 -87 26 -193 27 -111 0 -127 7 -111 42 14 30 9 58
-20 112 -55 107 -130 163 -241 183 -38 7 -87 19 -110 27 -52 18 -74 19 -109 1
-23 -13 -35 -13 -80 -1 -48 12 -133 12 -145 0 -3 -3 17 -5 45 -5 31 0 55 -5
62 -14 9 -10 37 -14 109 -13 67 0 109 -5 137 -16 22 -8 61 -18 86 -22 55 -7
91 -30 70 -44 -7 -5 -11 -13 -8 -18 3 -5 -7 -7 -25 -5 -27 4 -29 2 -23 -17 4
-14 2 -21 -7 -21 -8 0 -20 -16 -28 -35 -8 -21 -21 -35 -34 -37 -41 -6 -58
-107 -36 -208 10 -49 10 -55 -6 -67 -28 -20 -39 -11 -44 39 -11 93 -60 104
-98 23 -13 -27 -29 -53 -34 -56 -5 -3 -2 -9 7 -13 21 -8 41 7 58 43 7 14 20
27 29 29 14 3 17 -6 20 -45 l3 -48 44 -3 c33 -3 44 -8 48 -23 4 -15 9 -17 19
-8 20 17 34 1 34 -39 0 -21 8 -49 17 -62 25 -35 25 -166 1 -184 -10 -7 -18
-23 -18 -35 0 -12 -8 -34 -17 -48 -35 -53 -147 -164 -172 -170 -14 -3 -31 -10
-37 -14 -6 -5 -61 -15 -124 -22 -87 -11 -116 -18 -126 -32 -10 -14 -13 -55
-11 -161 l2 -144 -30 -30 c-28 -28 -37 -30 -102 -32 -52 -1 -80 -6 -100 -19
l-28 -19 30 -1 c208 -5 211 -3 434 238 51 55 110 109 130 119 20 11 42 27 49
37 7 9 18 14 24 11 6 -4 13 -1 17 5 5 8 16 8 38 0 22 -7 37 -7 51 0 19 10 20
8 19 -52 -2 -59 0 -65 37 -110 42 -51 51 -55 82 -33 21 15 137 217 168 292 10
21 45 90 78 152 57 105 63 112 72 90 6 -14 10 -171 11 -413 0 -446 1 -441 -68
-431 -116 17 -164 18 -207 3 -54 -18 -71 -40 -50 -62 12 -11 48 -15 175 -15
88 -1 169 2 180 6 91 32 123 61 188 167 18 30 18 31 -6 86 -14 31 -28 69 -32
85 -9 40 -25 16 -25 -38 0 -75 -10 -29 -15 70 -3 54 -10 142 -15 194 -15 130
-9 492 8 498 6 2 13 13 14 25 3 40 15 -126 17 -228 l2 -100 23 67 c13 36 33
80 45 96 23 34 27 58 9 64 -9 3 -9 38 2 154 8 82 15 183 15 224 0 66 -3 80
-25 107 -32 40 -104 63 -197 63 -79 0 -90 6 -67 31 27 30 76 34 129 10 26 -12
56 -21 67 -21 30 0 93 -36 123 -71 30 -36 30 -40 1 -334 -7 -71 -11 -132 -9
-134 1 -2 11 2 20 10 10 8 43 25 73 38 30 13 70 29 88 37 59 25 104 26 207 5
163 -34 249 -74 271 -127 8 -19 17 -77 21 -129 6 -90 5 -95 -13 -95 -11 0 -24
4 -30 9 -5 5 -42 21 -83 35 -86 31 -116 29 -209 -16 -118 -58 -169 -151 -160
-297 6 -91 32 -151 91 -212 91 -93 207 -114 318 -58 33 16 68 29 77 27 34 -6
34 -147 0 -261 -14 -45 -54 -78 -128 -102 -30 -10 -59 -20 -65 -24 -5 -3 -27
-6 -47 -6 -21 0 -37 -4 -37 -10 0 -12 117 -8 174 7 22 5 74 33 114 61 52 35
84 50 103 49 34 -3 54 28 38 58 -6 11 -7 20 -1 20 18 0 20 31 6 73 -46 128
-59 356 -27 462 21 67 62 147 96 185 13 14 32 39 43 55 12 17 49 47 83 67 84
49 177 71 289 67 81 -4 93 -7 133 -35 l43 -32 0 -88 0 -89 -50 0 c-109 -1
-182 -32 -252 -108 -49 -53 -73 -126 -73 -225 0 -128 44 -200 155 -253 67 -32
139 -38 239 -18 31 7 58 10 60 8 2 -2 6 -22 10 -44 3 -22 5 -41 6 -42 1 -7 42
-2 58 6 9 5 24 12 34 15 15 4 15 9 2 46 -32 92 -44 289 -23 380 17 78 70 203
102 244 17 21 52 59 79 83 50 48 61 58 161 143 78 67 92 86 77 105 -8 10 -8
29 -2 67 6 29 8 77 5 107 -4 37 -2 55 7 61 7 4 9 13 5 20 -6 10 -11 8 -22 -6
-13 -18 -14 -18 -19 3 -7 25 -29 37 -50 25 -11 -6 -11 -12 1 -35 13 -26 13
-28 -18 -43 -18 -9 -41 -24 -52 -34 -18 -17 -43 -24 -71 -21 -12 1 -26 104
-17 127 3 9 20 14 47 14 39 1 40 1 21 16 -12 9 -30 12 -44 9 -13 -3 -33 1 -47
10 -27 18 -31 35 -9 35 9 0 20 11 26 24 13 28 1 50 -74 137 -115 135 -294 218
-517 240 -177 18 -413 20 -500 4z m-1386 -167 c14 -15 28 -48 20 -48 -14 0
-54 34 -54 46 0 17 17 18 34 2z m1562 -88 c27 -11 133 -108 134 -122 0 -5 -18
-8 -40 -8 -22 0 -57 -7 -77 -15 -20 -9 -42 -14 -48 -11 -18 6 -55 92 -55 125
0 40 32 51 86 31z m-131 -50 c3 -5 -1 -10 -9 -10 -20 0 -20 -9 -1 -34 13 -17
12 -22 -9 -47 -13 -16 -26 -34 -28 -40 -3 -9 -13 -8 -41 2 -20 7 -37 16 -37
20 0 4 -13 10 -29 14 -16 3 -35 13 -42 21 -12 15 -84 20 -93 6 -3 -5 -3 -17 0
-28 4 -16 12 -19 33 -16 17 2 32 -2 40 -12 8 -9 24 -16 36 -16 12 0 28 -6 34
-14 13 -16 8 -21 -61 -56 -26 -13 -49 -33 -52 -43 -3 -13 -12 -18 -28 -15 -18
2 -26 14 -37 48 -7 25 -19 58 -27 73 -20 42 -18 55 18 85 37 32 110 45 148 27
21 -10 30 -9 55 6 17 11 44 19 62 19 17 0 35 5 38 10 3 6 10 10 15 10 5 0 12
-4 15 -10z m355 -58 c0 -5 19 -17 43 -28 23 -10 61 -34 85 -52 52 -42 81 -43
135 -5 31 23 57 32 100 35 56 5 77 -4 35 -15 -18 -5 -19 -8 -9 -21 20 -24 8
-41 -39 -56 -36 -12 -43 -12 -51 1 -5 8 -7 20 -4 27 3 7 0 10 -5 7 -6 -3 -10
-12 -10 -19 0 -7 -11 -19 -25 -26 -46 -24 -28 -33 54 -27 90 6 91 5 91 -67 l0
-42 -56 -17 c-37 -11 -61 -14 -72 -8 -16 9 -52 71 -66 115 -6 17 -8 17 -39 -7
-57 -43 -66 -40 -97 38 -15 39 -44 89 -64 112 -39 44 -45 63 -21 63 8 0 15 -4
15 -8z m-320 -42 c0 -11 -4 -20 -10 -20 -5 0 -10 9 -10 20 0 11 5 20 10 20 6
0 10 -9 10 -20z m870 -16 c23 -9 38 -20 33 -24 -4 -5 -36 -11 -70 -15 -56 -6
-62 -5 -68 14 -3 11 -3 25 0 31 9 15 59 12 105 -6z m-600 -38 l34 -13 -31 -6
c-20 -4 -42 -21 -63 -47 -18 -23 -43 -45 -55 -50 -17 -7 -21 -14 -17 -38 4
-32 -22 -52 -42 -32 -15 15 -21 159 -7 173 6 6 35 14 64 18 75 9 78 9 117 -5z
m-1550 -20 c54 -4 58 -5 63 -20 4 -10 -10 -13 -63 -14 -81 0 -105 -11 -113
-51 -4 -17 -14 -32 -27 -36 -13 -4 -20 -15 -20 -30 0 -43 -9 -56 -31 -42 -22
14 -24 30 -5 46 8 6 17 31 20 54 8 49 11 55 51 86 22 17 37 21 60 16 16 -3 46
-7 65 -9z m2258 -45 c3 -25 -12 -88 -22 -92 -23 -9 -166 -24 -177 -18 -18 9
-33 78 -22 106 10 26 21 31 62 26 20 -2 56 0 81 6 66 13 75 10 78 -28z m-2123
9 c3 -5 -1 -10 -9 -10 -9 0 -16 5 -16 10 0 6 4 10 9 10 6 0 13 -4 16 -10z
m1153 -24 c6 -29 -28 -89 -62 -111 -16 -11 -33 -31 -36 -45 -7 -31 -38 -37
-79 -16 -16 9 -43 16 -58 16 -38 1 -75 33 -71 62 3 24 49 55 101 69 18 5 64
17 102 28 81 23 98 23 103 -3z m486 -109 c19 -26 19 -30 6 -54 -19 -32 -157
-113 -194 -113 -21 0 -106 -50 -106 -62 0 -5 -7 -8 -15 -8 -31 0 -13 40 37 84
29 25 58 46 64 46 16 0 124 111 124 128 0 25 61 9 84 -21z m-1249 -26 c3 -5 1
-12 -5 -16 -5 -3 -10 1 -10 9 0 18 6 21 15 7z m1663 -30 c22 -2 9 -33 -20 -50
-15 -9 -52 -33 -81 -54 -58 -40 -87 -41 -87 -2 0 29 17 75 35 95 12 13 73 18
153 11z m-209 -20 c12 -8 11 -17 -6 -58 -21 -53 -39 -61 -84 -43 -34 15 -52
41 -42 65 12 33 99 56 132 36z"/>
<path d="M4327 4672 c-2 -4 4 -15 15 -24 10 -10 18 -16 18 -14 0 2 3 11 6 19
5 14 -32 32 -39 19z"/>
<path d="M5080 4625 c0 -8 5 -15 10 -15 6 0 10 7 10 15 0 8 -4 15 -10 15 -5 0
-10 -7 -10 -15z"/>
<path d="M2398 5012 c-10 -2 -18 -8 -18 -13 0 -13 27 -11 35 2 9 13 4 16 -17
11z"/>
<path d="M2283 4970 c-36 -16 -41 -17 -36 -3 6 14 -5 15 -98 9 -200 -14 -265
-23 -334 -45 -83 -27 -115 -42 -115 -52 0 -9 51 -25 107 -34 24 -4 46 -13 50
-20 5 -7 23 -20 41 -29 36 -19 40 -17 92 34 38 37 83 70 89 65 2 -3 -2 -11
-11 -18 -21 -17 -58 -81 -58 -100 0 -12 14 -16 60 -19 33 -1 60 0 60 5 0 4
-20 7 -45 7 -34 0 -45 4 -45 15 0 30 97 105 135 105 33 0 118 33 149 58 16 12
33 22 37 22 5 0 9 5 9 10 0 15 -40 11 -87 -10z"/>
<path d="M5915 4860 c-3 -5 -1 -10 4 -10 6 0 11 5 11 10 0 6 -2 10 -4 10 -3 0
-8 -4 -11 -10z"/>
<path d="M5630 4775 c0 -16 27 -32 37 -22 5 6 -21 37 -31 37 -3 0 -6 -7 -6
-15z"/>
<path d="M2156 4732 c32 -28 72 -42 127 -42 62 0 66 -3 101 -57 14 -24 33 -43
42 -43 9 0 29 14 44 30 33 36 53 38 74 8 l16 -22 0 25 c0 26 -36 69 -58 69 -6
0 -24 -16 -39 -35 -15 -19 -33 -35 -39 -35 -13 0 -54 43 -54 57 0 5 -9 18 -20
28 -19 17 -26 18 -67 7 -40 -11 -50 -10 -87 8 -52 25 -66 26 -40 2z"/>
<path d="M5687 4726 c-5 -11 0 -16 13 -16 10 0 24 -8 30 -17 9 -15 10 -13 8
12 -2 22 -9 31 -24 33 -12 2 -24 -4 -27 -12z"/>
<path d="M5680 4670 c0 -5 5 -10 10 -10 6 0 10 5 10 10 0 6 -4 10 -10 10 -5 0
-10 -4 -10 -10z"/>
<path d="M5885 4634 c9 -9 19 -13 23 -10 3 4 0 11 -8 16 -24 15 -33 11 -15 -6z"/>
<path d="M7538 4569 c-56 -29 -73 -62 -73 -137 l0 -64 -37 5 c-42 6 -56 -6
-38 -28 11 -13 6 -15 -29 -15 -48 0 -52 6 -13 21 24 9 25 11 9 20 -21 12 -50
4 -98 -28 -39 -26 -54 -52 -65 -118 -4 -22 -18 -54 -31 -71 -34 -45 -33 -137
2 -188 14 -20 25 -46 25 -57 0 -14 13 -25 46 -39 83 -36 170 -50 304 -50 127
0 130 0 146 -25 19 -30 16 -157 -4 -177 -9 -9 -62 -15 -160 -19 -180 -7 -212
-19 -212 -77 0 -20 8 -47 18 -59 20 -27 114 -53 188 -53 37 0 59 -6 78 -21 24
-19 26 -27 26 -91 0 -126 -28 -144 -202 -131 -104 7 -118 -2 -118 -81 0 -94
32 -114 210 -132 111 -11 142 -36 160 -126 13 -65 4 -69 -155 -69 -153 1 -370
15 -397 26 -26 10 -22 -10 6 -32 40 -32 93 -42 310 -57 176 -12 216 -12 260
-1 107 28 130 39 153 75 12 19 27 40 33 47 5 7 21 32 35 57 23 41 25 55 25
158 -1 62 -5 147 -10 188 -7 67 -11 78 -41 102 l-32 27 17 52 c9 29 21 83 27
120 12 80 3 107 -42 116 -16 3 -29 11 -29 18 0 7 25 34 55 60 31 26 62 59 69
73 23 47 46 190 62 388 6 75 5 82 -17 106 -27 30 -168 108 -194 108 -10 0 -33
16 -51 36 -43 45 -46 89 -9 106 14 6 24 16 22 22 -6 17 -49 36 -85 36 -25 0
-35 -5 -42 -25 -5 -13 -23 -31 -40 -40 -16 -8 -30 -20 -30 -26 0 -6 -5 -7 -10
-4 -14 9 19 63 43 71 16 5 17 8 6 15 -20 12 -29 11 -71 -12z m-28 -296 c0 -5
-21 -17 -48 -28 -54 -23 -154 -27 -173 -7 -10 10 -2 12 43 12 31 0 71 7 89 15
36 15 89 20 89 8z m37 -79 c-3 -3 -12 -4 -19 -1 -8 3 -5 6 6 6 11 1 17 -2 13
-5z m-250 -120 c-3 -3 -12 -4 -19 -1 -8 3 -5 6 6 6 11 1 17 -2 13 -5z m-59
-21 c-10 -2 -26 -2 -35 0 -10 3 -2 5 17 5 19 0 27 -2 18 -5z m139 -49 c-3 -3
-12 -4 -19 -1 -8 3 -5 6 6 6 11 1 17 -2 13 -5z m493 -464 c0 -11 -4 -20 -10
-20 -5 0 -10 -22 -10 -50 0 -27 -3 -50 -7 -50 -5 0 -17 -14 -28 -30 -11 -16
-26 -30 -32 -30 -15 0 -17 31 -5 46 5 5 15 28 22 52 8 24 19 42 28 42 10 0 13
8 10 30 -4 24 -1 30 14 30 11 0 18 -7 18 -20z m13 -360 c-3 -11 -9 -23 -14
-26 -10 -6 -12 39 -3 49 12 12 22 -3 17 -23z"/>
<path d="M5774 4557 c-7 -20 8 -42 24 -36 7 3 6 13 -3 29 -12 23 -14 23 -21 7z"/>
<path d="M3825 4510 c-3 -5 -1 -10 4 -10 6 0 11 5 11 10 0 6 -2 10 -4 10 -3 0
-8 -4 -11 -10z"/>
<path d="M2349 4393 c-18 -46 -22 -214 -7 -243 12 -22 20 -25 74 -25 51 0 66
4 98 29 44 33 66 78 66 133 0 46 -31 101 -62 108 -146 33 -156 33 -169 -2z"/>
<path d="M5775 4349 c-4 -6 -5 -13 -2 -16 7 -7 27 6 27 18 0 12 -17 12 -25 -2z"/>
<path d="M2790 4321 c0 -20 48 -61 70 -61 31 0 22 34 -10 38 -14 2 -33 11 -42
19 -12 11 -18 12 -18 4z"/>
<path d="M8220 4211 c0 -39 1 -41 20 -31 11 6 20 13 20 16 0 3 -9 17 -20 31
l-20 26 0 -42z"/>
<path d="M8280 4196 c0 -9 40 -13 46 -5 3 5 -6 9 -20 9 -14 0 -26 -2 -26 -4z"/>
<path d="M5643 3856 c-21 -24 -51 -76 -66 -116 -26 -67 -29 -85 -28 -201 0
-110 3 -138 24 -196 16 -46 22 -82 19 -110 -5 -47 3 -56 18 -20 5 14 9 16 9 6
1 -9 12 -22 26 -29 14 -7 25 -17 25 -22 0 -5 11 -21 25 -36 14 -15 25 -21 25
-13 0 8 7 11 20 8 25 -6 97 39 136 87 58 69 93 247 74 369 -23 148 -47 212
-97 258 -41 39 -87 59 -132 59 -34 0 -44 -6 -78 -44z"/>
<path d="M6060 3414 c0 -8 5 -12 10 -9 6 4 8 11 5 16 -9 14 -15 11 -15 -7z"/>
<path d="M1760 3264 c-45 -23 -78 -34 -108 -34 -26 0 -41 -4 -37 -10 3 -5 26
-10 51 -10 41 0 57 -11 34 -25 -17 -11 -11 -25 11 -25 12 0 23 8 26 19 2 10
21 28 41 39 116 66 128 71 170 65 23 -3 42 -9 42 -13 0 -4 8 -10 18 -13 9 -2
25 -8 35 -12 17 -7 18 -6 6 13 -20 32 -54 42 -142 41 -73 0 -89 -4 -147 -35z"/>
<path d="M2076 3204 c-3 -10 -51 -46 -107 -79 -55 -33 -106 -69 -111 -80 -13
-23 -59 -65 -72 -65 -5 0 -24 -11 -42 -25 -20 -15 -52 -28 -81 -31 -26 -3 -60
-10 -76 -16 -19 -7 -31 -7 -41 1 -10 9 -22 5 -52 -19 -37 -30 -192 -141 -312
-225 -31 -21 -106 -90 -166 -152 -60 -62 -115 -113 -123 -113 -24 0 -14 49 27
136 34 70 47 87 79 104 22 11 75 50 118 86 43 37 96 79 118 93 22 14 49 35 60
46 12 11 32 27 45 36 13 9 19 18 13 22 -5 3 -47 -18 -94 -48 -46 -30 -89 -55
-96 -55 -7 0 -21 -8 -31 -18 -23 -23 -64 -52 -74 -52 -21 0 -3 32 37 64 25 21
45 44 45 52 0 19 -4 18 -52 -12 -23 -15 -54 -30 -69 -34 -27 -8 -27 -7 -22 25
3 18 0 42 -6 54 -7 11 -8 21 -4 21 7 0 26 31 50 82 2 4 -3 5 -12 2 -31 -12
-75 -113 -90 -205 -3 -20 -15 -45 -26 -55 -62 -56 -95 -184 -75 -296 11 -65
19 -82 66 -143 30 -39 56 -72 58 -75 2 -3 25 18 51 45 72 76 76 78 94 61 8 -9
18 -43 22 -76 6 -56 5 -63 -24 -107 -17 -25 -31 -49 -31 -53 0 -7 197 -226
228 -254 21 -18 21 -18 42 17 14 23 30 37 49 40 16 4 48 25 70 47 40 41 94 70
129 70 13 0 23 -15 36 -52 16 -48 16 -58 3 -108 -32 -118 -49 -140 -105 -140
-37 0 -72 -11 -72 -21 0 -13 62 -11 115 3 30 8 58 26 84 53 61 64 141 167 141
182 0 7 7 13 15 13 12 0 15 15 15 73 0 79 12 136 32 149 18 11 93 8 153 -6 47
-10 50 -13 59 -51 34 -160 61 -205 127 -205 29 0 42 6 58 26 12 15 21 35 21
45 0 12 5 16 15 13 10 -4 15 0 15 14 0 12 5 24 10 27 6 3 10 26 10 49 l0 44
66 12 c68 13 181 8 228 -10 23 -8 26 -15 26 -57 0 -50 -36 -186 -66 -248 -9
-19 -26 -43 -38 -53 -11 -9 -27 -28 -34 -42 -18 -35 -31 -50 -80 -92 -23 -21
-39 -38 -36 -38 4 0 39 15 78 34 68 33 128 86 214 193 15 18 25 24 28 15 9
-19 24 -3 25 26 1 43 34 133 52 144 13 7 17 5 17 -6 0 -23 67 -93 114 -121 55
-32 118 -42 135 -21 25 30 2 68 -93 158 -119 112 -182 203 -207 299 -10 40
-19 86 -19 103 0 40 24 117 45 150 25 38 130 114 177 128 22 6 49 24 60 39 12
15 27 25 34 22 18 -7 18 5 0 23 -8 8 -21 11 -29 8 -10 -3 -21 10 -35 43 -20
46 -62 103 -76 103 -9 0 -96 -93 -96 -103 0 -4 -18 -25 -41 -46 -22 -22 -39
-45 -38 -53 4 -32 -1 -38 -26 -32 -20 5 -25 2 -25 -13 0 -11 -9 -28 -20 -38
-20 -18 -21 -18 -55 16 -19 19 -35 40 -35 47 0 17 -20 15 -20 -3 0 -8 5 -15
10 -15 6 0 10 -4 10 -10 0 -5 11 -33 24 -62 13 -29 27 -66 31 -83 20 -96 24
-137 17 -190 -10 -79 -38 -101 -127 -99 -81 2 -181 44 -170 71 17 41 23 86 15
114 -13 45 -50 90 -87 105 -87 37 -213 -61 -213 -165 0 -46 -9 -60 -49 -77
-30 -13 -46 -13 -101 -3 -36 6 -73 16 -82 20 -45 24 -30 219 26 334 33 67 103
155 124 155 5 0 37 18 70 40 56 37 62 46 78 98 21 73 14 154 -19 223 -20 42
-26 48 -31 33z m-551 -374 c3 -6 17 -7 30 -4 29 7 46 -2 38 -21 -6 -17 -53
-21 -53 -5 0 6 -11 10 -25 10 -24 0 -32 10 -18 23 9 10 21 9 28 -3z m-513
-110 c-34 -32 -52 -38 -52 -18 0 21 33 48 59 48 l26 -1 -33 -29z"/>
<path d="M6007 3202 c-10 -10 -17 -27 -17 -38 0 -14 5 -10 21 15 23 38 21 50
-4 23z"/>
<path d="M1604 3132 c-17 -21 -39 -52 -48 -69 -16 -31 -16 -33 1 -33 22 0 123
93 123 113 0 14 -22 28 -38 26 -4 0 -21 -17 -38 -37z"/>
<path d="M1689 3061 c-29 -26 -69 -62 -88 -80 -18 -17 -37 -31 -42 -31 -5 0
-9 -7 -9 -15 0 -20 5 -19 40 7 19 14 53 24 92 29 34 4 64 12 66 18 2 6 10 11
18 11 8 0 14 7 14 15 0 8 -4 15 -10 15 -14 0 -12 54 2 68 9 9 8 12 -8 12 -11
0 -45 -22 -75 -49z"/>
<path d="M1073 3045 c-19 -21 -16 -30 5 -13 9 9 24 18 32 21 11 4 9 6 -5 6
-11 0 -26 -6 -32 -14z"/>
<path d="M4141 3042 c-30 -10 -60 -26 -68 -39 -13 -19 -12 -22 7 -28 14 -4 28
-1 39 9 10 9 31 16 48 16 20 0 38 9 56 30 l27 30 -27 -1 c-16 0 -52 -8 -82
-17z"/>
<path d="M4339 3046 c11 -13 9 -21 -17 -50 -16 -18 -47 -66 -68 -104 -30 -57
-44 -73 -66 -78 -35 -7 -61 12 -54 39 6 23 -38 67 -67 67 -12 0 -35 -14 -53
-31 -32 -31 -33 -31 -145 -33 -79 -1 -114 -5 -117 -14 -5 -17 -41 -15 -49 3
-7 20 -55 45 -86 45 -12 0 -27 4 -33 9 -5 5 -18 5 -29 1 l-20 -8 20 -8 c11 -4
25 -13 31 -18 7 -6 24 -20 38 -30 14 -10 26 -25 26 -32 0 -19 -7 -18 -38 5
-48 33 -122 53 -174 46 -89 -13 -69 -27 56 -40 83 -9 135 -48 136 -102 0 -21
-27 -15 -33 6 -6 23 -88 65 -114 58 -13 -3 -9 -6 13 -12 20 -4 36 -17 44 -34
7 -14 17 -34 22 -45 10 -20 19 -20 -112 0 -52 8 -51 -5 3 -36 l42 -24 -35 -6
c-58 -10 -60 -13 -61 -118 -2 -174 -17 -192 -96 -119 -63 58 -82 67 -141 67
-37 0 -53 -5 -70 -22 -70 -76 -11 -168 196 -302 161 -104 184 -159 179 -441
-2 -145 0 -163 18 -195 32 -55 86 -75 241 -90 154 -15 223 -6 319 40 33 16 94
45 135 64 41 20 93 51 116 68 l40 33 -4 135 c-2 82 -9 140 -16 147 -6 7 -45
17 -86 23 -131 18 -135 24 -49 82 103 71 109 78 130 158 23 85 21 172 -4 197
-8 9 -39 19 -68 24 -29 5 -56 12 -61 17 -4 4 30 34 76 66 46 32 94 68 106 81
29 31 41 94 34 177 -6 61 -9 68 -33 76 -24 9 -27 7 -27 -12 1 -14 -10 -26 -33
-38 -19 -10 -37 -15 -39 -13 -9 9 21 66 39 76 11 5 19 19 19 31 0 12 6 29 14
37 20 23 68 150 64 169 -2 11 -15 18 -37 20 -31 3 -33 2 -22 -12z m-504 -249
c23 -2 30 -7 30 -22 0 -16 -8 -21 -35 -23 -19 -1 -45 -8 -58 -14 -32 -16 -56
8 -46 47 6 25 9 27 43 20 20 -3 50 -7 66 -8z m-152 -191 c30 -26 35 -35 23
-39 -8 -3 -18 -2 -21 3 -10 16 -35 11 -35 -6 0 -14 10 -16 73 -10 116 10 245
11 253 3 5 -4 10 -36 12 -71 5 -72 -16 -126 -47 -126 -11 0 -25 -2 -33 -5 -7
-3 -22 1 -33 9 -20 14 -19 15 5 26 24 10 24 10 -5 5 -18 -4 -45 -23 -67 -48
-30 -33 -37 -50 -38 -83 0 -22 -5 -45 -10 -50 -7 -7 -2 -23 15 -48 14 -21 24
-40 22 -43 -9 -8 -59 10 -64 23 -3 8 -14 14 -25 14 -11 0 -22 8 -25 19 -3 11
-15 21 -26 23 -24 3 -35 34 -19 50 5 5 26 10 46 11 32 1 35 3 30 24 -5 19 -2
23 16 23 20 0 22 4 17 37 -4 20 -11 41 -16 46 -14 14 -31 -1 -31 -28 0 -23
-17 -35 -50 -35 -10 0 -25 -11 -34 -25 -9 -14 -25 -25 -36 -25 -23 0 -27 -15
-5 -24 8 -3 15 -13 15 -22 0 -9 6 -28 14 -42 8 -15 17 -35 20 -44 3 -10 15
-18 28 -18 13 0 28 -4 34 -8 15 -10 23 -58 13 -74 -5 -8 -9 -8 -9 -2 0 21 -70
86 -85 80 -17 -6 -21 -36 -5 -36 6 0 10 -9 10 -21 0 -13 -5 -19 -12 -15 -7 3
-21 9 -30 12 -10 3 -19 21 -23 42 -9 56 -3 215 8 230 7 8 6 26 -2 54 -14 45
-1 88 26 88 8 0 12 4 8 10 -3 5 -12 7 -20 4 -38 -15 -40 87 -1 108 11 6 25 17
29 24 14 23 50 15 90 -20z m335 -508 c14 -14 16 -114 2 -123 -5 -3 -10 -17
-10 -31 0 -28 -23 -32 -77 -12 -35 13 -48 44 -14 33 10 -3 30 -1 43 6 21 9 25
17 23 52 -3 65 -4 67 -29 67 -14 0 -28 5 -31 10 -9 14 78 13 93 -2z m-58 -48
c0 -13 -11 -19 -42 -24 -47 -8 -68 5 -49 28 13 15 56 25 79 18 6 -2 12 -12 12
-22z m-391 -47 c0 -27 5 -73 12 -103 7 -30 13 -74 14 -97 0 -24 6 -48 13 -55
24 -24 13 -38 -28 -38 -29 0 -40 -4 -40 -15 0 -16 33 -27 70 -23 22 3 25 -1
28 -29 4 -37 -10 -42 -44 -19 -17 12 -22 12 -39 0 -17 -13 -18 -16 -5 -24 12
-8 13 -13 3 -30 -18 -28 -16 -40 6 -40 38 0 51 -10 40 -31 -25 -48 -91 9 -78
69 5 26 4 147 -2 207 -3 31 3 260 7 267 3 4 14 8 24 8 17 0 20 -7 19 -47z
m261 8 c14 -27 13 -31 -9 -31 -10 0 -21 9 -24 19 -9 35 16 43 33 12z m-143
-30 c10 -15 9 -22 -1 -30 -16 -14 -26 -4 -26 26 0 28 11 30 27 4z m87 -31 c40
-15 31 -37 -29 -71 -48 -27 -53 -32 -40 -46 18 -17 19 -43 4 -77 -10 -21 -15
-23 -35 -14 -13 6 -24 20 -24 30 0 10 -4 26 -9 36 -40 79 -38 92 13 92 24 0
38 7 54 30 25 33 29 34 66 20z m-34 -309 c0 -27 -18 -45 -42 -46 -13 0 -22 -4
-22 -10 1 -5 5 -31 8 -57 7 -44 5 -48 -13 -48 -30 0 -60 49 -47 78 6 12 19 25
30 28 15 5 17 13 13 45 -4 29 -1 41 11 48 20 11 62 -14 62 -38z m234 3 c10
-25 7 -108 -5 -143 -10 -28 -15 -31 -51 -31 -46 0 -78 15 -78 35 0 23 -40 18
-60 -7 -19 -23 -19 -23 -38 -3 -26 27 -13 82 20 87 15 2 24 13 30 36 8 28 11
31 28 22 16 -9 22 -7 26 5 9 22 119 22 128 -1z"/>
<path d="M3665 2510 c-3 -5 -17 -10 -31 -10 -13 0 -24 -4 -24 -10 0 -5 7 -10
15 -10 22 0 18 -38 -5 -45 -24 -8 -25 -15 -6 -41 14 -18 15 -18 26 6 6 14 22
43 35 65 23 37 24 55 5 55 -5 0 -12 -4 -15 -10z"/>
<path d="M3768 2503 c-12 -13 -14 -23 -7 -36 6 -9 7 -26 4 -37 -9 -27 22 -39
39 -15 7 10 18 15 25 11 15 -10 41 11 41 33 0 24 -30 60 -36 44 -8 -18 -24
-16 -38 3 -11 14 -13 13 -28 -3z"/>
<path d="M5471 3024 c0 -11 3 -14 6 -6 3 7 2 16 -1 19 -3 4 -6 -2 -5 -13z"/>
<path d="M1473 3005 c-3 -9 -3 -18 0 -21 6 -7 47 18 47 28 0 15 -41 8 -47 -7z"/>
<path d="M1201 2936 c-17 -18 -19 -25 -8 -29 18 -7 31 2 46 31 16 31 -8 30
-38 -2z"/>
<path d="M4132 2941 c-11 -7 -11 -9 2 -14 10 -4 16 -1 16 8 0 17 -1 17 -18 6z"/>
<path d="M5497 2923 c-13 -13 -7 -21 13 -16 11 3 20 9 20 14 0 10 -24 12 -33
2z"/>
<path d="M4970 2891 c0 -16 38 -42 45 -32 3 6 4 15 1 20 -7 11 -46 21 -46 12z"/>
<path d="M5480 2866 c-8 -8 -28 -26 -43 -41 -49 -44 -18 -47 33 -3 27 23 47
46 44 50 -8 12 -18 10 -34 -6z"/>
<path d="M5555 2851 c-7 -23 -50 -71 -65 -71 -5 0 -10 -5 -10 -11 0 -13 68 -6
81 8 12 14 22 93 11 93 -6 0 -13 -8 -17 -19z"/>
<path d="M5060 2821 c0 -5 10 -11 23 -15 33 -9 37 -8 37 9 0 10 -10 15 -30 15
-16 0 -30 -4 -30 -9z"/>
<path d="M3410 2800 c-22 -7 -21 -8 13 -9 20 -1 37 4 37 9 0 11 -14 11 -50 0z"/>
<path d="M5215 2780 c-3 -5 1 -10 9 -10 9 0 16 5 16 10 0 6 -4 10 -9 10 -6 0
-13 -4 -16 -10z"/>
<path d="M3295 2770 c-3 -5 1 -10 9 -10 8 0 18 5 21 10 3 6 -1 10 -9 10 -8 0
-18 -4 -21 -10z"/>
<path d="M4811 2668 c15 -52 41 -72 200 -154 25 -13 71 -29 103 -35 92 -17
204 -57 253 -90 49 -34 99 -98 136 -174 33 -66 35 -75 56 -180 32 -159 13
-315 -60 -482 -55 -125 -100 -174 -208 -225 l-85 -41 -156 -1 c-85 -1 -181 3
-212 7 -47 7 -58 6 -58 -6 0 -16 28 -30 115 -59 49 -17 87 -21 210 -21 l150 0
100 41 c122 50 190 72 231 72 16 0 35 5 40 10 19 19 44 -1 100 -76 30 -41 59
-74 64 -74 6 0 10 -5 10 -11 0 -6 12 -23 28 -38 79 -79 225 -103 346 -57 111
42 266 139 266 166 0 6 5 10 10 10 6 0 10 -7 10 -15 0 -32 16 -13 29 33 13 48
18 151 26 547 6 339 14 423 39 450 12 12 63 39 115 60 51 21 95 44 97 50 15
39 -88 170 -154 196 -77 31 -265 28 -301 -5 -17 -16 -222 -137 -283 -167 -20
-11 -50 -19 -67 -19 -20 0 -32 -6 -36 -19 -3 -10 -23 -26 -45 -36 -22 -10 -40
-22 -40 -27 0 -4 -6 -8 -12 -8 -12 0 47 59 76 78 19 11 59 73 52 79 -3 3 -15
-2 -26 -12 -25 -23 -30 -18 -51 51 -19 62 -106 185 -129 181 -8 -1 -20 -12
-26 -25 -13 -27 -54 -72 -66 -72 -4 0 -5 20 -2 44 8 57 -13 73 -22 16 -4 -22
-10 -40 -14 -40 -4 0 -10 -9 -13 -20 -3 -13 -14 -20 -29 -20 -12 0 -47 -9 -76
-20 -48 -18 -55 -19 -76 -5 -21 14 -24 14 -29 0 -5 -12 -23 -15 -85 -15 -43 0
-83 5 -88 10 -6 6 -43 12 -83 12 -62 1 -75 5 -104 29 -17 16 -26 28 -19 29 6
0 12 5 12 11 0 7 -13 8 -38 4 -47 -8 -152 28 -152 51 0 15 -23 44 -34 44 -2 0
0 -14 5 -32z m972 -426 c-12 -8 -42 -56 -75 -122 -18 -37 -23 -41 -26 -23 -3
20 41 104 59 111 5 2 9 8 9 14 0 13 33 39 40 32 2 -3 -1 -8 -7 -12z m-116
-184 c-3 -8 -6 -5 -6 6 -1 11 2 17 5 13 3 -3 4 -12 1 -19z m15 -52 c3 2 11 -2
18 -11 11 -13 8 -15 -24 -15 -30 0 -36 4 -36 20 0 17 3 19 19 11 10 -6 21 -8
23 -5z m22 -110 c8 -17 17 -62 20 -100 3 -55 8 -73 24 -85 12 -9 24 -29 28
-45 4 -17 20 -36 40 -48 25 -14 37 -31 45 -61 33 -123 97 -197 171 -197 76 0
108 41 137 176 23 106 29 124 46 124 7 0 24 10 39 21 31 24 29 25 49 -22 11
-28 22 -38 46 -42 56 -11 61 -24 45 -107 -7 -40 -30 -115 -50 -167 -34 -89
-40 -97 -105 -151 -57 -46 -80 -59 -129 -68 -166 -34 -246 -7 -356 121 -31 37
-43 64 -56 135 -5 30 -23 83 -40 117 -29 60 -30 68 -31 210 -1 151 2 222 9
235 9 14 53 -15 68 -46z m463 22 c-3 -7 -5 -2 -5 12 0 14 2 19 5 13 2 -7 2
-19 0 -25z m-397 -38 c0 -22 -4 -40 -10 -40 -11 0 -13 39 -4 64 10 26 14 19
14 -24z m570 -55 c7 -8 14 -45 17 -82 3 -50 2 -64 -6 -53 -6 8 -11 31 -11 51
0 24 -8 45 -24 62 -15 17 -20 28 -13 31 20 8 24 7 37 -9z"/>
<path d="M3203 2673 c9 -2 25 -2 35 0 9 3 1 5 -18 5 -19 0 -27 -2 -17 -5z"/>
<path d="M7710 2485 c-45 -11 -63 -23 -97 -60 -24 -26 -43 -53 -43 -61 0 -8
-7 -25 -15 -38 -14 -21 -14 -26 0 -52 8 -16 15 -35 15 -43 0 -8 15 -33 34 -55
33 -41 80 -67 175 -98 25 -8 46 -19 48 -25 5 -15 -89 -73 -119 -73 -14 0 -45
7 -69 15 -45 16 -87 13 -124 -10 -11 -7 -45 -18 -76 -25 -49 -11 -63 -10 -107
4 -28 10 -56 24 -63 32 -10 12 -14 12 -20 2 -15 -24 -9 -34 29 -51 53 -24 154
-22 220 3 63 24 98 25 163 4 41 -14 49 -20 49 -41 0 -43 -32 -125 -51 -130
-10 -3 -19 -12 -21 -21 -3 -14 -16 -16 -87 -13 l-84 3 -51 -56 c-95 -101 -124
-193 -105 -330 16 -122 61 -169 189 -195 45 -9 65 -9 108 4 28 9 52 20 52 25
0 6 10 10 23 10 20 0 22 -4 19 -40 -5 -46 -1 -47 44 -20 41 26 41 27 54 179
13 154 15 159 60 126 27 -20 46 -25 95 -26 195 -1 180 -5 299 93 188 153 315
276 321 312 2 17 11 72 19 121 9 50 29 131 45 180 46 141 41 144 -249 146
-164 2 -202 -1 -240 -15 -85 -33 -90 -33 -84 5 8 48 -19 103 -75 158 -72 70
-154 86 -281 56z m28 -81 c-4 -50 -31 -58 -46 -14 -10 26 -8 34 9 51 27 27 41
13 37 -37z m109 4 c-3 -8 -6 -5 -6 6 -1 11 2 17 5 13 3 -3 4 -12 1 -19z m-177
-12 c0 -8 -4 -17 -9 -21 -12 -7 -24 12 -16 25 9 15 25 12 25 -4z m-50 -103 c0
-20 -3 -24 -11 -16 -7 7 -9 19 -6 27 10 24 17 19 17 -11z m677 -39 c-3 -3 -12
-4 -19 -1 -8 3 -5 6 6 6 11 1 17 -2 13 -5z m-371 -149 c19 -14 19 -14 -2 -29
-14 -10 -24 -32 -29 -62 -8 -55 -14 -74 -25 -74 -8 0 -25 88 -20 105 1 6 2 18
2 27 0 10 9 25 21 33 26 18 28 19 53 0z m74 -15 c22 -7 21 -8 -12 -9 -21 -1
-38 4 -38 9 0 11 14 11 50 0z m105 -30 c3 -6 -1 -7 -9 -4 -18 7 -21 14 -7 14
6 0 13 -4 16 -10z m-258 -262 c-3 -7 -5 -2 -5 12 0 14 2 19 5 13 2 -7 2 -19 0
-25z"/>
<path d="M8835 2490 c-3 -5 -1 -10 4 -10 6 0 11 5 11 10 0 6 -2 10 -4 10 -3 0
-8 -4 -11 -10z"/>
<path d="M5019 2253 c-12 -32 -34 -630 -24 -679 12 -65 81 -91 151 -58 78 37
118 144 134 357 21 265 -48 407 -198 407 -48 0 -53 -2 -63 -27z"/>
<path d="M7318 2083 c7 -3 16 -2 19 1 4 3 -2 6 -13 5 -11 0 -14 -3 -6 -6z"/>
<path d="M7173 1914 c-3 -8 -1 -20 6 -27 8 -8 11 -4 11 16 0 30 -7 35 -17 11z"/>
<path d="M7108 1744 c-5 -4 -8 -19 -8 -33 0 -18 3 -22 11 -14 6 6 9 21 7 33
-1 12 -6 18 -10 14z"/>
<path d="M7080 1590 c0 -38 -4 -70 -8 -70 -5 0 -14 -11 -20 -25 -10 -21 -15
-23 -36 -16 -17 7 -30 5 -45 -6 -21 -14 -64 -14 -136 -2 -37 7 -56 -110 -21
-134 33 -23 176 27 204 72 9 14 17 28 19 30 1 2 9 -2 17 -8 8 -7 17 -8 20 -3
8 14 20 232 13 232 -4 0 -7 -31 -7 -70z"/>
<path d="M3375 1551 c-31 -27 -72 -57 -91 -66 -33 -15 -40 -25 -28 -37 6 -7
95 32 119 52 32 26 75 89 66 94 -5 4 -35 -16 -66 -43z"/>
<path d="M2293 1583 c15 -2 37 -2 50 0 12 2 0 4 -28 4 -27 0 -38 -2 -22 -4z"/>
<path d="M2915 1502 c42 -25 108 -45 131 -39 17 4 16 5 -3 6 -12 0 -25 6 -28
11 -9 15 -74 40 -104 40 l-26 0 30 -18z"/>
<path d="M3111 1438 c30 -6 62 -6 90 0 40 9 36 10 -46 10 -83 0 -87 -1 -44
-10z"/>
<path d="M7083 1340 c0 -30 2 -43 4 -27 2 15 2 39 0 55 -2 15 -4 2 -4 -28z"/>
<path d="M7100 1206 c0 -25 9 -69 20 -98 24 -63 23 -58 7 -58 -7 0 -32 -9 -55
-20 -25 -12 -61 -20 -92 -20 -80 0 -412 40 -437 52 -13 6 -25 9 -28 6 -12 -11
43 -36 90 -41 28 -3 75 -10 105 -16 137 -28 182 -34 292 -36 65 -2 122 -6 128
-10 5 -3 10 -1 10 4 0 6 -5 11 -12 11 -7 0 -3 9 9 21 l21 21 48 -45 c59 -56
106 -68 165 -41 l40 17 -32 14 c-17 7 -40 13 -52 13 -42 0 -109 44 -148 99
-22 30 -39 60 -39 68 0 7 -4 13 -10 13 -5 0 -10 18 -10 39 0 22 -4 43 -10 46
-6 4 -10 -12 -10 -39z"/>
</g>
</svg>
