<?xml version="1.0" standalone="no"?>
<!DOCTYPE svg PUBLIC "-//W3C//DTD SVG 20010904//EN"
 "http://www.w3.org/TR/2001/REC-SVG-20010904/DTD/svg10.dtd">
<svg version="1.0" xmlns="http://www.w3.org/2000/svg"
 width="992.000000pt" height="992.000000pt" viewBox="0 0 992.000000 992.000000"
 preserveAspectRatio="xMidYMid meet">
<metadata>
Created by potrace 1.14, written by Peter Selinger 2001-2017
</metadata>
<g transform="translate(0.000000,992.000000) scale(0.100000,-0.100000)"
fill="#000000" stroke="none">
<path d="M4595 9554 c-22 -2 -92 -9 -155 -15 -1200 -111 -2341 -649 -3158
-1487 -67 -69 -119 -129 -114 -134 4 -4 34 -10 67 -12 73 -5 67 -4 60 -16 -3
-5 -27 -10 -53 -10 -52 0 -89 -17 -62 -27 10 -4 1 -11 -25 -19 l-40 -13 50 1
c28 0 140 -3 250 -7 110 -4 405 -8 655 -9 l455 -1 0 68 c0 72 12 92 49 81 11
-4 107 -6 214 -6 175 1 204 -2 289 -24 51 -13 107 -24 123 -24 30 0 30 0 14
-25 -15 -23 -18 -24 -34 -10 -23 21 -37 19 -46 -7 l-8 -23 -5 23 c-8 31 -25
33 -29 4 -4 -27 22 -51 54 -52 23 0 50 -42 39 -60 -5 -8 -10 -8 -20 0 -19 16
-35 4 -35 -25 0 -27 14 -40 32 -29 7 5 41 9 75 9 60 2 69 -2 63 -30 -1 -5 -3
-36 -4 -67 -1 -33 -8 -64 -17 -75 -9 -11 -14 -38 -14 -70 0 -44 -2 -50 -14
-40 -12 10 -14 9 -8 -6 5 -12 -1 -26 -18 -43 -29 -29 -32 -52 -7 -61 29 -10
62 -56 50 -70 -14 -18 8 -43 38 -43 35 0 44 28 44 143 0 57 2 106 5 109 3 2
28 1 57 -2 38 -5 57 -14 74 -34 13 -14 29 -25 36 -24 9 2 12 -8 10 -31 -1 -20
4 -41 13 -51 11 -12 13 -20 6 -25 -18 -10 -31 4 -31 35 0 16 -4 32 -10 35 -6
4 -10 -19 -10 -60 0 -44 -6 -76 -16 -93 -19 -32 -115 -112 -162 -136 -18 -9
-36 -25 -39 -34 -14 -37 -87 -152 -97 -152 -6 0 -23 -6 -38 -14 -24 -13 -28
-12 -45 8 -22 24 -53 72 -53 82 0 3 7 4 15 0 9 -3 15 0 15 8 0 11 -63 14 -332
15 -183 2 -360 6 -393 10 -36 5 -47 9 -28 10 18 0 50 8 70 15 21 8 94 24 163
36 69 12 143 25 165 29 22 5 90 18 150 30 61 13 118 27 127 32 10 5 37 9 60
10 24 0 52 4 63 9 17 6 14 9 -17 15 -21 4 -46 4 -55 0 -33 -13 -108 -15 -131
-3 -18 9 -28 9 -44 -1 -17 -11 -23 -10 -37 3 -13 14 -14 18 -3 25 10 6 6 10
-14 15 -18 5 -30 3 -32 -3 -5 -16 -42 -13 -48 4 -4 10 -21 15 -54 15 -27 0
-52 5 -55 10 -5 8 -11 8 -20 0 -7 -6 -19 -8 -26 -6 -8 2 -26 7 -42 10 -22 5
-27 12 -27 36 0 43 -18 46 -22 3 -3 -35 -5 -38 -33 -38 -39 1 -57 36 -64 125
l-6 65 -40 5 c-26 3 -35 8 -27 13 7 5 10 13 7 18 -10 15 -41 10 -68 -11 l-26
-21 -18 21 c-20 23 -50 26 -96 7 -34 -15 -64 -44 -54 -53 6 -6 75 15 95 30 7
5 15 6 18 3 13 -12 -5 -33 -42 -51 -22 -10 -52 -25 -69 -33 -28 -14 -31 -13
-48 8 l-18 22 -27 -25 c-15 -14 -35 -28 -45 -31 -24 -9 -12 -27 18 -27 12 0
25 -7 29 -15 3 -8 12 -15 20 -15 12 0 14 -5 6 -26 -14 -35 -12 -54 3 -54 19 0
107 93 107 114 0 26 34 16 38 -12 4 -26 -57 -89 -96 -99 -12 -3 -27 -14 -32
-24 -8 -14 -18 -17 -39 -13 -23 5 -32 2 -40 -15 -17 -31 -68 -54 -107 -48 -23
4 -34 1 -38 -9 -7 -18 47 -44 91 -44 15 -1 44 -9 63 -20 l35 -19 -57 -2 c-32
-1 -62 -3 -68 -4 -5 -1 -18 -3 -27 -4 -16 -1 -16 -3 -3 -11 23 -16 -15 -42
-44 -30 -13 5 -43 4 -71 -2 -43 -9 -50 -8 -62 8 -21 29 -15 41 25 51 20 5 36
15 35 21 -5 21 37 25 59 6 19 -18 20 -18 16 11 -2 23 -9 31 -28 33 -34 5 -50
20 -50 48 0 15 -6 24 -15 24 -8 0 -15 -4 -15 -9 0 -5 -19 -23 -42 -41 -33 -24
-50 -30 -72 -26 -28 6 -29 6 -23 -35 4 -28 16 -52 38 -75 18 -19 30 -34 26
-35 -34 -6 -51 3 -92 44 -34 36 -51 46 -66 42 -11 -4 -25 0 -34 9 -13 13 -11
16 15 28 30 13 39 31 20 43 -19 12 -50 -6 -56 -32 -6 -21 -8 -23 -16 -9 -5 9
-19 16 -32 16 -13 0 -30 7 -37 16 -11 14 -10 18 6 30 17 13 16 14 -18 14 -26
0 -37 -4 -37 -14 0 -27 -20 -28 -52 -1 -17 14 -36 24 -43 22 -6 -3 -41 -8 -76
-12 -53 -6 -67 -4 -78 9 -7 9 -19 16 -26 16 -8 0 -15 5 -17 11 -4 13 -72 29
-152 36 -46 4 -57 2 -54 -9 2 -7 14 -17 26 -23 12 -5 22 -13 22 -17 0 -4 6 -5
14 -2 8 3 17 1 21 -5 3 -6 18 -12 33 -12 21 -1 18 -3 -13 -9 -22 -5 -48 -7
-57 -4 -9 3 -42 -2 -73 -12 -32 -9 -70 -14 -85 -10 -18 3 -33 0 -40 -9 -7 -8
-16 -12 -21 -10 -4 3 -13 -4 -19 -15 -6 -11 -18 -20 -28 -20 -10 0 -30 -23
-50 -60 l-33 -60 91 1 c59 1 96 -3 103 -11 7 -7 12 -47 12 -102 l0 -91 40 -14
c27 -9 41 -10 43 -3 5 15 57 40 85 40 13 0 43 7 68 15 40 14 127 32 254 55 28
4 77 16 110 24 56 15 130 26 182 26 12 0 34 7 50 15 15 8 42 15 60 15 17 0 35
4 38 10 3 5 20 9 38 8 18 0 56 2 85 7 48 6 52 5 52 -13 0 -12 -8 -23 -18 -26
-10 -4 -55 -30 -99 -59 -179 -115 -201 -127 -250 -133 -81 -10 -182 -36 -194
-50 -9 -11 -8 -14 2 -14 21 -1 59 -36 59 -54 0 -20 -18 -20 -59 0 -26 13 -32
21 -28 40 3 20 0 24 -19 24 -27 0 -33 -14 -26 -57 5 -38 -18 -54 -51 -34 -16
10 -21 10 -28 -1 -6 -9 -9 -7 -9 9 0 24 -58 63 -95 63 -22 0 -24 -4 -23 -48 2
-57 -7 -75 -32 -67 -13 4 -20 0 -25 -15 -10 -30 -33 -24 -56 15 -20 34 -40 42
-73 29 -9 -3 -16 -13 -16 -20 0 -8 -6 -17 -14 -20 -8 -3 -19 -19 -25 -35 -5
-16 -17 -29 -25 -29 -8 0 -20 -9 -26 -19 -6 -13 -17 -17 -30 -14 -13 4 -20 0
-20 -9 0 -8 -6 -23 -14 -34 -14 -19 -15 -19 -49 0 -39 20 -58 16 -50 -13 3
-10 0 -28 -6 -39 -8 -16 -6 -29 12 -61 21 -38 21 -41 5 -57 -12 -13 -31 -17
-63 -15 -41 2 -46 0 -55 -26 -6 -15 -33 -48 -60 -73 l-50 -45 30 -34 c29 -33
31 -33 45 -15 14 18 14 18 15 -2 0 -12 7 -24 15 -28 16 -6 21 -46 6 -46 -5 0
-13 9 -16 20 -9 28 -22 25 -58 -12 -19 -21 -32 -45 -33 -65 -2 -18 -14 -48
-28 -66 -14 -19 -26 -38 -26 -43 0 -5 -11 -31 -25 -57 -34 -63 -17 -87 38 -53
34 21 72 27 91 13 23 -16 12 -43 -25 -62 -16 -9 -33 -24 -39 -34 -16 -31 -46
-35 -80 -11 l-29 21 -21 -21 c-19 -19 -22 -19 -56 -5 -47 19 -44 21 -44 -20
l0 -34 333 6 c182 3 407 5 498 3 170 -2 269 5 269 20 0 5 -26 11 -57 15 -88
10 -108 18 -111 46 -2 19 4 28 23 37 18 8 25 18 21 28 -3 9 -6 23 -6 33 0 10
-15 24 -35 34 -29 14 -35 22 -35 47 0 37 21 48 63 32 37 -14 41 -11 33 21 -8
35 -55 46 -77 18 -32 -39 -159 -24 -198 23 -18 22 -24 21 -69 -18 -30 -25 -48
-32 -66 -29 -15 3 -32 0 -40 -6 -10 -9 -20 -9 -41 1 -25 11 -29 10 -55 -22
-22 -27 -31 -32 -41 -23 -7 7 -9 19 -4 30 4 10 7 28 6 41 -2 13 2 28 7 35 5 7
14 32 20 57 6 25 14 55 17 67 6 18 2 25 -17 33 -36 17 -49 42 -32 65 12 16 16
17 31 3 30 -25 102 -43 115 -30 16 16 38 15 38 0 0 -7 12 -21 26 -31 24 -18
25 -18 53 12 30 32 64 33 88 4 9 -12 19 -12 53 -3 48 13 97 1 125 -30 10 -11
22 -20 27 -20 4 0 8 33 8 74 l0 74 32 7 c18 4 45 14 60 21 23 12 26 17 18 43
-4 16 -6 32 -3 35 3 3 0 19 -6 37 -10 29 -8 34 20 60 17 16 36 29 41 29 6 0 7
8 3 18 -15 35 -23 82 -14 82 5 0 9 -8 9 -18 0 -18 29 -52 43 -52 4 0 7 7 7 15
0 8 5 25 11 39 11 24 15 25 73 19 71 -6 92 8 88 58 -3 33 24 49 82 49 52 0 63
21 44 81 l-16 49 26 6 c15 3 39 10 54 16 15 6 47 7 70 4 24 -4 216 -11 428
-16 212 -6 408 -12 435 -16 48 -5 53 -3 127 50 42 31 79 56 83 56 4 0 21 11
39 25 17 14 36 29 42 34 37 30 101 64 121 64 13 0 52 -25 93 -59 39 -33 89
-72 111 -89 l41 -30 -4 -75 -3 -75 85 -2 c47 -2 189 -10 317 -18 286 -19 404
-19 425 -2 20 15 33 57 19 57 -20 0 -11 36 17 70 l29 34 7 -27 c5 -23 12 -27
41 -27 22 0 37 6 43 18 12 22 -3 62 -23 62 -8 0 -15 7 -15 15 0 8 5 15 12 15
11 0 113 -75 146 -107 17 -16 59 -17 64 -1 3 7 -17 29 -44 50 -40 32 -48 44
-48 72 0 18 -3 60 -6 93 -8 78 4 87 99 71 l66 -11 40 35 c22 18 61 44 88 57
26 13 69 41 95 62 26 22 54 39 63 39 13 0 103 -64 200 -143 29 -24 29 -25 28
-122 -1 -53 -6 -102 -12 -109 -6 -7 -43 -13 -98 -14 l-88 -2 -57 -62 c-32 -35
-58 -69 -58 -78 0 -13 38 -15 279 -19 153 -2 287 0 299 3 24 8 37 52 27 96 -6
27 -11 30 -43 30 -20 0 -54 5 -75 11 l-37 10 1 154 c0 87 5 158 10 161 6 4 6
11 -1 19 -6 7 -13 37 -16 66 -7 70 -24 139 -35 139 -5 0 -11 -11 -15 -25 -3
-14 -12 -25 -20 -25 -7 0 -12 -6 -10 -12 1 -7 1 -10 -1 -5 -7 12 -30 8 -43 -8
-7 -8 -21 -15 -31 -15 -11 0 -23 -10 -29 -24 -11 -30 -41 -48 -60 -36 -8 5
-19 33 -25 62 -12 61 -38 74 -43 21 -3 -30 -4 -31 -33 -21 -23 8 -29 16 -29
39 0 40 -24 37 -38 -3 l-10 -33 -1 31 c-1 17 -10 43 -21 57 -21 27 -26 47 -11
47 16 0 20 43 6 63 -13 19 -14 19 -26 -1 -12 -19 -13 -19 -33 -1 -11 11 -23
19 -27 19 -15 0 -40 -33 -35 -46 3 -9 -2 -14 -14 -14 -31 0 -28 -79 4 -109
l23 -22 -30 -35 c-19 -21 -40 -34 -55 -34 -22 0 -24 3 -18 35 5 26 3 40 -9 51
-8 9 -12 20 -9 26 4 6 2 27 -4 47 -6 20 -16 63 -22 96 -14 75 -32 114 -65 145
l-27 25 -24 -30 c-23 -29 -23 -30 -4 -50 11 -12 20 -27 20 -34 0 -15 -60 -71
-76 -71 -20 0 -48 -39 -37 -52 5 -7 10 -29 11 -48 4 -72 48 -109 85 -70 19 22
33 25 41 11 3 -5 14 -7 25 -4 23 6 67 -37 49 -48 -6 -4 -19 -2 -29 4 -17 11
-21 10 -89 -22 -8 -4 -19 -17 -25 -29 -16 -35 -42 -28 -38 11 5 41 -9 62 -33
52 -34 -15 -69 -4 -103 31 -24 26 -38 33 -50 27 -9 -4 -77 -6 -151 -5 -137 4
-181 15 -193 47 -8 18 -12 19 53 -5 30 -11 58 -16 62 -12 14 14 21 78 14 124
-5 34 -14 48 -39 66 -40 27 -47 27 -47 4 0 -10 -6 -26 -13 -37 -8 -11 -20 -41
-28 -67 -7 -27 -16 -48 -19 -48 -3 0 -5 25 -5 55 0 50 2 55 23 55 12 0 22 5
22 10 0 6 -19 10 -42 10 -90 0 -177 58 -90 61 33 1 32 2 -18 11 -38 7 -59 7
-72 -1 -26 -16 -38 -14 -38 8 0 14 10 21 35 25 19 4 35 13 35 20 0 18 -33 46
-54 46 -22 0 -46 23 -46 44 0 13 7 15 39 10 33 -5 41 -3 50 14 9 17 8 23 -6
31 -16 9 -16 10 3 11 13 0 24 -8 27 -20 5 -18 25 -21 89 -11 23 3 38 37 38 85
0 56 12 76 45 76 36 0 52 -29 54 -94 1 -33 3 -61 5 -63 7 -7 36 48 38 72 3 31
18 33 18 3 0 -60 7 -65 88 -73 42 -4 104 -8 137 -9 l60 -1 3 52 c4 62 23 80
63 58 27 -16 42 -23 63 -29 7 -3 16 -20 20 -39 4 -19 12 -39 19 -44 18 -14
133 -37 152 -30 24 10 18 23 -15 37 -27 11 -50 37 -50 56 0 9 120 -5 163 -20
27 -9 34 -15 26 -26 -14 -24 -11 -49 11 -78 19 -26 20 -30 5 -58 -20 -39 -19
-57 4 -78 25 -23 41 -13 42 27 l0 32 12 -35 c13 -37 41 -51 51 -25 3 9 -1 29
-9 45 -17 33 -19 68 -5 90 8 13 13 13 30 2 27 -16 43 -6 37 24 -6 33 21 32 29
-1 7 -28 29 -33 38 -9 9 23 26 7 26 -24 0 -15 3 -38 7 -52 l7 -25 6 25 c6 24
10 25 75 25 l69 0 3 -61 c3 -74 -14 -99 -47 -69 -18 16 -20 16 -26 1 -4 -10
-17 -16 -35 -16 -22 0 -30 6 -35 25 -16 64 -31 -8 -27 -127 1 -16 -3 -28 -8
-28 -5 0 -9 -15 -9 -32 1 -31 2 -32 15 -14 8 10 17 39 20 65 9 66 14 78 32 85
24 10 43 -12 37 -43 -5 -23 -2 -29 18 -34 39 -11 78 -8 84 7 7 17 42 28 50 15
8 -13 24 -1 19 14 -12 33 8 37 155 27 80 -5 157 -12 173 -16 42 -9 34 17 -21
67 -71 65 -163 139 -172 139 -4 0 -11 7 -14 16 -6 16 38 78 93 131 34 32 134
83 164 83 20 0 64 -25 87 -50 3 -3 22 -20 43 -38 32 -27 46 -32 88 -32 30 0
69 9 97 22 36 16 78 23 176 30 128 8 129 8 167 43 42 38 90 65 114 65 9 0 18
-12 22 -30 10 -52 48 -70 150 -71 63 -1 100 4 132 16 40 17 47 17 90 2 25 -8
57 -18 71 -21 23 -5 50 -44 50 -72 0 -7 24 -39 54 -71 29 -32 71 -80 92 -106
32 -41 51 -53 109 -73 39 -14 83 -28 98 -31 l28 -5 -3 93 -3 94 40 0 40 0 7
-50 c4 -27 12 -93 18 -145 6 -52 24 -136 41 -185 16 -50 29 -100 29 -112 0
-52 -147 -130 -222 -118 l-37 7 2 -62 c1 -44 6 -65 19 -77 10 -9 18 -24 18
-33 0 -18 42 -61 78 -79 12 -6 22 -18 22 -26 0 -22 17 -18 23 5 3 11 19 25 35
31 17 6 33 17 36 25 3 9 20 14 44 14 21 0 44 6 50 12 15 15 32 -4 32 -37 0
-11 8 -33 18 -50 24 -39 38 -143 17 -125 -7 6 -17 25 -21 43 l-6 31 -19 -23
c-15 -19 -17 -27 -7 -44 6 -12 14 -51 18 -87 7 -58 5 -69 -17 -108 -17 -30
-29 -42 -40 -38 -8 3 -17 6 -19 6 -9 0 -3 57 8 68 6 6 9 15 5 18 -9 9 -47 -25
-47 -41 0 -18 -84 -29 -107 -14 -11 6 -30 26 -42 45 -13 18 -35 35 -51 39 -15
3 -37 15 -48 25 -12 11 -23 16 -26 11 -3 -5 -72 -8 -153 -7 l-148 1 0 28 c-1
44 -54 80 -127 85 -58 4 -81 -2 -158 -45 -67 -37 -179 -85 -219 -95 -25 -6
-56 -14 -69 -19 -13 -5 -34 -9 -47 -9 -13 0 -27 -5 -30 -10 -4 -7 -12 -7 -25
0 -10 5 -52 10 -93 10 l-75 0 -16 -40 c-20 -51 -20 -49 5 -43 20 6 21 3 15
-22 -4 -15 -14 -34 -21 -42 -8 -8 -15 -18 -15 -22 0 -4 -10 -17 -21 -30 -15
-16 -24 -20 -32 -12 -17 17 -27 13 -27 -9 0 -11 -4 -20 -10 -20 -5 0 -10 -4
-10 -10 0 -5 7 -10 15 -10 8 0 15 -4 15 -10 0 -5 -4 -10 -10 -10 -5 0 -14 -19
-21 -42 -6 -24 -15 -48 -21 -55 -5 -7 -8 -17 -6 -23 2 -7 42 31 88 83 83 92
92 103 138 161 15 20 22 24 22 12 0 -9 -4 -16 -10 -16 -5 0 -10 -7 -10 -15 0
-8 -4 -15 -10 -15 -5 0 -10 -5 -10 -10 0 -6 -26 -45 -58 -88 -102 -133 -132
-183 -132 -214 0 -16 -4 -37 -9 -46 -5 -9 -5 -26 0 -37 7 -17 8 -17 8 8 1 43
21 32 21 -12 0 -22 4 -42 9 -46 5 -3 13 -20 16 -38 11 -51 61 -131 112 -178
74 -70 103 -100 103 -110 0 -15 -16 -10 -35 11 -21 23 -43 25 -67 6 -22 -16
-23 -30 -3 -46 8 -7 15 -23 15 -36 0 -13 5 -24 10 -24 6 0 10 -9 10 -21 0 -11
10 -33 21 -47 l22 -27 -6 43 c-3 24 -17 61 -31 83 -23 34 -24 39 -8 39 21 0
74 -92 102 -177 15 -48 70 -295 70 -317 0 -3 -7 -6 -15 -6 -9 0 -15 10 -16 23
-1 20 -2 19 -14 -8 l-13 -30 -21 45 c-11 25 -29 80 -40 122 -12 43 -27 95 -35
115 -26 73 -36 110 -36 131 0 11 -4 24 -10 27 -5 3 -10 16 -10 28 0 12 -7 31
-15 41 -11 15 -12 23 -3 33 6 7 9 15 7 17 -2 1 -26 19 -54 40 -27 20 -57 49
-65 63 -20 33 -48 46 -31 14 18 -33 -4 -25 -44 17 -40 41 -85 121 -85 151 0
23 -16 36 -25 21 -11 -18 -58 -11 -83 13 -23 21 -30 22 -290 25 -296 3 -327 1
-335 -28 -3 -11 -19 -28 -36 -37 -42 -25 -49 -43 -60 -163 -8 -93 -7 -106 7
-118 10 -8 27 -10 42 -6 14 3 113 8 220 9 107 2 319 6 472 11 l276 7 26 -28
c14 -15 26 -35 26 -45 0 -14 32 -103 60 -165 12 -29 27 -79 45 -160 29 -129
40 -159 72 -191 35 -35 99 -52 149 -40 14 4 34 4 45 1 15 -5 17 -10 9 -26 -6
-10 -17 -19 -25 -19 -8 0 -16 -8 -16 -17 -2 -31 -2 -31 -29 -98 -67 -170 -66
-169 -137 -213 -50 -32 -83 -69 -83 -93 0 -7 11 -27 26 -46 21 -28 31 -33 65
-33 45 0 50 -11 14 -30 -14 -7 -25 -21 -25 -30 0 -9 -20 -37 -45 -62 -46 -47
-53 -62 -35 -73 6 -3 10 -17 10 -31 0 -28 38 -67 107 -111 136 -86 243 -368
230 -609 -8 -150 -22 -212 -61 -285 -59 -109 -140 -169 -229 -169 -15 0 -40
-6 -55 -14 -15 -7 -61 -17 -104 -21 -66 -6 -77 -4 -86 11 -11 20 -42 13 -42
-9 0 -8 25 -36 56 -62 54 -46 59 -48 111 -46 120 5 249 68 389 191 90 78 99
87 117 114 17 25 20 26 36 12 22 -20 75 -22 68 -2 -3 7 0 19 6 26 10 10 6 11
-15 6 -25 -6 -29 -2 -43 31 -14 33 -14 41 -1 68 8 16 17 56 20 87 4 47 1 59
-15 74 -23 20 -27 69 -5 61 11 -4 17 7 25 41 10 47 1 82 -21 82 -6 0 -4 8 5
18 10 10 17 35 17 54 0 30 -3 35 -18 31 -16 -4 -21 4 -31 44 -22 86 -38 120
-86 187 -65 91 -124 148 -187 180 -81 42 -121 79 -113 106 23 72 161 79 252
13 17 -13 38 -23 45 -23 27 0 76 -39 106 -85 17 -26 40 -54 51 -62 18 -12 22
-11 42 17 27 36 35 37 66 8 19 -18 35 -22 86 -21 72 0 136 25 192 74 39 35 85
118 85 154 0 12 5 26 12 33 6 6 10 13 7 15 -59 45 -59 46 -117 40 -82 -8 -89
-23 -11 -23 51 0 70 -4 82 -18 17 -19 23 -68 9 -74 -4 -1 -21 -20 -36 -41 -16
-21 -37 -42 -46 -47 -14 -8 -16 -5 -12 15 9 47 -6 74 -53 96 -25 12 -45 24
-45 26 0 3 8 12 18 19 9 7 12 14 6 14 -6 0 -17 -6 -23 -14 -7 -8 -35 -23 -63
-33 -34 -12 -64 -33 -91 -63 l-40 -45 -50 48 c-49 47 -113 87 -139 87 -7 0
-34 11 -59 24 -26 12 -56 26 -68 29 -35 9 -24 39 34 97 31 30 67 72 81 93 24
37 26 37 73 31 58 -8 137 25 201 82 46 42 48 55 19 140 -24 70 -61 114 -119
141 -35 16 -54 43 -31 43 15 0 81 68 91 94 19 50 -17 128 -126 271 -29 39 -62
78 -73 87 -48 40 -13 71 64 56 28 -5 77 -13 110 -17 33 -5 71 -13 85 -19 19
-7 34 -5 62 9 52 27 251 26 411 -1 150 -25 159 -25 207 5 38 24 46 25 202 25
183 0 176 3 206 -84 18 -52 31 -63 97 -85 81 -27 87 -15 54 111 -7 27 -10 50
-7 53 2 3 94 1 204 -5 209 -9 822 -20 1502 -24 l403 -3 -6 41 c-28 187 -49
287 -66 320 -13 25 -17 42 -11 48 16 16 -63 303 -144 524 l-45 121 -72 6 c-40
3 -85 11 -102 18 l-30 14 47 3 c26 2 70 -4 98 -12 27 -8 50 -13 50 -10 0 14
-130 296 -182 394 -715 1347 -2051 2278 -3628 2529 -283 45 -394 53 -780 56
-206 1 -393 1 -415 -1z m1342 -267 c30 -22 31 -23 16 -52 -9 -17 -32 -49 -52
-72 -74 -86 -81 -97 -81 -121 0 -17 -18 -42 -57 -81 -32 -30 -67 -60 -77 -66
-11 -5 -34 -30 -51 -55 -17 -25 -43 -51 -58 -58 -15 -7 -27 -17 -27 -21 0 -24
-57 -59 -129 -81 -59 -17 -78 -27 -71 -35 12 -15 -2 -32 -58 -71 -122 -83
-156 -97 -199 -83 -19 6 -48 8 -65 5 -17 -3 -50 1 -76 9 -36 13 -51 13 -80 4
-19 -6 -56 -13 -81 -14 -25 -2 -68 -8 -96 -14 -27 -5 -70 -10 -95 -10 -26 -1
-51 -6 -58 -13 -6 -6 -40 -13 -74 -14 -60 -3 -65 -5 -98 -43 l-35 -40 -170 -2
c-115 -2 -177 1 -192 9 -27 15 -70 16 -78 2 -4 -6 -14 -9 -23 -8 -12 2 -18 -5
-20 -22 -2 -19 9 -38 38 -70 22 -24 41 -41 43 -39 1 2 11 20 21 40 l18 35 100
1 c55 0 119 6 144 13 29 8 48 9 56 3 20 -16 85 -3 110 22 18 18 39 24 103 30
43 4 91 12 105 17 14 6 61 10 105 9 66 -2 90 2 137 23 47 21 68 24 129 22 41
-2 94 -9 119 -16 60 -16 106 -8 166 29 28 17 58 31 67 31 18 0 47 -37 47 -61
0 -9 9 -24 19 -33 11 -10 23 -31 26 -48 11 -48 -24 -76 -145 -115 -13 -4 -13
-5 0 -13 22 -12 163 16 220 44 47 23 137 108 190 181 24 33 90 106 147 162 59
58 103 110 103 121 0 10 13 30 29 45 16 14 41 46 56 71 14 25 35 48 47 52 15
4 18 11 13 27 -14 47 -12 52 25 48 62 -6 73 -30 46 -106 -8 -22 -17 -52 -20
-66 -3 -14 -19 -42 -35 -63 -17 -21 -40 -65 -53 -98 -26 -68 -54 -101 -117
-138 -33 -19 -49 -38 -68 -80 -31 -70 -48 -88 -103 -112 -55 -24 -85 -50 -101
-91 -22 -57 -48 -77 -96 -77 -25 0 -67 -10 -94 -21 -33 -15 -59 -19 -80 -15
-23 4 -48 -2 -92 -21 -62 -28 -95 -31 -188 -18 -37 5 -55 2 -88 -15 -23 -11
-71 -24 -107 -27 -48 -4 -70 -12 -87 -28 -39 -39 -85 -46 -164 -22 l-70 20
-67 -33 c-66 -32 -69 -32 -128 -20 -59 11 -61 11 -135 -24 -87 -42 -138 -46
-193 -15 l-37 21 -41 -21 c-26 -13 -60 -21 -92 -21 -45 0 -54 4 -90 40 -49 49
-50 75 -6 125 27 30 33 43 25 56 -16 30 -10 59 16 85 23 23 25 31 19 70 -6 43
-13 52 -93 116 -29 24 -31 105 -2 116 33 12 101 105 117 159 18 60 48 103 74
103 24 0 130 90 130 110 0 24 52 70 79 70 14 0 25 -7 28 -20 6 -23 28 -27 37
-5 3 8 1 15 -4 15 -32 0 8 55 45 62 13 2 25 17 33 43 23 70 64 95 99 60 23
-24 48 -14 51 20 3 30 52 75 82 75 7 0 22 8 32 17 21 19 84 21 101 4 14 -14
54 -14 62 -1 3 6 26 10 50 10 24 0 47 -4 50 -10 10 -17 56 -11 92 11 32 20 38
21 76 8 51 -16 164 -12 192 7 35 25 90 15 90 -16 0 -9 11 -16 29 -18 25 -3 28
-1 23 18 -12 45 77 92 111 58 9 -9 24 -8 64 1 76 19 103 13 103 -22 -1 -34 28
-34 33 1 2 14 14 27 29 33 33 12 53 5 53 -20 0 -10 7 -21 15 -25 15 -5 45 18
45 35 0 15 61 38 101 39 21 0 47 -9 66 -23z m-197 -3 c0 -8 -4 -12 -10 -9 -5
3 -10 10 -10 16 0 5 5 9 10 9 6 0 10 -7 10 -16z m270 -44 c-19 -12 -35 3 -26
26 6 17 8 17 24 0 15 -15 15 -18 2 -26z m-34 -257 c-11 -11 -19 6 -11 24 8 17
8 17 12 0 3 -10 2 -21 -1 -24z m-201 -213 c-3 -5 -10 -10 -16 -10 -5 0 -9 5
-9 10 0 6 7 10 16 10 8 0 12 -4 9 -10z m819 -271 c25 -20 37 -69 16 -69 -5 0
-10 5 -10 10 0 6 -7 10 -15 10 -19 0 -20 -19 -1 -26 8 -3 17 -17 21 -32 4 -15
10 -21 12 -14 6 15 29 16 38 1 4 -5 2 -23 -5 -38 -10 -26 -16 -29 -82 -34 -54
-5 -76 -3 -94 10 -13 8 -24 19 -24 23 0 5 25 20 55 34 52 24 55 27 55 62 l0
37 -40 -7 c-46 -7 -47 9 -2 37 35 22 44 21 76 -4z m146 -129 c0 -5 -2 -10 -4
-10 -3 0 -8 5 -11 10 -3 6 -1 10 4 10 6 0 11 -4 11 -10z m124 -36 c23 -9 20
-17 -14 -54 -32 -34 -53 -34 -32 0 7 11 12 29 12 40 0 21 8 24 34 14z m-446
-56 c-9 -7 -7 -8 9 -5 30 7 36 -17 13 -55 -10 -18 -22 -55 -25 -83 -4 -27 -14
-61 -23 -75 -9 -14 -15 -30 -14 -36 4 -18 -94 -27 -126 -12 -22 11 -28 21 -30
54 -2 28 2 45 13 54 8 7 15 21 15 31 0 10 10 34 22 55 17 29 19 40 10 55 -26
41 -17 48 57 42 52 -4 70 -2 77 8 7 11 9 10 12 -5 2 -10 -2 -23 -10 -28z m272
-72 c0 -2 -7 -6 -15 -10 -8 -3 -15 -1 -15 4 0 6 7 10 15 10 8 0 15 -2 15 -4z
m-4915 -88 c-4 -13 -10 -58 -14 -100 -3 -42 -10 -80 -14 -84 -11 -11 -40 8
-54 37 -20 38 -75 22 -94 -28 -10 -26 -37 -31 -45 -8 -3 8 2 31 13 52 15 33
23 38 53 39 58 2 60 3 60 24 0 25 59 88 84 89 15 1 17 -3 11 -21z m236 -51
c-39 -97 -63 -138 -79 -135 -25 5 -29 98 -6 134 21 31 53 45 76 33 13 -7 15
-15 9 -32z m-508 0 c13 -39 0 -114 -24 -138 -23 -23 -33 -24 -53 -3 -19 18
-13 84 10 121 8 12 14 30 14 38 0 28 42 13 53 -18z m4841 -102 c20 -8 36 -20
36 -26 0 -18 -20 -49 -32 -49 -6 0 -31 -16 -54 -36 -24 -19 -48 -32 -54 -29
-25 15 -8 96 28 138 19 21 29 21 76 2z m-1444 -10 c14 -8 44 -24 68 -35 44
-22 53 -43 25 -58 -12 -7 -29 -4 -57 8 -23 10 -59 23 -81 30 -47 14 -85 37
-85 49 0 22 95 27 130 6z m-1605 -130 c0 -51 -3 -60 -19 -63 -16 -3 -18 0 -11
19 19 62 18 79 -4 79 -23 0 -29 15 -8 23 33 14 42 2 42 -58z m-68 -42 c-10 -9
-50 35 -42 47 4 7 14 1 27 -15 11 -14 18 -29 15 -32z m1046 -30 c-7 -2 -19 -2
-25 0 -7 3 -2 5 12 5 14 0 19 -2 13 -5z m717 3 c0 -3 -4 -8 -10 -11 -5 -3 -10
-1 -10 4 0 6 5 11 10 11 6 0 10 -2 10 -4z m-1743 -38 c-3 -8 -6 -5 -6 6 -1 11
2 17 5 13 3 -3 4 -12 1 -19z m1383 -38 c0 -5 -7 -10 -15 -10 -8 0 -15 5 -15
10 0 6 7 10 15 10 8 0 15 -4 15 -10z m4398 -294 c12 -16 18 -39 18 -62 -2 -32
-6 -39 -26 -44 -22 -5 -25 -11 -23 -51 1 -24 2 -62 3 -84 1 -22 6 -43 12 -46
6 -4 7 -12 4 -18 -10 -15 -98 -14 -118 2 -30 24 -47 237 -18 237 5 0 12 9 15
20 3 11 15 20 26 20 14 0 19 -7 19 -28 0 -49 52 -74 63 -31 9 33 -9 69 -34 69
-21 0 -22 1 -4 20 24 26 39 25 63 -4z m-4492 -83 c-10 -26 -29 1 -21 28 7 20
8 21 17 5 5 -9 7 -24 4 -33z m-313 10 c-9 -24 -34 -42 -56 -43 -24 0 -10 26
24 45 33 18 39 18 32 -2z m-2043 -107 c0 -10 -33 -36 -46 -36 -21 0 -17 16 9
28 24 12 37 14 37 8z m1860 -76 l67 -70 7 -86 c4 -62 3 -93 -7 -112 -12 -25
-17 -27 -71 -25 -33 1 -69 9 -82 18 -14 9 -30 13 -37 8 -11 -6 -78 -60 -170
-135 -71 -59 -78 -61 -247 -55 -85 3 -163 8 -174 13 -17 6 -18 15 -12 76 4 40
1 106 -6 153 -17 118 -15 119 124 111 60 -3 156 -9 216 -12 l107 -6 100 96
c55 52 104 96 109 96 5 0 39 -32 76 -70z m-2895 -20 c-3 -5 -12 -10 -20 -10
-8 0 -17 5 -20 10 -4 6 5 10 20 10 15 0 24 -4 20 -10z m6416 -39 c5 -6 -7
-189 -17 -258 -3 -18 -9 -33 -14 -33 -12 0 -94 55 -107 72 -14 18 -23 214 -10
227 10 10 137 4 148 -8z m207 -75 c3 -32 1 -36 -20 -36 -30 0 -48 17 -48 45 0
58 63 50 68 -9z m-6394 8 c3 -8 2 -14 -2 -14 -10 0 -32 22 -32 32 0 12 28 -2
34 -18z m6577 8 c26 -22 20 -52 -9 -52 -27 0 -45 25 -37 50 8 25 16 25 46 2z
m612 -26 c59 -2 110 -6 114 -10 4 -4 12 -21 18 -39 7 -24 17 -33 40 -38 l30
-5 -32 -20 c-32 -18 -33 -21 -33 -85 0 -64 -2 -68 -39 -107 -22 -22 -51 -48
-65 -57 -77 -51 8 -79 239 -80 126 0 130 -1 133 -22 2 -16 -3 -22 -20 -25 -18
-2 -24 -11 -29 -41 -8 -48 -12 -51 -50 -38 l-31 11 6 -35 c6 -30 4 -35 -12
-35 -11 0 -22 -7 -26 -15 -3 -8 -12 -15 -20 -15 -17 0 -32 -42 -21 -59 7 -12
6 -12 -57 -13 -36 -1 -43 2 -46 20 -4 23 -32 20 -32 -4 0 -21 -56 -26 -200
-15 -74 6 -178 11 -231 11 -84 0 -98 3 -114 20 -13 14 -22 17 -29 10 -13 -13
-43 -13 -51 1 -4 6 3 21 16 35 l22 24 -31 0 c-33 0 -52 -21 -52 -59 0 -26 -15
-34 -40 -21 -27 15 -26 54 3 68 l22 11 -22 0 c-12 1 -23 -5 -26 -11 -3 -10 -9
-10 -29 1 -29 15 -68 7 -68 -14 0 -8 -10 -26 -23 -41 -18 -20 -29 -25 -45 -20
-23 8 -30 40 -12 51 21 13 9 21 -26 17 -27 -3 -39 0 -46 12 -10 18 -39 21 -55
5 -14 -14 -43 42 -43 83 0 37 15 36 35 -3 14 -25 19 -28 31 -18 8 7 14 24 12
38 l-3 26 235 0 c205 0 235 2 238 16 1 8 -8 27 -21 41 -22 24 -28 25 -198 32
-206 8 -201 5 -197 111 l3 70 45 7 c25 4 123 7 217 7 95 0 177 3 183 6 6 3 10
51 10 109 0 56 3 106 8 111 4 4 75 4 157 0 83 -3 198 -8 258 -9z m-7039 -43
c10 -25 -7 -35 -48 -28 -33 7 -45 22 -29 38 14 14 71 7 77 -10z m-94 -28 c0
-8 -9 -15 -20 -15 -11 0 -20 7 -20 15 0 8 9 15 20 15 11 0 20 -7 20 -15z
m6240 -46 c9 -15 8 -24 0 -34 -17 -21 -50 -1 -50 30 0 32 34 34 50 4z m-4473
-21 c-3 -8 -6 -5 -6 6 -1 11 2 17 5 13 3 -3 4 -12 1 -19z m5791 1 c11 -18 11
-24 -4 -40 -30 -34 -95 2 -74 41 15 27 61 27 78 -1z m-118 -6 c0 -10 -4 -14
-8 -8 -4 6 -11 13 -16 18 -5 4 -2 7 7 7 10 0 17 -8 17 -17z m-98 -27 c-4 -34
-32 -60 -32 -31 0 8 5 15 11 15 5 0 9 8 8 18 -2 25 0 32 9 32 4 0 6 -15 4 -34z
m690 7 c28 -25 23 -53 -9 -53 -34 0 -62 25 -56 51 7 24 40 25 65 2z m-591 -23
c26 -14 24 -30 -4 -30 -29 0 -37 7 -30 26 6 17 9 17 34 4z m239 -33 c0 -4 -3
-6 -7 -4 -5 2 -16 7 -26 10 -10 4 -16 11 -12 17 7 11 45 -9 45 -23z m81 8 c0
-5 -7 -12 -16 -13 -23 -5 -47 6 -40 19 8 13 56 8 56 -6z m-1691 -45 c0 -5 -2
-10 -4 -10 -3 0 -8 5 -11 10 -3 6 -1 10 4 10 6 0 11 -4 11 -10z m1770 -49 c3
-4 31 -20 62 -36 l57 -30 -21 -22 c-12 -13 -29 -23 -39 -23 -9 0 -19 -10 -22
-22 l-6 -22 -25 23 c-20 19 -29 21 -39 13 -20 -17 -23 -9 -19 43 3 38 6 44 18
34 11 -9 14 -7 14 10 0 12 -6 21 -15 21 -8 0 -15 6 -15 14 0 10 7 12 23 8 12
-3 24 -8 27 -11z m-1744 -19 c24 -16 79 -157 67 -175 -6 -11 -56 79 -79 145
-13 37 -10 45 12 30z m-16 -188 c11 -39 22 -78 26 -87 12 -32 -27 -33 -53 -1
-26 33 -28 46 -12 72 9 14 8 33 -3 78 -9 32 -13 65 -10 72 6 16 24 -32 52
-134z m-98 42 c13 -25 14 -43 7 -72 -4 -22 -9 -58 -9 -82 0 -60 -22 -50 -33
14 -9 52 -1 174 12 174 4 0 15 -15 23 -34z m-55 -101 c0 -8 -4 -12 -9 -9 -4 3
-8 9 -8 15 0 5 4 9 8 9 5 0 9 -7 9 -15z m-461 -36 c23 -6 68 -9 100 -7 l59 3
3 -33 c2 -18 -1 -39 -7 -46 -10 -12 -16 -75 -9 -109 2 -15 -29 -40 -135 -109
l-137 -90 -72 13 c-70 14 -71 15 -85 54 -10 27 -13 63 -9 110 8 115 25 218 37
225 15 10 206 1 255 -11z m314 -28 c17 -33 12 -51 -14 -51 -30 0 -50 23 -41
50 8 25 41 26 55 1z m1890 -23 c27 -29 23 -62 -8 -66 -43 -6 -71 45 -40 76 17
17 24 15 48 -10z m-200 -20 c21 -22 27 -58 10 -58 -26 0 -60 25 -60 45 0 40
19 46 50 13z m315 -41 c3 -12 9 -124 12 -248 6 -257 5 -265 -57 -275 -25 -4
-40 -12 -40 -21 0 -7 -8 -17 -17 -20 -10 -4 -21 -11 -25 -16 -4 -7 -17 -6 -37
3 -17 7 -40 10 -51 7 -10 -3 -24 1 -30 8 -15 18 -16 121 -2 138 6 7 41 19 77
27 37 8 68 17 71 22 3 4 16 8 29 8 39 0 43 42 24 236 -13 128 -9 165 20 157
11 -3 22 -15 26 -26z m266 -36 c27 -25 22 -65 -9 -69 -46 -7 -69 40 -36 72 19
20 21 20 45 -3z m195 -88 c-7 -130 -7 -131 -1 -185 3 -28 1 -48 -5 -48 -6 0
-10 3 -10 8 0 4 -5 44 -10 89 -7 52 -7 90 -1 106 6 15 7 47 2 76 -7 46 -6 51
11 51 17 0 18 -7 14 -97z m-346 65 c26 -28 26 -54 -1 -69 -41 -22 -93 30 -75
76 8 22 52 18 76 -7z m-422 -81 c2 -12 -3 -17 -17 -17 -15 0 -21 6 -21 21 0
25 33 22 38 -4z m-1475 -61 c3 -12 -30 -32 -39 -24 -11 12 5 40 21 36 9 -2 17
-7 18 -12z m395 2 c7 -7 12 -21 12 -31 0 -16 5 -18 27 -14 18 3 37 -2 55 -14
18 -13 35 -18 53 -13 41 10 95 -54 95 -114 0 -21 7 -32 25 -40 17 -8 25 -20
25 -37 0 -32 -25 -43 -48 -22 -18 17 -95 13 -118 -5 -7 -5 -30 -6 -53 -2 -27
4 -46 2 -56 -6 -12 -10 -18 -10 -31 1 -20 16 -33 -2 -34 -46 -1 -24 -2 -27
-10 -13 -6 9 -23 19 -38 23 -44 9 -102 91 -92 130 2 6 4 34 6 64 3 59 10 67
66 76 30 5 41 14 54 41 17 35 41 43 62 22z m369 -103 c1 -109 -3 -139 -17
-130 -10 6 -24 221 -15 235 4 6 12 9 18 7 8 -2 13 -40 14 -112z m-99 83 c22
-28 23 -57 3 -67 -42 -23 -78 24 -45 60 20 22 28 24 42 7z m-1138 -22 c0 -3
-4 -8 -10 -11 -5 -3 -10 -1 -10 4 0 6 5 11 10 11 6 0 10 -2 10 -4z m1666 -44
c6 -20 24 -42 43 -54 47 -30 60 -63 47 -120 -16 -71 -31 -82 -100 -69 -37 7
-65 7 -82 1 -17 -7 -32 -7 -44 0 -11 6 -36 8 -57 4 -31 -5 -42 -2 -57 14 -42
47 -39 149 5 173 11 5 24 21 29 35 11 27 41 32 64 9 8 -8 21 -15 30 -15 8 0
18 -5 21 -10 10 -16 25 -1 25 24 0 55 59 61 76 8z m-2266 -7 c0 -19 5 -35 10
-35 6 0 10 -15 10 -32 l-1 -33 -13 35 c-7 19 -18 47 -24 61 -10 26 -7 39 10
39 4 0 8 -16 8 -35z m-673 -42 c-3 -10 -5 -2 -5 17 0 19 2 27 5 18 2 -10 2
-26 0 -35z m609 10 c9 -15 21 -44 25 -63 20 -94 38 -150 64 -197 16 -29 33
-53 37 -53 4 0 8 -7 8 -15 0 -9 10 -15 23 -16 14 -1 17 -3 6 -6 -9 -2 -33 5
-54 17 -34 19 -37 19 -30 3 25 -61 6 -71 -50 -28 -28 20 -105 156 -105 183 0
4 -18 38 -40 76 -22 37 -37 72 -34 78 9 15 55 29 75 23 10 -3 22 -18 28 -33
10 -24 11 -22 6 16 -6 50 13 57 41 15z m-530 -108 c-4 -103 -16 -108 -16 -7 0
45 4 82 9 82 5 0 8 -34 7 -75z m338 29 c9 -3 16 -15 16 -25 0 -10 5 -19 10
-19 6 0 10 -7 10 -15 0 -8 5 -15 12 -15 6 0 8 -3 5 -7 -10 -9 -57 37 -58 56 0
11 -2 12 -6 4 -5 -14 -33 -18 -33 -5 0 7 20 32 26 32 1 0 9 -3 18 -6z m3555
-20 c63 -53 24 -144 -49 -114 -50 21 -65 74 -34 118 20 29 46 28 83 -4z
m-1335 0 c22 -9 22 -92 0 -101 -24 -9 -63 14 -70 41 -12 48 23 78 70 60z
m-7944 -99 c0 -8 -7 -15 -15 -15 -8 0 -15 7 -15 15 0 8 7 15 15 15 8 0 15 -7
15 -15z m4400 2 c0 -8 -9 -22 -20 -32 -18 -16 -20 -16 -26 -1 -3 9 -4 23 0 31
7 19 46 20 46 2z m2576 -11 c17 -16 27 -83 14 -91 -18 -11 -59 4 -70 25 -6 11
-12 36 -14 55 -2 33 -1 34 28 28 17 -3 36 -11 42 -17z m174 -31 c7 -9 10 -19
6 -22 -8 -9 -38 9 -44 25 -5 17 23 15 38 -3z m1586 -39 c20 -21 18 -48 -3 -44
-11 2 -19 14 -21 31 -4 30 3 34 24 13z m208 6 c2 -4 1 -14 -4 -22 -7 -11 -14
-12 -27 -4 -27 17 -27 34 1 34 13 0 27 -4 30 -8z m-1359 -21 c7 -23 -3 -51
-20 -51 -7 0 -16 7 -19 16 -9 23 2 54 19 54 8 0 16 -8 20 -19z m-2721 -7 c18
-17 21 -50 6 -59 -18 -11 -50 6 -56 30 -11 43 19 60 50 29z m364 -42 c3 -22
-21 -35 -49 -27 -21 7 -35 46 -25 71 5 14 10 14 39 -5 17 -11 33 -29 35 -39z
m291 15 c25 -19 54 -37 63 -40 23 -8 70 -84 65 -105 -3 -13 -6 -12 -15 8 -11
28 -79 100 -93 100 -16 0 -89 50 -89 60 0 18 22 11 69 -23z m-839 9 c18 -23 8
-61 -17 -64 -26 -4 -50 35 -40 62 8 20 41 21 57 2z m3440 -31 c0 -16 -9 -19
-35 -9 -13 5 -14 8 -3 15 20 13 38 11 38 -6z m-843 -97 c-3 -8 -6 -5 -6 6 -1
11 2 17 5 13 3 -3 4 -12 1 -19z m-1607 -112 c-7 -7 -10 4 -9 30 1 39 1 39 10
9 5 -18 5 -33 -1 -39z m80 -253 c8 -21 16 -41 18 -45 2 -5 -1 -8 -7 -8 -6 0
-11 9 -11 19 0 11 -4 21 -9 23 -12 4 -24 48 -14 48 5 0 15 -17 23 -37z m-188
-653 c-28 -32 -52 -39 -52 -16 0 16 38 45 62 45 13 1 11 -5 -10 -29z m736
-206 c45 -32 21 -94 -37 -94 -22 0 -29 24 -11 35 6 3 10 14 10 23 -1 13 -6 10
-25 -11 -27 -31 -24 -41 24 -66 21 -12 22 -15 8 -28 -22 -22 -121 -9 -147 20
-24 25 -24 30 -4 68 28 56 134 87 182 53z"/>
<path d="M4941 9179 c-9 -26 3 -41 26 -32 17 7 17 28 -2 43 -12 10 -16 8 -24
-11z"/>
<path d="M4770 9166 c-12 -32 0 -49 27 -39 17 7 17 24 -1 49 -14 18 -15 18
-26 -10z"/>
<path d="M5130 9180 c0 -5 5 -10 10 -10 6 0 10 5 10 10 0 6 -4 10 -10 10 -5 0
-10 -4 -10 -10z"/>
<path d="M5650 9180 c0 -5 9 -14 20 -20 17 -9 20 -8 20 10 0 13 -7 20 -20 20
-11 0 -20 -4 -20 -10z"/>
<path d="M4586 9173 c-12 -13 -6 -53 9 -53 9 0 15 9 15 24 0 26 -12 40 -24 29z"/>
<path d="M5495 9019 c-4 -5 1 -19 11 -30 17 -19 19 -19 31 -3 9 13 10 21 2 31
-14 16 -35 17 -44 2z"/>
<path d="M4295 9000 c-8 -13 4 -32 16 -25 12 8 12 35 0 35 -6 0 -13 -4 -16
-10z"/>
<path d="M5410 8915 c-9 -11 -8 -19 3 -35 13 -19 16 -20 30 -5 18 17 13 40 -8
49 -7 2 -19 -1 -25 -9z"/>
<path d="M4465 8880 c-45 -46 -41 -62 7 -32 18 11 50 23 71 27 42 8 44 12 20
31 -30 23 -57 16 -98 -26z"/>
<path d="M5300 8846 c0 -29 17 -43 33 -27 8 8 9 16 1 28 -17 27 -34 27 -34 -1z"/>
<path d="M5157 8843 c-9 -8 -9 -48 -1 -56 9 -9 34 3 34 17 -1 17 -26 47 -33
39z"/>
<path d="M4081 8818 c-10 -26 7 -42 33 -32 22 9 20 31 -4 44 -17 9 -22 7 -29
-12z"/>
<path d="M4936 8814 c-4 -9 -13 -14 -21 -10 -24 9 -18 -23 8 -45 12 -10 30
-18 39 -19 25 0 32 37 14 65 -19 29 -31 32 -40 9z"/>
<path d="M4740 8784 c0 -3 5 -14 10 -24 13 -23 40 -16 40 11 0 14 -7 19 -25
19 -14 0 -25 -3 -25 -6z"/>
<path d="M4552 8760 c-18 -29 -15 -37 14 -44 34 -9 48 5 40 38 -8 31 -36 34
-54 6z"/>
<path d="M4373 8719 c3 -12 0 -22 -9 -26 -20 -8 -17 -23 5 -23 29 0 45 25 31
49 -14 27 -34 27 -27 0z"/>
<path d="M3970 8710 c0 -11 -4 -20 -10 -20 -5 0 -10 -4 -10 -10 0 -5 11 -10
25 -10 25 0 31 13 19 44 -9 23 -24 20 -24 -4z"/>
<path d="M4151 8694 c-17 -47 -1 -68 29 -36 25 26 25 34 2 55 -17 16 -19 14
-31 -19z"/>
<path d="M5155 8211 c-9 -16 18 -23 46 -12 16 6 18 10 7 10 -9 1 -23 4 -31 7
-8 3 -18 1 -22 -5z"/>
<path d="M5020 8180 c0 -11 14 -11 50 0 22 7 21 8 -12 9 -21 1 -38 -3 -38 -9z"/>
<path d="M4837 8153 c18 -2 50 -2 70 0 21 2 7 4 -32 4 -38 0 -55 -2 -38 -4z"/>
<path d="M4708 8133 c7 -3 16 -2 19 1 4 3 -2 6 -13 5 -11 0 -14 -3 -6 -6z"/>
<path d="M4763 8133 c9 -2 23 -2 30 0 6 3 -1 5 -18 5 -16 0 -22 -2 -12 -5z"/>
<path d="M4378 8083 c17 -2 47 -2 65 0 17 2 3 4 -33 4 -36 0 -50 -2 -32 -4z"/>
<path d="M4268 8063 c6 -2 18 -2 25 0 6 3 1 5 -13 5 -14 0 -19 -2 -12 -5z"/>
<path d="M3968 8013 c7 -3 16 -2 19 1 4 3 -2 6 -13 5 -11 0 -14 -3 -6 -6z"/>
<path d="M6337 8253 c-4 -3 -7 -11 -7 -17 0 -6 5 -5 12 2 6 6 9 14 7 17 -3 3
-9 2 -12 -2z"/>
<path d="M3944 7095 c-4 -8 -3 -23 0 -32 6 -15 8 -15 23 -1 16 17 12 48 -7 48
-6 0 -13 -7 -16 -15z"/>
<path d="M3406 6782 c-2 -4 0 -14 5 -22 8 -13 10 -13 18 0 10 15 6 30 -9 30
-5 0 -11 -4 -14 -8z"/>
<path d="M3640 6770 c0 -11 5 -20 10 -20 6 0 10 9 10 20 0 11 -4 20 -10 20 -5
0 -10 -9 -10 -20z"/>
<path d="M7505 6990 c3 -5 8 -10 11 -10 2 0 4 5 4 10 0 6 -5 10 -11 10 -5 0
-7 -4 -4 -10z"/>
<path d="M7430 6890 c0 -11 4 -20 9 -20 11 0 22 26 14 34 -12 12 -23 5 -23
-14z"/>
<path d="M8240 6840 c0 -11 5 -20 10 -20 6 0 10 9 10 20 0 11 -4 20 -10 20 -5
0 -10 -9 -10 -20z"/>
<path d="M8527 6834 c-9 -10 4 -34 19 -34 8 0 14 9 14 20 0 19 -19 27 -33 14z"/>
<path d="M7982 6688 c5 -15 28 -18 29 -3 0 6 -7 12 -17 13 -10 3 -15 -1 -12
-10z"/>
<path d="M8120 6690 c0 -5 5 -10 10 -10 6 0 10 5 10 10 0 6 -4 10 -10 10 -5 0
-10 -4 -10 -10z"/>
<path d="M8505 6660 c3 -5 8 -10 11 -10 2 0 4 5 4 10 0 6 -5 10 -11 10 -5 0
-7 -4 -4 -10z"/>
<path d="M8541 6507 c-9 -11 -8 -17 3 -26 10 -9 15 -8 19 2 9 23 -8 41 -22 24z"/>
<path d="M8666 6465 c-11 -30 -6 -54 13 -64 25 -14 44 8 39 46 -3 32 -41 45
-52 18z"/>
<path d="M8805 6470 c3 -5 10 -10 16 -10 5 0 9 5 9 10 0 6 -7 10 -16 10 -8 0
-12 -4 -9 -10z"/>
<path d="M7917 6454 c-7 -7 1 -33 17 -52 8 -11 12 -11 23 3 20 29 -15 73 -40
49z"/>
<path d="M7845 6400 c-3 -5 3 -10 14 -10 12 0 21 5 21 10 0 6 -6 10 -14 10 -8
0 -18 -4 -21 -10z"/>
<path d="M8523 6359 c-30 -30 -6 -87 29 -68 23 12 23 31 1 58 -15 18 -20 20
-30 10z"/>
<path d="M8244 6346 c-6 -16 12 -56 26 -56 15 0 22 20 16 46 -7 26 -33 33 -42
10z"/>
<path d="M6772 6314 c4 -21 22 -23 26 -1 2 10 -3 17 -13 17 -10 0 -15 -6 -13
-16z"/>
<path d="M6875 6310 c-8 -13 14 -52 26 -45 15 10 11 55 -5 55 -8 0 -18 -4 -21
-10z"/>
<path d="M6650 6156 c0 -29 10 -38 29 -27 10 7 10 13 2 30 -16 28 -31 27 -31
-3z"/>
<path d="M6351 5654 c0 -11 3 -14 6 -6 3 7 2 16 -1 19 -3 4 -6 -2 -5 -13z"/>
<path d="M1078 7823 c7 -3 16 -2 19 1 4 3 -2 6 -13 5 -11 0 -14 -3 -6 -6z"/>
<path d="M2950 7750 c0 -5 5 -10 11 -10 5 0 7 5 4 10 -3 6 -8 10 -11 10 -2 0
-4 -4 -4 -10z"/>
<path d="M2600 7735 c0 -8 7 -15 15 -15 8 0 15 4 15 9 0 5 -7 11 -15 15 -9 3
-15 0 -15 -9z"/>
<path d="M3086 7741 c-9 -14 4 -41 21 -41 9 0 13 8 11 22 -3 23 -23 35 -32 19z"/>
<path d="M6250 7655 c-17 -20 1 -41 42 -50 40 -9 55 6 40 40 -13 29 -61 35
-82 10z m57 -21 c-3 -3 -12 -4 -19 -1 -8 3 -5 6 6 6 11 1 17 -2 13 -5z"/>
<path d="M3877 7646 c-3 -8 -2 -18 3 -21 13 -8 24 15 12 27 -6 6 -11 4 -15 -6z"/>
<path d="M3925 7630 c3 -5 12 -7 20 -3 21 7 19 13 -6 13 -11 0 -18 -4 -14 -10z"/>
<path d="M3468 7607 c-5 -27 0 -47 13 -47 5 0 9 16 9 35 0 39 -15 48 -22 12z"/>
<path d="M3522 7604 c4 -21 22 -23 26 -1 2 10 -3 17 -13 17 -10 0 -15 -6 -13
-16z"/>
<path d="M2622 7570 c0 -14 2 -19 5 -12 2 6 2 18 0 25 -3 6 -5 1 -5 -13z"/>
<path d="M963 7572 c-86 -3 -93 -4 -113 -30 l-22 -27 259 -6 c826 -21 753 -24
843 26 60 33 38 35 -408 35 -242 0 -446 1 -454 3 -7 1 -54 1 -105 -1z"/>
<path d="M2214 7539 c-3 -6 -1 -16 5 -22 8 -8 11 -5 11 11 0 24 -5 28 -16 11z"/>
<path d="M4635 7538 c-10 -26 2 -55 17 -40 8 8 8 18 1 34 -10 21 -12 21 -18 6z"/>
<path d="M4711 7524 c0 -11 3 -14 6 -6 3 7 2 16 -1 19 -3 4 -6 -2 -5 -13z"/>
<path d="M3855 7520 c-3 -5 -1 -10 4 -10 6 0 11 5 11 10 0 6 -2 10 -4 10 -3 0
-8 -4 -11 -10z"/>
<path d="M5916 7492 c-2 -4 -1 -14 5 -22 7 -12 9 -10 9 8 0 23 -5 28 -14 14z"/>
<path d="M7076 7478 c-16 -79 -12 -110 18 -130 30 -20 37 -8 34 58 -3 56 -7
69 -25 81 -21 14 -22 13 -27 -9z"/>
<path d="M2718 7463 c12 -2 30 -2 40 0 9 3 -1 5 -23 4 -22 0 -30 -2 -17 -4z"/>
<path d="M2848 7463 c6 -2 18 -2 25 0 6 3 1 5 -13 5 -14 0 -19 -2 -12 -5z"/>
<path d="M3023 7443 c15 -2 39 -2 55 0 15 2 2 4 -28 4 -30 0 -43 -2 -27 -4z"/>
<path d="M2740 7424 c0 -8 5 -12 10 -9 6 4 8 11 5 16 -9 14 -15 11 -15 -7z"/>
<path d="M891 7414 c0 -11 3 -14 6 -6 3 7 2 16 -1 19 -3 4 -6 -2 -5 -13z"/>
<path d="M3807 7413 c-4 -3 -7 -21 -7 -40 0 -28 5 -35 36 -48 59 -25 75 -21
68 18 l-6 32 29 -34 29 -33 10 23 c7 14 8 33 3 47 -8 22 -18 26 -51 23 -9 -1
-19 3 -23 9 -10 16 -25 1 -25 -25 0 -13 -4 -27 -10 -30 -5 -3 -10 2 -10 13 0
21 -33 56 -43 45z"/>
<path d="M4630 7371 c-13 -26 -13 -31 5 -31 9 0 15 9 15 25 0 30 -6 32 -20 6z"/>
<path d="M5458 7368 l-48 -10 0 -42 c0 -23 -4 -46 -9 -51 -6 -6 -3 -24 7 -45
l17 -35 100 -2 c210 -4 214 -27 5 -33 -69 -2 -180 -4 -248 -5 -70 0 -122 -4
-122 -10 0 -5 12 -35 26 -66 l26 -56 192 -7 c105 -4 211 -9 235 -9 l44 -2 19
70 c10 39 25 84 32 100 25 54 47 128 42 140 -2 7 -26 16 -53 19 -57 8 -154 36
-167 48 -12 10 -36 9 -98 -4z m127 -48 c8 -25 -1 -40 -24 -40 -24 0 -43 23
-35 44 9 23 51 20 59 -4z"/>
<path d="M5870 7354 c0 -8 5 -12 10 -9 6 4 8 11 5 16 -9 14 -15 11 -15 -7z"/>
<path d="M2756 7332 c-3 -5 -3 -17 -1 -28 2 -10 4 -34 4 -51 1 -46 18 -41 26
7 9 55 -10 103 -29 72z"/>
<path d="M2882 7298 c2 -22 9 -34 21 -36 15 -3 18 2 15 30 -2 22 -9 34 -21 36
-15 3 -18 -2 -15 -30z"/>
<path d="M1151 7294 c0 -11 3 -14 6 -6 3 7 2 16 -1 19 -3 4 -6 -2 -5 -13z"/>
<path d="M3420 7266 c0 -8 5 -18 10 -21 6 -3 10 3 10 14 0 12 -4 21 -10 21 -5
0 -10 -6 -10 -14z"/>
<path d="M2875 7200 c3 -5 8 -10 11 -10 2 0 4 5 4 10 0 6 -5 10 -11 10 -5 0
-7 -4 -4 -10z"/>
<path d="M690 7191 c-34 -9 -5 -21 34 -14 20 4 24 8 14 14 -15 10 -13 10 -48
0z"/>
<path d="M5820 7190 c0 -5 5 -10 11 -10 5 0 7 5 4 10 -3 6 -8 10 -11 10 -2 0
-4 -4 -4 -10z"/>
<path d="M1385 7171 c-3 -5 -2 -12 3 -15 5 -3 9 1 9 9 0 17 -3 19 -12 6z"/>
<path d="M1858 7133 c7 -3 16 -2 19 1 4 3 -2 6 -13 5 -11 0 -14 -3 -6 -6z"/>
<path d="M4630 7065 c0 -44 23 -56 52 -28 29 29 16 63 -23 63 -27 0 -29 -3
-29 -35z"/>
<path d="M6557 7081 c-6 -24 3 -33 21 -22 9 5 9 11 -1 26 -13 17 -14 17 -20
-4z"/>
<path d="M6510 6986 c0 -15 7 -42 14 -61 15 -35 15 -35 83 -36 37 0 95 -4 128
-9 34 -4 64 -4 70 2 6 6 1 25 -15 56 -28 53 -32 54 -192 67 l-88 7 0 -26z"/>
<path d="M3169 6969 c-7 -14 -8 -24 -1 -31 15 -15 32 0 32 28 0 30 -15 31 -31
3z"/>
<path d="M5726 6932 c-2 -4 -1 -14 3 -21 6 -10 10 -9 14 3 6 16 -8 32 -17 18z"/>
<path d="M5292 6908 c-16 -16 -15 -55 1 -61 20 -7 47 12 47 33 0 25 -33 43
-48 28z"/>
<path d="M523 6864 c-8 -22 10 -49 33 -49 25 0 31 35 8 52 -24 17 -33 16 -41
-3z"/>
<path d="M4803 6863 c-17 -6 -16 -48 1 -62 21 -18 46 -2 46 29 0 28 -20 42
-47 33z"/>
<path d="M398 6775 c-8 -18 -8 -35 -1 -58 13 -44 7 -58 -22 -47 -22 8 -25 3
-75 -121 -44 -110 -100 -265 -100 -276 0 -2 27 24 61 58 48 48 64 59 82 53 30
-9 28 -9 60 4 30 13 37 42 9 42 -26 0 -47 37 -31 56 7 8 18 13 25 10 7 -3 30
9 50 25 21 16 47 29 58 27 12 -1 30 3 42 9 27 15 86 111 73 119 -6 4 -6 11 2
20 18 21 3 43 -42 64 -52 22 -88 12 -89 -26 0 -16 41 -25 57 -12 10 8 13 4 13
-18 0 -22 -3 -25 -12 -16 -19 19 -48 14 -68 -10 -17 -21 -19 -22 -25 -5 -5 11
-1 25 10 37 16 18 15 20 -16 54 -38 43 -46 44 -61 11z"/>
<path d="M7283 6700 c3 -11 1 -20 -4 -20 -5 0 -9 -7 -9 -15 0 -8 4 -15 10 -15
14 0 32 39 26 56 -8 22 -29 17 -23 -6z"/>
<path d="M5655 6680 c-10 -17 12 -37 25 -24 8 8 6 15 -4 23 -10 9 -16 9 -21 1z"/>
<path d="M6798 6674 c-5 -4 -8 -29 -8 -55 0 -45 2 -48 31 -54 18 -4 71 -9 118
-11 99 -4 128 -8 137 -17 15 -15 38 -6 66 25 33 38 46 77 29 88 -7 4 -67 10
-134 14 -67 4 -147 9 -177 12 -30 4 -58 3 -62 -2z"/>
<path d="M5537 6664 c-11 -11 -8 -52 3 -59 17 -10 41 16 38 39 -3 21 -28 33
-41 20z"/>
<path d="M4020 6646 c0 -20 13 -27 29 -16 11 6 9 10 -8 19 -17 10 -21 9 -21
-3z"/>
<path d="M4417 6633 c-11 -10 -8 -81 3 -88 16 -10 60 23 60 45 0 33 -44 63
-63 43z"/>
<path d="M2652 6622 c-18 -12 -26 -75 -13 -101 23 -41 61 -14 61 44 0 28 -16
65 -28 65 -4 0 -13 -4 -20 -8z"/>
<path d="M6715 6610 c3 -5 8 -10 11 -10 2 0 4 5 4 10 0 6 -5 10 -11 10 -5 0
-7 -4 -4 -10z"/>
<path d="M1646 6571 c-10 -15 5 -40 20 -34 18 7 18 43 0 43 -8 0 -17 -4 -20
-9z"/>
<path d="M4025 6570 c3 -6 34 -10 67 -10 76 0 72 5 -10 14 -41 4 -61 2 -57 -4z"/>
<path d="M2292 6549 c3 -23 33 -48 44 -37 3 4 4 19 0 33 -8 33 -49 36 -44 4z"/>
<path d="M7254 6562 c-12 -1 -32 -14 -45 -28 -17 -18 -33 -24 -66 -24 -48 0
-47 1 -31 -34 12 -28 50 -46 56 -27 7 22 34 42 64 48 31 6 67 49 52 62 -5 4
-19 5 -30 3z"/>
<path d="M4933 6514 c-7 -18 11 -39 26 -30 17 11 13 46 -4 46 -9 0 -18 -7 -22
-16z"/>
<path d="M5672 6472 c-5 -9 -12 -30 -16 -46 -7 -28 -8 -28 -59 -22 -79 9 -276
10 -284 2 -4 -4 -19 -31 -33 -59 -25 -52 -43 -64 -83 -53 -17 4 -22 13 -22 38
0 29 -3 33 -25 33 -21 0 -26 -5 -28 -32 -3 -31 -12 -39 -37 -33 -5 1 -75 2
-154 1 l-143 -1 16 24 c17 27 13 51 -9 60 -21 8 -44 -20 -38 -45 8 -29 -13
-40 -69 -37 -25 1 -53 -4 -61 -11 -20 -16 -23 -8 -31 69 -10 92 -16 120 -27
120 -7 0 -9 -53 -7 -140 3 -135 4 -141 25 -146 25 -7 38 -30 20 -37 -7 -2 -41
0 -77 5 -67 10 -615 16 -825 9 -159 -5 -190 5 -256 81 l-50 58 -267 -2 c-147
-1 -272 1 -277 4 -18 11 -80 -24 -139 -79 -31 -28 -56 -56 -56 -61 0 -15 90
-19 118 -5 13 7 33 13 43 13 11 0 28 5 39 12 15 10 22 9 38 -5 10 -9 29 -17
41 -17 12 0 32 -11 44 -24 22 -24 23 -24 155 -15 73 5 138 11 144 15 5 3 64 6
130 5 107 0 124 -3 143 -21 12 -11 25 -20 29 -20 13 0 66 -44 66 -55 0 -28 54
-35 283 -35 269 0 454 14 479 37 10 9 25 12 37 8 11 -3 47 -1 81 6 60 12 135
1 167 -23 30 -24 39 33 11 69 -17 21 -1 46 25 40 39 -10 628 -10 638 0 6 6 4
28 -6 58 -14 39 -14 49 -3 57 14 10 225 4 236 -7 3 -3 1 -24 -5 -47 -15 -55
-5 -81 14 -37 21 50 49 137 63 193 6 27 18 58 26 70 18 26 18 32 -1 40 -8 3
-19 -2 -23 -12z"/>
<path d="M3804 6465 c-7 -18 12 -45 32 -45 18 0 26 17 19 40 -7 23 -43 27 -51
5z"/>
<path d="M1705 6428 c-15 -38 -18 -41 -29 -25 -18 24 -28 21 -47 -12 -13 -23
-22 -27 -46 -24 -25 4 -31 1 -36 -18 -4 -14 0 -30 8 -39 24 -27 17 -35 -30
-35 -36 0 -45 3 -45 18 0 9 -6 17 -14 17 -8 0 -17 6 -19 13 -3 6 -6 3 -6 -8
-1 -11 -8 -31 -17 -43 -19 -28 -10 -41 16 -24 28 17 30 16 30 -17 0 -35 -29
-52 -37 -21 -7 26 -34 22 -48 -7 -18 -35 -37 -53 -56 -53 -24 0 -24 -1 1 -45
32 -57 22 -105 -22 -105 -12 0 -18 8 -18 23 0 25 -32 62 -43 50 -11 -11 -8
-35 7 -52 7 -9 16 -34 20 -56 5 -31 4 -36 -4 -22 -6 9 -20 17 -30 17 -11 0
-27 11 -36 25 -9 14 -20 25 -25 25 -15 0 -10 -23 10 -44 18 -19 19 -25 7 -77
l-13 -55 38 -32 c21 -18 42 -32 48 -32 6 0 11 -5 11 -11 0 -5 -4 -7 -10 -4
-10 6 -80 -44 -80 -59 0 -13 51 -50 87 -62 18 -7 42 -22 52 -35 19 -23 19 -24
1 -31 -10 -4 -21 -11 -24 -17 -4 -6 -19 -4 -42 5 -20 8 -42 13 -50 10 -16 -6
-48 -66 -39 -74 9 -9 380 -9 740 0 466 12 1014 21 1389 22 l348 1 16 39 c18
46 9 56 -54 56 l-41 0 -6 75 c-4 42 -14 90 -24 108 l-17 32 -7 -40 c-4 -22 -9
-60 -10 -85 -1 -31 -3 -36 -6 -17 -2 15 -10 27 -18 27 -7 0 -38 25 -69 55 -51
50 -60 55 -93 52 -32 -4 -38 -8 -47 -40 l-11 -36 -48 21 c-56 25 -91 15 -108
-29 -13 -35 -5 -53 23 -53 69 -1 61 -63 -10 -87 -24 -8 -50 -12 -56 -10 -7 3
-20 -3 -29 -13 -15 -17 -36 -20 -99 -11 -14 2 -8 78 6 90 11 9 13 29 9 86 -6
73 -5 74 21 86 17 8 26 20 26 36 0 13 9 43 20 65 24 50 26 78 5 78 -9 0 -18 7
-21 15 -9 21 -46 19 -72 -5 -12 -11 -24 -20 -27 -20 -11 0 -4 39 7 42 14 5
-49 68 -68 68 -20 0 -24 -13 -6 -27 16 -13 15 -14 -5 -8 -20 5 -23 2 -23 -19
0 -14 -7 -29 -16 -34 -9 -5 -18 -24 -19 -41 -3 -38 -5 -40 -32 -44 -31 -5 -53
-26 -53 -54 0 -36 -29 -41 -52 -10 -24 32 -34 34 -41 6 -3 -13 2 -28 14 -40
10 -10 25 -35 34 -55 13 -33 14 -40 1 -59 -8 -13 -18 -46 -22 -74 -4 -31 -12
-51 -19 -51 -7 0 -15 -6 -18 -14 -3 -8 -17 -22 -31 -31 -21 -14 -28 -14 -48
-4 -13 7 -33 12 -46 10 -29 -3 -38 21 -22 59 10 25 10 34 -5 56 -16 25 -16 28
5 77 12 29 29 60 38 69 14 16 13 20 -8 38 -26 23 -50 26 -50 7 0 -17 -47 -52
-81 -60 -15 -4 -34 -18 -43 -32 -9 -14 -23 -25 -31 -25 -20 0 -84 -41 -114
-74 -34 -36 -51 -34 -51 9 0 28 4 35 19 35 10 0 24 6 30 14 9 11 4 20 -24 45
-20 17 -41 31 -48 31 -27 0 -65 -55 -72 -102 -4 -27 -11 -48 -16 -48 -5 0 -9
-5 -9 -11 0 -6 7 -8 15 -5 8 3 21 9 29 12 10 4 16 -4 21 -25 10 -45 -1 -68
-35 -73 -30 -5 -40 6 -40 43 0 28 -19 23 -31 -8 -23 -56 -33 -73 -43 -73 -31
0 -95 36 -119 68 -24 31 -27 43 -22 77 10 65 35 105 66 105 31 0 44 23 23 40
-8 7 -14 21 -14 31 0 11 -6 28 -12 39 -11 17 -10 26 7 57 11 20 27 39 35 43
51 23 77 41 90 63 45 74 86 127 97 127 21 0 44 68 37 110 -6 36 -5 38 15 33
16 -4 23 1 31 22 6 15 9 29 8 30 -29 24 -92 33 -103 15 -3 -5 -17 -10 -30 -10
-13 0 -27 5 -30 10 -3 6 -19 10 -35 10 -16 0 -32 -4 -35 -10 -10 -16 -20 -12
-48 15 -15 16 -28 22 -32 15 -12 -20 -35 -9 -61 30 -15 22 -30 40 -34 40 -4 0
-15 -19 -25 -42z m5 -95 c0 -20 -3 -24 -11 -16 -7 7 -9 19 -6 27 10 24 17 19
17 -11z m200 -18 c12 -22 11 -29 -7 -53 -11 -15 -28 -29 -39 -31 -16 -3 -17
-1 -5 13 8 10 11 26 7 42 -6 24 7 54 24 54 3 0 13 -11 20 -25z m-424 -220 c-7
-18 -26 -20 -26 -2 0 18 24 41 28 27 2 -6 1 -17 -2 -25z m-196 -215 c0 -5 -4
-10 -9 -10 -6 0 -13 5 -16 10 -3 6 1 10 9 10 9 0 16 -4 16 -10z m73 -27 c-7
-2 -21 -2 -30 0 -10 3 -4 5 12 5 17 0 24 -2 18 -5z m2012 -85 c16 -14 -12 -31
-39 -24 -19 5 -26 13 -26 31 0 23 2 24 28 13 15 -7 31 -15 37 -20z m-645 -14
c0 -8 -4 -12 -10 -9 -5 3 -10 10 -10 16 0 5 5 9 10 9 6 0 10 -7 10 -16z
m-1210 -70 c0 -2 -7 -4 -15 -4 -8 0 -15 4 -15 10 0 5 7 7 15 4 8 -4 15 -8 15
-10z m615 -84 c3 -5 -1 -10 -10 -10 -9 0 -13 5 -10 10 3 6 8 10 10 10 2 0 7
-4 10 -10z"/>
<path d="M4180 6435 c-14 -17 -9 -87 6 -92 19 -6 44 26 44 57 0 36 -31 58 -50
35z"/>
<path d="M460 6416 c0 -9 7 -16 16 -16 9 0 14 5 12 12 -6 18 -28 21 -28 4z"/>
<path d="M1515 6400 c3 -5 10 -10 16 -10 5 0 9 5 9 10 0 6 -7 10 -16 10 -8 0
-12 -4 -9 -10z"/>
<path d="M2830 6372 c0 -34 7 -43 26 -35 19 7 18 49 -2 57 -23 9 -24 8 -24
-22z"/>
<path d="M3015 6370 c3 -5 8 -10 11 -10 2 0 4 5 4 10 0 6 -5 10 -11 10 -5 0
-7 -4 -4 -10z"/>
<path d="M5730 6329 c0 -6 -7 -17 -15 -25 -17 -18 -20 -34 -5 -34 6 0 10 6 10
13 0 7 9 19 20 27 24 17 26 30 5 30 -8 0 -15 -5 -15 -11z"/>
<path d="M414 6289 c-3 -5 6 -9 20 -9 31 0 34 6 6 13 -11 3 -23 1 -26 -4z"/>
<path d="M1335 6290 c-3 -5 1 -10 10 -10 9 0 13 5 10 10 -3 6 -8 10 -10 10 -2
0 -7 -4 -10 -10z"/>
<path d="M2550 6260 c0 -5 5 -10 11 -10 5 0 7 5 4 10 -3 6 -8 10 -11 10 -2 0
-4 -4 -4 -10z"/>
<path d="M230 6212 c0 -5 7 -13 16 -16 10 -4 14 -1 12 6 -5 15 -28 23 -28 10z"/>
<path d="M2380 6135 c-25 -25 -55 -48 -67 -52 -47 -11 -15 -43 42 -43 27 0 47
-6 58 -17 16 -19 33 -70 29 -90 -3 -16 14 -17 23 -2 4 6 23 9 44 7 l36 -3 0
55 c1 64 9 87 36 95 26 9 23 36 -7 58 -19 15 -28 16 -39 7 -11 -9 -21 -7 -44
9 -42 31 -62 26 -111 -24z"/>
<path d="M1158 6113 c7 -3 16 -2 19 1 4 3 -2 6 -13 5 -11 0 -14 -3 -6 -6z"/>
<path d="M177 6088 c-8 -31 14 -72 41 -76 29 -4 28 10 -7 58 -27 37 -29 38
-34 18z"/>
<path d="M4817 6093 c-13 -12 -7 -33 8 -33 8 0 15 9 15 20 0 20 -11 26 -23 13z"/>
<path d="M2702 6055 c-27 -38 -22 -55 14 -55 25 0 30 19 16 67 -7 22 -8 21
-30 -12z"/>
<path d="M5567 6073 c-11 -10 -8 -43 3 -43 6 0 10 4 10 9 0 5 3 16 6 25 6 16
-7 22 -19 9z"/>
<path d="M2610 5975 c-10 -26 -13 -82 -3 -57 2 6 15 12 28 12 26 0 47 21 37
36 -4 6 -17 16 -30 23 -20 11 -23 9 -32 -14z"/>
<path d="M117 5968 c-15 -38 -16 -48 -6 -53 12 -8 22 18 17 47 -4 20 -5 20
-11 6z"/>
<path d="M3912 5918 c-17 -17 -16 -68 2 -68 20 0 38 26 34 51 -4 27 -19 34
-36 17z"/>
<path d="M4127 5913 c-12 -12 -7 -53 6 -53 23 0 37 21 26 42 -10 19 -21 23
-32 11z"/>
<path d="M5640 5810 c0 -11 7 -20 15 -20 8 0 15 9 15 20 0 11 -7 20 -15 20 -8
0 -15 -9 -15 -20z"/>
<path d="M2580 5804 c0 -8 5 -12 10 -9 6 4 8 11 5 16 -9 14 -15 11 -15 -7z"/>
<path d="M5662 5750 c0 -14 2 -19 5 -12 2 6 2 18 0 25 -3 6 -5 1 -5 -13z"/>
<path d="M67 5734 c-4 -4 -7 -14 -7 -23 0 -11 3 -12 11 -4 6 6 10 16 7 23 -2
6 -7 8 -11 4z"/>
<path d="M4447 5678 c-12 -97 -9 -158 8 -158 14 0 15 14 9 103 -4 56 -8 103
-9 105 -1 1 -5 -21 -8 -50z"/>
<path d="M4327 5684 c-8 -45 0 -63 23 -57 36 10 37 93 1 93 -13 0 -20 -10 -24
-36z"/>
<path d="M5611 5694 c0 -11 3 -14 6 -6 3 7 2 16 -1 19 -3 4 -6 -2 -5 -13z"/>
<path d="M1860 5685 c0 -8 5 -15 10 -15 6 0 10 7 10 15 0 8 -4 15 -10 15 -5 0
-10 -7 -10 -15z"/>
<path d="M3707 5694 c-11 -12 -8 -82 4 -90 6 -3 20 3 32 15 17 17 19 25 11 48
-9 27 -33 41 -47 27z"/>
<path d="M1901 5676 c-7 -8 -23 -17 -36 -20 -28 -7 -33 -21 -10 -30 28 -10 65
11 65 39 0 29 -3 30 -19 11z"/>
<path d="M3008 5613 c7 -3 16 -2 19 1 4 3 -2 6 -13 5 -11 0 -14 -3 -6 -6z"/>
<path d="M3908 5613 c6 -2 18 -2 25 0 6 3 1 5 -13 5 -14 0 -19 -2 -12 -5z"/>
<path d="M4540 5604 c0 -14 3 -14 15 -4 8 7 15 14 15 16 0 2 -7 4 -15 4 -8 0
-15 -7 -15 -16z"/>
<path d="M9710 5400 c0 -12 17 -12 45 0 17 7 15 9 -12 9 -18 1 -33 -3 -33 -9z"/>
<path d="M9860 5240 c0 -5 11 -10 25 -10 14 0 25 5 25 10 0 6 -11 10 -25 10
-14 0 -25 -4 -25 -10z"/>
<path d="M5922 5185 c0 -16 2 -22 5 -12 2 9 2 23 0 30 -3 6 -5 -1 -5 -18z"/>
<path d="M7461 5061 c-41 -9 -76 -21 -78 -27 -4 -11 9 -15 145 -55 40 -12 78
-27 85 -33 20 -20 150 -96 164 -96 7 0 13 7 13 15 0 22 12 19 58 -15 51 -36
70 -68 51 -82 -11 -8 -10 -9 4 -4 10 3 17 0 17 -7 0 -7 18 -23 39 -36 21 -12
46 -37 56 -55 10 -17 32 -47 50 -66 18 -19 60 -77 95 -127 34 -51 68 -93 76
-93 7 0 19 9 26 20 15 24 43 26 52 5 3 -8 12 -15 21 -15 8 0 15 -7 15 -15 0
-15 48 -45 73 -45 8 0 20 -6 27 -14 6 -8 21 -16 33 -18 13 -2 29 -17 39 -38
12 -26 17 -30 18 -15 2 65 43 51 54 -17 5 -32 9 -39 16 -28 5 8 10 25 10 38 0
38 28 25 40 -18 12 -45 30 -45 30 -1 0 42 9 43 47 6 26 -25 34 -40 31 -62 -3
-27 -4 -28 -58 -25 -30 2 -61 9 -70 16 -18 16 -40 10 -40 -10 0 -42 29 -71 89
-88 33 -9 63 -21 66 -25 2 -5 19 -7 37 -6 l33 3 -2 68 c-1 71 -18 166 -34 196
-5 10 -9 25 -9 33 0 57 -97 275 -159 358 -104 139 -276 262 -446 318 -22 7
-44 16 -50 20 -5 3 -50 14 -100 23 -49 9 -109 21 -133 26 -68 16 -346 10 -431
-9z m819 -551 c12 -7 12 -12 3 -21 -9 -9 -16 -9 -28 1 -29 24 -9 42 25 20z"/>
<path d="M4532 5061 c-8 -4 -52 -8 -99 -9 -48 0 -90 -5 -96 -11 -6 -6 -22 -11
-35 -11 -13 0 -47 -8 -75 -17 l-52 -18 45 -5 c25 -3 51 -10 59 -14 11 -7 13
-5 8 8 -9 24 19 32 42 12 31 -28 66 -11 41 19 -18 22 192 21 234 0 17 -9 41
-13 55 -10 14 3 43 -1 64 -8 56 -20 121 -3 70 18 -29 11 23 27 63 19 40 -7 43
-20 11 -35 -18 -8 -23 -17 -19 -35 6 -31 39 -33 44 -1 4 26 39 35 59 14 8 -7
35 -21 61 -31 26 -10 49 -24 52 -32 8 -21 24 -17 50 13 22 25 25 26 55 13 17
-7 29 -15 27 -18 -22 -21 69 -78 107 -66 15 5 19 3 14 -8 -6 -16 25 -48 45
-48 7 0 23 -12 35 -27 13 -14 26 -24 29 -20 3 3 -4 16 -16 29 -12 13 -29 35
-38 51 -9 15 -20 27 -25 27 -5 0 -27 16 -50 35 -22 19 -44 35 -48 35 -5 0 -25
11 -45 25 -20 14 -45 25 -55 25 -9 0 -30 6 -46 14 -71 35 -102 41 -378 66
-133 12 -176 12 -193 1z"/>
<path d="M2715 5010 c17 -11 44 -20 62 -20 17 0 35 -4 38 -10 3 -5 25 -10 48
-10 26 0 55 -8 77 -22 19 -12 43 -27 54 -33 24 -13 94 -130 84 -141 -3 -2 -24
-6 -46 -9 -55 -5 -65 -12 -58 -41 5 -20 -2 -29 -41 -59 -27 -19 -60 -35 -75
-35 -31 0 -48 -24 -48 -65 0 -18 6 -29 20 -32 11 -3 17 -9 15 -14 -3 -4 -12
-6 -20 -2 -11 4 -15 -2 -15 -21 0 -28 17 -35 26 -11 11 27 35 -12 43 -69 4
-30 16 -66 26 -82 13 -20 17 -44 16 -90 -1 -35 4 -72 10 -82 25 -41 -42 -130
-153 -206 -99 -66 -147 -84 -265 -98 -66 -7 -111 -17 -120 -27 -13 -12 -14
-36 -8 -147 7 -138 1 -166 -41 -209 -9 -9 -13 -19 -10 -23 4 -3 10 -2 14 4 4
5 24 21 45 33 21 13 56 45 77 72 108 137 210 235 345 333 22 16 42 33 43 38 2
4 14 8 27 8 12 0 28 7 35 15 7 8 17 12 22 9 9 -6 1 -61 -12 -79 -4 -5 -10 -42
-14 -81 -5 -65 -4 -73 19 -104 59 -80 76 -69 163 105 8 17 25 41 37 55 12 14
34 54 49 89 15 35 54 114 86 174 33 61 60 114 60 119 0 4 6 8 14 8 22 0 26
-79 25 -485 0 -268 -4 -390 -12 -415 l-12 -35 -125 -1 c-69 -1 -136 -6 -150
-12 l-25 -10 25 -10 c14 -5 75 -12 137 -15 116 -6 190 6 237 36 28 18 136 150
136 166 0 6 -11 28 -24 49 -13 21 -26 47 -29 58 -3 11 -5 5 -6 -16 -3 -94 -31
-97 -31 -3 0 71 -6 84 -35 73 -19 -7 -24 -5 -29 13 -10 39 -6 75 14 127 18 45
20 74 20 277 0 124 5 253 11 287 7 40 8 100 2 171 l-8 110 -38 19 c-29 14 -70
20 -169 24 -99 4 -131 8 -135 19 -3 8 -1 19 6 26 17 17 14 32 -18 100 -48 102
-156 186 -241 187 -19 0 -62 9 -94 20 -77 26 -100 26 -61 0z m420 -410 c3 -5
24 -9 45 -8 26 1 47 -5 60 -17 25 -23 16 -36 -23 -34 -18 2 -53 2 -79 1 -44
-2 -49 -5 -62 -36 -8 -19 -24 -39 -35 -46 -18 -9 -21 -20 -21 -75 0 -37 -4
-65 -10 -65 -5 0 -10 15 -10 34 0 21 -6 36 -15 40 -19 7 -19 26 0 62 8 16 15
38 15 49 0 55 111 133 135 95z m182 -41 c6 -6 9 -18 6 -25 -7 -18 -43 0 -43
21 0 18 21 20 37 4z m124 -386 c-9 -16 -10 -14 -11 12 0 21 3 26 11 18 8 -8 8
-16 0 -30z m-1 -186 c-7 -17 -9 -10 -9 28 1 43 2 46 9 22 5 -16 5 -38 0 -50z"/>
<path d="M2568 5003 c6 -2 18 -2 25 0 6 3 1 5 -13 5 -14 0 -19 -2 -12 -5z"/>
<path d="M4138 4973 c6 -2 18 -2 25 0 6 3 1 5 -13 5 -14 0 -19 -2 -12 -5z"/>
<path d="M2278 4952 c-28 -17 -36 -32 -18 -32 15 0 60 31 60 41 0 13 -11 11
-42 -9z"/>
<path d="M4445 4950 c-10 -17 12 -37 25 -24 8 8 6 15 -4 23 -10 9 -16 9 -21 1z"/>
<path d="M4565 4913 c23 -22 92 -34 105 -18 15 19 0 25 -65 30 -52 4 -55 3
-40 -12z"/>
<path d="M4800 4920 c0 -13 28 -25 38 -16 3 4 0 11 -8 16 -20 13 -30 12 -30 0z"/>
<path d="M2158 4903 c12 -2 30 -2 40 0 9 3 -1 5 -23 4 -22 0 -30 -2 -17 -4z"/>
<path d="M2108 4883 c6 -2 18 -2 25 0 6 3 1 5 -13 5 -14 0 -19 -2 -12 -5z"/>
<path d="M3463 4880 c-13 -5 -23 -14 -23 -19 0 -10 72 -41 98 -41 26 0 109
-55 123 -82 7 -12 11 -41 10 -63 -4 -83 -21 -291 -27 -328 -6 -38 -6 -38 22
-31 16 4 38 13 49 20 38 24 169 64 209 64 98 0 314 -71 373 -123 l33 -29 0
-119 c0 -137 1 -136 -92 -95 -93 41 -127 47 -183 32 -93 -25 -163 -74 -195
-137 -44 -84 -46 -198 -6 -294 37 -88 192 -203 179 -131 -4 18 1 25 19 29 38
11 48 8 48 -13 0 -15 9 -22 30 -26 17 -4 30 -10 30 -15 0 -16 28 -10 83 16 71
35 92 28 100 -30 11 -75 -28 -275 -53 -275 -5 0 -16 -7 -25 -16 -9 -9 -37 -25
-63 -35 -45 -17 -46 -18 -15 -19 17 0 35 5 38 10 3 6 12 10 19 10 7 0 53 27
102 60 72 47 93 68 108 100 17 38 17 45 3 83 -28 79 -42 172 -42 292 0 128 16
194 66 281 23 39 35 55 106 145 22 28 31 48 28 62 -10 42 29 85 213 233 31 25
32 28 26 78 -4 28 -15 66 -26 83 -19 32 -20 32 -46 16 -52 -33 -117 -87 -164
-135 -62 -65 -74 -63 -82 13 -15 147 -6 162 103 173 46 5 84 3 107 -4 44 -15
54 -6 26 22 -20 20 -31 22 -104 20 -46 -2 -95 -8 -111 -14 -32 -12 -53 1 -73
47 -13 30 -13 30 -14 -21 l0 -52 -87 -27 c-123 -37 -161 -55 -201 -92 -41 -39
-55 -41 -76 -11 l-15 21 -13 -29 c-7 -16 -17 -32 -22 -36 -5 -3 -46 -5 -90 -3
-51 2 -93 -2 -113 -10 -18 -8 -52 -17 -76 -20 -32 -5 -48 -14 -62 -35 -20 -30
-46 -31 -38 -1 7 28 70 91 92 91 23 0 37 16 19 22 -17 6 7 175 32 232 18 38
18 43 3 66 -38 59 -76 74 -233 90 -110 11 -99 11 -127 0z m1020 -355 c12 -74
-18 -145 -63 -145 -10 0 -22 -9 -25 -21 -11 -34 -50 -42 -95 -19 -22 11 -52
20 -68 20 -34 0 -82 40 -82 69 0 26 57 69 101 77 19 4 47 14 64 22 44 22 75
30 121 31 40 1 42 0 47 -34z"/>
<path d="M6030 4845 c0 -33 4 -45 13 -42 7 2 12 20 12 42 0 22 -5 40 -12 43
-9 2 -13 -10 -13 -43z"/>
<path d="M2070 4860 c0 -5 5 -10 10 -10 6 0 10 5 10 10 0 6 -4 10 -10 10 -5 0
-10 -4 -10 -10z"/>
<path d="M4470 4840 c0 -5 19 -10 43 -9 32 0 37 2 22 9 -28 12 -65 12 -65 0z"/>
<path d="M2031 4794 c0 -11 3 -14 6 -6 3 7 2 16 -1 19 -3 4 -6 -2 -5 -13z"/>
<path d="M3261 4776 c-35 -36 -32 -46 13 -46 16 0 67 -12 113 -27 82 -27 84
-28 108 -78 24 -47 25 -62 30 -265 3 -118 6 -221 7 -227 2 -20 28 6 28 28 0
11 4 19 8 19 16 0 31 47 20 58 -8 8 -7 48 2 139 7 70 15 170 17 221 4 87 3 97
-20 131 -30 46 -80 63 -192 67 -43 2 -84 5 -91 8 -6 2 -26 -10 -43 -28z"/>
<path d="M4387 4800 c-66 -8 -69 -10 -57 -30 7 -11 13 -12 35 -2 37 17 66 15
81 -5 12 -16 13 -15 14 15 0 17 -3 31 -7 31 -5 -1 -34 -5 -66 -9z"/>
<path d="M4143 4773 c-38 -26 -27 -35 30 -28 71 10 76 15 31 31 -22 8 -39 14
-39 13 0 0 -10 -7 -22 -16z"/>
<path d="M4270 4780 c0 -5 6 -10 14 -10 8 0 18 5 21 10 3 6 -3 10 -14 10 -12
0 -21 -4 -21 -10z"/>
<path d="M5259 4783 c8 -3 30 -21 49 -40 25 -25 41 -33 60 -31 l27 4 -27 12
c-17 7 -28 19 -28 31 0 22 -19 31 -63 30 -18 0 -26 -3 -18 -6z"/>
<path d="M4965 4740 c-9 -14 3 -30 22 -30 9 0 22 -8 29 -17 12 -17 13 -16 14
5 0 39 -48 70 -65 42z"/>
<path d="M5118 4733 c7 -3 16 -2 19 1 4 3 -2 6 -13 5 -11 0 -14 -3 -6 -6z"/>
<path d="M5198 4733 c7 -3 16 -2 19 1 4 3 -2 6 -13 5 -11 0 -14 -3 -6 -6z"/>
<path d="M2260 4704 c-23 -13 -21 -13 31 -11 40 1 55 6 52 15 -7 16 -51 14
-83 -4z"/>
<path d="M4075 4710 c-3 -5 -15 -10 -25 -10 -18 0 -60 -43 -60 -61 0 -5 7 -9
15 -9 8 0 15 5 15 10 0 6 7 10 15 10 8 0 15 5 15 12 0 7 12 23 27 35 14 13 21
23 15 23 -6 0 -14 -4 -17 -10z"/>
<path d="M5237 4700 c4 -14 14 -20 34 -20 16 0 29 -4 29 -10 0 -5 8 -10 18
-10 23 0 82 -29 82 -40 0 -4 -10 -11 -22 -15 -20 -7 -17 -9 16 -12 22 -3 45
-11 50 -19 9 -12 13 -11 23 5 10 16 9 22 -10 34 -12 8 -37 28 -56 45 -19 16
-60 37 -93 46 -73 20 -77 20 -71 -4z"/>
<path d="M9425 4690 c-4 -6 3 -23 16 -36 20 -21 31 -24 74 -22 48 3 50 4 50
33 l0 30 -67 3 c-41 2 -69 -1 -73 -8z"/>
<path d="M9807 4693 c-4 -3 -7 -32 -7 -64 0 -48 4 -60 22 -73 12 -9 35 -16 50
-16 27 0 28 2 28 49 0 27 3 63 6 80 l7 31 -50 0 c-27 0 -53 -3 -56 -7z"/>
<path d="M2470 4660 c-14 -19 -30 -30 -45 -30 -18 0 -23 -4 -19 -15 9 -23 32
-18 64 15 34 34 46 37 72 13 11 -9 18 -11 18 -5 0 7 -4 12 -10 12 -5 0 -10 6
-10 14 0 13 -20 26 -40 26 -5 0 -18 -13 -30 -30z"/>
<path d="M5180 4621 c0 -6 5 -13 10 -16 16 -10 12 -45 -5 -45 -18 0 -19 -12
-3 -28 9 -9 14 -6 22 11 9 17 22 23 60 25 27 2 59 10 70 18 20 14 20 14 -5 14
-14 0 -30 -5 -36 -11 -6 -6 -23 -9 -39 -7 -21 2 -30 9 -32 26 -2 14 -10 22
-23 22 -10 0 -19 -4 -19 -9z"/>
<path d="M4040 4601 c0 -29 18 -71 30 -71 17 0 12 77 -6 84 -23 9 -24 8 -24
-13z"/>
<path d="M2662 4598 c-7 -7 -12 -20 -12 -30 0 -17 1 -17 20 2 11 11 25 20 31
20 5 0 7 5 4 10 -8 14 -28 13 -43 -2z"/>
<path d="M7529 4557 c-47 -31 -64 -70 -62 -140 l3 -58 -36 7 c-33 6 -36 5 -30
-13 7 -22 -14 -33 -66 -33 -32 0 -36 16 -10 36 16 13 16 13 -1 14 -10 0 -38
-14 -62 -31 -43 -31 -65 -70 -65 -115 0 -13 -13 -46 -30 -72 -33 -54 -39 -110
-17 -152 55 -102 66 -115 108 -131 90 -34 188 -50 304 -48 62 0 118 -2 123 -5
32 -20 24 -174 -11 -207 -18 -16 -36 -19 -133 -19 -184 0 -247 -23 -228 -83
19 -64 82 -82 236 -68 59 6 118 7 130 2 17 -6 27 -2 44 18 34 40 64 103 64
132 0 15 7 29 15 33 8 3 15 15 15 27 0 13 17 38 42 61 23 21 38 41 35 45 -4 3
-18 -4 -32 -17 -19 -18 -25 -20 -25 -8 0 9 6 18 14 21 7 3 16 20 20 39 3 18
21 50 38 71 l32 38 13 -23 12 -23 1 27 c0 15 4 38 10 53 5 14 10 47 11 73 0
26 8 73 16 104 22 83 13 146 -26 178 -31 26 -131 79 -189 100 -36 14 -65 50
-76 93 -5 22 -1 32 19 52 26 23 26 24 6 34 -11 6 -36 11 -55 11 -28 0 -36 -4
-36 -18 0 -11 -16 -27 -40 -41 -22 -12 -40 -26 -40 -32 0 -5 -4 -9 -10 -9 -19
0 -10 47 15 74 21 23 22 26 6 26 -10 0 -33 -10 -52 -23z m-4 -278 c0 -15 -125
-68 -163 -69 -29 0 -97 28 -88 37 3 4 23 6 44 5 21 -2 71 9 112 22 80 27 95
28 95 5z m65 -57 c0 -11 -32 -27 -87 -46 -24 -9 -43 -11 -43 -6 0 6 9 10 19
10 11 0 21 3 23 8 3 7 67 40 81 41 4 1 7 -3 7 -7z m-286 -141 c7 -11 -43 -32
-81 -34 -43 -3 -36 17 11 29 54 15 64 16 70 5z m91 -62 c-13 -35 -114 -65
-130 -39 -4 6 6 10 22 10 15 0 46 11 68 24 43 26 49 27 40 5z m125 -12 c0 -14
-39 -41 -48 -33 -6 7 27 46 40 46 4 0 8 -6 8 -13z"/>
<path d="M5654 4543 c8 -25 -3 -37 -51 -62 -23 -11 -44 -25 -48 -31 -12 -19
-74 -12 -87 10 -13 20 -13 20 -28 -1 -21 -26 -78 -40 -165 -37 -59 1 -71 -1
-73 -16 -3 -12 -10 -15 -23 -11 -10 4 -33 -1 -51 -9 -61 -31 -80 -23 -119 49
-34 66 -44 72 -63 42 -8 -12 -5 -24 13 -47 29 -40 22 -71 -22 -103 -47 -36
-119 -74 -154 -81 -31 -7 -147 -75 -140 -82 2 -3 45 9 94 26 148 49 274 44
356 -16 l48 -35 -3 -97 -3 -97 -70 3 c-89 4 -142 -14 -211 -73 -66 -57 -97
-128 -96 -224 1 -149 45 -219 167 -266 71 -28 121 -30 258 -9 l37 6 0 -45 c0
-25 4 -48 8 -51 8 -5 77 15 87 26 3 3 1 18 -6 34 -15 41 -39 190 -39 249 0 80
37 242 61 269 5 6 9 18 9 27 0 42 171 236 284 322 80 62 77 54 65 137 -5 41
-7 92 -3 113 3 22 1 51 -6 68 -13 31 -35 41 -26 12z m-289 -155 c18 -8 25 -19
25 -38 0 -22 -13 -35 -80 -79 -93 -62 -132 -66 -139 -16 -4 29 -4 29 -10 5
-13 -49 -120 -39 -137 14 -16 45 -10 61 26 73 42 15 116 17 125 3 3 -5 19 -1
38 10 18 11 49 20 69 20 20 0 40 5 43 10 8 13 9 12 40 -2z m-387 -110 c3 -14
-3 -18 -27 -18 -34 0 -34 0 -25 25 8 21 48 16 52 -7z"/>
<path d="M2620 4519 c0 -11 5 -17 10 -14 6 3 10 13 10 21 0 8 -4 14 -10 14 -5
0 -10 -9 -10 -21z"/>
<path d="M5035 4530 c-3 -5 1 -10 9 -10 9 0 16 5 16 10 0 6 -4 10 -9 10 -6 0
-13 -4 -16 -10z"/>
<path d="M2355 4383 c-4 -10 -9 -58 -11 -108 -7 -121 3 -140 71 -137 55 3 121
41 142 83 18 34 16 96 -4 130 -20 34 -63 49 -139 49 -40 0 -53 -4 -59 -17z"/>
<path d="M6895 4328 c8 -40 -4 -72 -40 -113 -15 -16 -35 -46 -46 -66 -26 -53
-155 -175 -214 -204 -27 -13 -70 -28 -95 -34 l-45 -9 38 -1 c26 -1 37 -6 37
-16 0 -9 -9 -15 -22 -15 -12 0 -18 -3 -15 -7 7 -6 153 22 193 37 37 14 175
195 186 243 5 23 20 59 33 79 32 48 34 108 4 126 -19 12 -20 11 -14 -20z"/>
<path d="M6937 4175 c-11 -40 -52 -120 -78 -154 -11 -14 -41 -53 -66 -86 -111
-148 -232 -203 -353 -160 -46 16 -53 16 -42 -1 20 -31 72 -44 182 -44 l110 0
53 53 c28 28 67 70 85 92 19 24 32 33 32 24 0 -24 -51 -90 -105 -134 -26 -22
-55 -48 -64 -57 -9 -9 -47 -35 -86 -57 -63 -37 -76 -41 -137 -41 -61 0 -90
-11 -73 -28 12 -12 168 -5 227 11 67 18 135 65 205 142 l51 55 5 -32 c6 -44
-19 -90 -83 -156 -91 -91 -167 -144 -239 -164 -80 -22 -108 -23 -154 -3 -20 8
-39 15 -42 15 -3 0 -5 -7 -5 -15 0 -8 6 -15 14 -15 8 0 16 -5 18 -11 2 -6 22
-17 43 -25 33 -11 58 -12 140 -3 55 7 107 18 116 25 8 8 19 14 23 14 19 0 126
108 126 127 0 7 5 13 10 13 32 0 -20 -81 -111 -175 -26 -27 -74 -78 -105 -112
-31 -35 -74 -71 -95 -80 -24 -11 -37 -23 -34 -31 3 -8 5 -20 5 -28 0 -12 10
-13 53 -8 28 3 57 13 63 20 13 16 34 19 34 4 0 -5 7 -10 15 -10 8 0 15 5 15
10 0 6 -7 10 -15 10 -8 0 -15 5 -15 11 0 7 10 9 25 7 17 -4 25 -1 25 8 0 8 4
14 9 14 17 0 57 43 76 80 47 94 68 118 110 123 22 3 63 2 90 -1 59 -8 61 -21
15 -87 -63 -92 -83 -180 -84 -375 -1 -149 9 -143 -234 -138 -105 1 -192 0
-192 -4 0 -8 59 -12 185 -14 33 0 94 -4 135 -8 104 -11 117 -4 220 110 l35 39
6 230 c3 126 2 237 -3 246 -6 13 -26 18 -92 20 -103 5 -117 14 -91 63 17 31
17 39 6 74 -8 22 -11 51 -8 64 3 12 10 40 15 61 7 27 7 52 -2 85 -11 43 -10
54 18 134 28 83 29 88 13 106 -16 18 -17 23 -2 66 9 26 15 66 13 89 -3 41 -3
41 -11 12z m-60 -257 c-3 -8 -6 -5 -6 6 -1 11 2 17 5 13 3 -3 4 -12 1 -19z"/>
<path d="M6353 4050 c-28 -11 -41 -36 -35 -66 4 -20 7 -22 19 -12 12 10 18 9
28 -5 11 -15 13 -11 19 30 7 53 0 65 -31 53z"/>
<path d="M9777 3996 c-16 -13 -16 -14 -1 -20 10 -4 21 -1 26 6 18 29 5 36 -25
14z"/>
<path d="M8758 3983 c7 -3 16 -2 19 1 4 3 -2 6 -13 5 -11 0 -14 -3 -6 -6z"/>
<path d="M5698 3892 c-42 -17 -77 -64 -109 -144 -30 -77 -33 -92 -33 -203 -1
-106 2 -130 28 -209 31 -96 65 -144 122 -171 49 -23 95 -13 144 31 127 115
127 505 1 637 -23 24 -53 43 -85 52 -27 8 -50 15 -50 14 -1 0 -8 -3 -18 -7z"/>
<path d="M6342 3870 c-15 -14 -22 -32 -21 -53 1 -19 3 -24 6 -14 4 14 12 18
29 14 28 -5 27 -6 14 27 -7 20 -6 27 8 35 14 9 15 10 1 11 -8 0 -25 -9 -37
-20z"/>
<path d="M6340 3771 c0 -6 5 -13 10 -16 6 -3 10 1 10 9 0 9 -4 16 -10 16 -5 0
-10 -4 -10 -9z"/>
<path d="M7840 3623 c18 -7 42 -39 52 -68 4 -14 6 -9 7 18 1 27 -3 37 -14 37
-8 0 -15 5 -15 10 0 6 -10 10 -22 9 -16 0 -18 -2 -8 -6z"/>
<path d="M2168 3433 c6 -2 18 -2 25 0 6 3 1 5 -13 5 -14 0 -19 -2 -12 -5z"/>
<path d="M7832 3380 c-28 -46 -132 -90 -132 -56 0 23 -41 69 -52 58 -6 -6 -14
-45 -19 -88 -5 -44 -14 -89 -20 -101 -19 -35 -68 -46 -173 -38 -110 8 -126 0
-126 -68 0 -80 30 -98 184 -117 134 -16 165 -39 188 -140 11 -47 10 -52 -10
-72 -21 -21 -21 -22 -269 -9 -147 7 -252 16 -260 23 -15 12 -28 5 -19 -11 13
-21 118 -40 291 -53 227 -16 261 -16 310 8 43 20 142 117 181 176 22 34 24 47
23 150 -1 62 -4 138 -8 168 -7 52 -7 49 -14 -55 -5 -60 -11 -117 -16 -125 -10
-19 -54 -25 -81 -10 -14 7 -20 21 -20 44 0 34 34 146 48 156 16 11 42 60 32
60 -5 0 -10 5 -10 11 0 6 9 8 20 4 15 -5 18 -3 14 9 -3 9 -12 16 -20 16 -12 0
-18 14 -26 63 -3 16 -4 16 -16 -3z"/>
<path d="M1758 3243 c7 -3 16 -2 19 1 4 3 -2 6 -13 5 -11 0 -14 -3 -6 -6z"/>
<path d="M2040 3163 c-14 -9 -50 -32 -80 -52 -30 -19 -77 -58 -105 -86 -52
-53 -214 -143 -235 -130 -13 8 -52 -4 -46 -14 3 -4 18 -6 34 -3 27 3 30 1 35
-32 6 -41 -6 -96 -25 -108 -7 -4 -30 -8 -50 -8 -29 0 -41 6 -55 26 -13 21 -22
25 -46 20 -37 -7 -63 10 -46 30 6 8 7 14 2 14 -12 0 -148 -103 -188 -143 -16
-16 -45 -36 -63 -44 -32 -13 -82 -59 -147 -133 -17 -19 -57 -59 -89 -88 -66
-59 -67 -72 -16 -132 26 -31 29 -33 30 -13 0 12 6 28 14 35 7 8 21 29 30 46 9
18 21 30 26 27 13 -8 13 -8 -10 -35 -22 -26 -25 -36 -10 -45 5 -3 25 10 45 30
29 28 40 33 55 25 22 -12 27 -25 35 -97 6 -50 4 -62 -14 -85 -30 -37 -26 -48
15 -48 30 0 37 -4 49 -34 10 -23 34 -46 80 -75 36 -22 70 -41 74 -41 4 0 16
-9 26 -20 26 -28 57 -25 91 11 57 60 148 89 160 52 3 -10 12 -34 21 -54 13
-33 13 -42 -3 -100 -9 -35 -21 -68 -25 -74 -5 -5 -9 -23 -9 -40 l0 -30 54 58
c30 32 72 86 95 120 22 34 46 69 53 77 8 9 13 44 14 87 0 58 5 79 21 101 19
25 26 27 84 25 35 -1 82 -7 104 -15 36 -12 41 -17 50 -60 5 -25 13 -50 18 -54
4 -4 7 -21 8 -38 0 -29 1 -29 9 -8 11 27 26 29 33 2 6 -25 52 -37 70 -18 35
34 55 103 62 205 3 44 11 63 24 63 5 0 6 -19 4 -43 -8 -66 3 -70 170 -72 78
-1 150 -5 161 -10 16 -7 18 -17 14 -84 -5 -84 -40 -209 -72 -256 -11 -16 -37
-51 -59 -77 -21 -26 -36 -53 -34 -60 4 -10 6 -10 6 0 1 6 6 12 12 12 23 0 99
72 145 136 25 35 54 69 64 74 11 6 23 33 31 70 14 64 23 74 80 90 35 10 37 4
7 -20 l-23 -19 28 -24 c15 -13 27 -29 27 -34 0 -5 11 -16 25 -23 14 -7 25 -17
25 -22 0 -4 19 -8 43 -8 38 1 40 2 23 15 -10 7 -15 18 -11 24 10 17 44 -6 51
-35 8 -33 30 -25 27 10 -1 21 -27 51 -97 117 -110 105 -172 194 -197 287 -47
166 -10 273 124 365 29 20 63 38 77 42 14 3 34 13 44 20 16 12 18 19 9 37 -58
127 -75 148 -86 109 -3 -12 -16 -25 -30 -30 -26 -10 -39 -33 -31 -54 2 -7 -11
-31 -31 -54 -19 -23 -35 -49 -35 -58 0 -9 -17 -24 -42 -35 -29 -13 -47 -30
-60 -56 -22 -46 -23 -68 -3 -60 26 10 11 -57 -17 -75 -5 -3 -11 -39 -13 -79
-5 -87 -21 -110 -90 -128 -36 -10 -55 -9 -99 2 -44 12 -109 39 -124 51 -2 2 2
30 9 63 12 58 12 60 -17 106 -37 59 -80 81 -131 66 -68 -19 -133 -96 -133
-157 0 -19 -7 -47 -15 -63 -15 -28 -19 -30 -76 -30 -61 0 -147 16 -163 30 -29
27 -26 172 6 275 15 48 72 151 99 181 12 12 17 28 13 37 -4 11 0 19 10 23 9 4
23 19 32 35 10 20 22 29 40 29 21 0 23 -3 14 -19 -13 -26 1 -34 28 -15 50 34
96 208 62 229 -5 3 -10 19 -10 34 0 28 -16 51 -34 50 -6 0 -22 -7 -36 -16z
m915 -392 c-3 -6 -11 -11 -17 -11 -6 0 -6 6 2 15 14 17 26 13 15 -4z m-5 -816
c-7 -8 -22 -14 -34 -14 -17 1 -17 2 -3 6 9 2 17 9 17 14 0 5 7 9 16 9 14 0 14
-3 4 -15z"/>
<path d="M4361 3019 c-7 -17 -26 -43 -42 -56 -26 -24 -52 -78 -53 -112 -1 -17
-73 -70 -95 -71 -11 0 -101 86 -101 97 0 2 8 3 18 4 14 0 13 2 -5 11 -19 9
-29 6 -59 -17 -36 -27 -40 -28 -144 -26 -72 1 -111 -2 -115 -9 -11 -18 10 -33
52 -35 51 -3 50 -3 57 -21 10 -26 -13 -44 -55 -44 -21 0 -40 -4 -43 -9 -9 -13
-45 -1 -56 19 -5 9 -6 26 -3 38 8 31 -20 29 -58 -5 -24 -22 -30 -34 -26 -56 3
-22 -2 -32 -23 -47 -41 -29 -74 -34 -114 -15 -19 9 -43 15 -53 13 -11 -3 2
-12 37 -25 l55 -21 -28 -11 c-16 -6 -38 -11 -51 -11 -39 0 -46 -18 -47 -124
-1 -56 -4 -112 -8 -126 -12 -43 -45 -37 -103 18 -58 55 -119 79 -160 63 -58
-22 -77 -85 -42 -139 27 -43 111 -116 182 -158 37 -21 88 -60 114 -86 67 -67
83 -107 87 -228 1 -31 3 -33 15 -18 16 22 30 258 31 533 1 192 8 265 24 265 5
0 20 11 35 25 30 28 64 33 72 10 3 -8 26 -28 52 -45 44 -29 48 -30 169 -30
l123 0 0 -74 c0 -104 -12 -133 -62 -146 -22 -6 -53 -8 -68 -5 -55 12 -72 -10
-95 -121 -5 -25 -1 -38 19 -60 23 -27 30 -29 121 -34 135 -8 142 -17 119 -166
-2 -17 -10 -38 -17 -47 -17 -23 -108 -39 -160 -28 -48 11 -99 -5 -116 -37 -16
-30 -16 -119 -1 -137 27 -32 68 -45 144 -45 87 0 105 -12 108 -68 4 -103 -11
-138 -66 -154 -22 -6 -44 -11 -48 -10 -3 1 -42 4 -85 7 -200 16 -235 23 -270
57 -24 24 -31 37 -27 52 9 28 1 222 -9 232 -9 9 -19 -174 -12 -218 16 -108 49
-132 217 -152 176 -22 281 -8 390 52 29 16 74 37 100 47 52 19 124 89 132 127
3 13 7 69 9 126 3 78 1 105 -10 113 -7 7 -52 17 -99 24 -48 7 -93 19 -100 27
-12 12 -8 19 26 47 22 18 40 40 40 50 0 20 27 61 41 61 5 0 9 -9 9 -20 0 -25
11 -25 37 -2 44 38 72 235 38 272 -10 11 -38 21 -70 25 -69 8 -87 27 -48 51
77 49 175 129 188 155 19 35 21 179 3 197 -16 16 -28 15 -28 -3 0 -17 -60 -57
-122 -82 -24 -9 -46 -21 -50 -27 -9 -14 -22 -1 -13 13 3 6 12 11 20 11 16 0
107 122 148 199 28 52 57 132 57 159 0 22 -15 13 -29 -19z"/>
<path d="M4160 3030 c0 -5 11 -10 25 -10 14 0 25 5 25 10 0 6 -11 10 -25 10
-14 0 -25 -4 -25 -10z"/>
<path d="M4090 3000 c-9 -16 -8 -20 5 -20 8 0 15 2 15 4 0 2 3 11 6 20 9 23
-13 20 -26 -4z"/>
<path d="M1510 2880 c0 -5 5 -10 10 -10 6 0 10 5 10 10 0 6 -4 10 -10 10 -5 0
-10 -4 -10 -10z"/>
<path d="M949 2825 c-7 -31 -23 -68 -36 -83 -12 -15 -34 -51 -48 -80 -21 -45
-25 -67 -25 -147 0 -97 12 -126 24 -55 3 21 12 43 19 47 7 4 25 33 40 64 21
45 36 61 74 82 54 30 181 147 159 147 -8 0 -21 -9 -29 -20 -8 -11 -34 -31 -58
-43 -24 -13 -57 -31 -73 -40 -31 -17 -46 -15 -46 7 0 19 35 56 53 56 18 0 71
49 63 57 -3 3 -21 -4 -40 -15 -19 -11 -37 -18 -40 -15 -3 4 -6 26 -6 50 0 60
-16 54 -31 -12z"/>
<path d="M6468 2813 c7 -3 16 -2 19 1 4 3 -2 6 -13 5 -11 0 -14 -3 -6 -6z"/>
<path d="M5535 2800 c-3 -5 -1 -10 4 -10 6 0 11 5 11 10 0 6 -2 10 -4 10 -3 0
-8 -4 -11 -10z"/>
<path d="M5745 2652 c-5 -4 -21 -23 -34 -42 -14 -19 -32 -39 -40 -45 -25 -15
-84 -35 -107 -35 -12 0 -37 -6 -55 -14 -58 -24 -436 -9 -465 18 -46 43 -117
76 -164 76 -18 -1 4 -17 75 -55 55 -30 111 -55 125 -55 39 0 162 -37 227 -67
72 -34 168 -129 205 -204 48 -97 71 -202 71 -319 0 -163 -33 -292 -113 -450
-35 -68 -97 -117 -205 -161 -73 -29 -90 -32 -190 -33 -60 -1 -146 3 -190 7
-70 7 -77 6 -60 -6 51 -36 138 -52 275 -51 142 0 178 8 315 69 28 12 79 32
115 44 36 12 75 27 87 33 17 8 26 8 39 -3 16 -13 17 -10 10 44 -3 32 -13 71
-20 86 -23 44 -38 181 -32 287 11 182 8 169 38 172 21 3 32 -4 52 -35 14 -21
26 -49 27 -63 1 -17 4 -11 11 18 5 24 7 49 5 56 -6 16 -83 57 -99 53 -20 -3
-21 41 -2 81 75 161 70 152 146 230 51 52 99 92 111 92 13 0 8 27 -8 40 -8 7
-15 21 -15 32 0 10 -4 16 -10 13 -5 -3 -10 -22 -10 -40 0 -28 -4 -36 -25 -41
-13 -3 -27 -13 -30 -22 -3 -10 -21 -35 -40 -57 -27 -32 -37 -37 -47 -27 -9 9
-9 15 0 24 7 7 12 17 12 24 0 6 16 29 36 50 30 33 35 44 30 72 -4 25 0 39 15
55 l20 22 6 -23 c8 -32 23 -27 23 8 0 17 -4 30 -10 30 -5 0 -10 5 -10 11 0 11
-71 108 -80 108 -3 1 -9 -3 -15 -7z"/>
<path d="M6420 2581 c-40 -5 -98 -31 -205 -91 -20 -11 -41 -20 -48 -20 -7 0
-29 -15 -48 -33 -19 -18 -44 -37 -54 -40 -17 -7 -17 -8 1 -22 10 -8 33 -15 51
-15 17 0 35 -4 38 -10 3 -5 25 -18 48 -28 55 -25 115 -92 150 -167 16 -33 33
-69 39 -79 18 -33 47 -238 48 -331 0 -78 -11 -108 -32 -87 -6 6 -24 12 -40 12
-31 0 -48 24 -48 69 0 52 -8 62 -46 55 -29 -5 -34 -3 -34 13 0 23 30 53 53 53
21 0 32 19 18 33 -6 6 -11 17 -11 24 0 23 45 -17 46 -41 1 -20 18 -73 34 -106
4 -8 2 -27 -4 -42 -11 -30 -5 -43 17 -35 17 6 16 192 -1 209 -7 7 -12 32 -12
57 0 64 -32 161 -63 195 -15 16 -27 35 -27 42 0 8 -7 14 -15 14 -8 0 -15 5
-15 10 0 6 -4 10 -10 10 -5 0 -8 -13 -6 -30 2 -21 -1 -30 -11 -30 -11 0 -14 7
-11 25 6 28 -3 32 -22 10 -7 -9 -15 -13 -18 -11 -2 3 -11 -1 -19 -9 -12 -13
-17 -13 -39 1 -31 21 -31 34 0 34 13 0 29 7 36 15 16 19 5 34 -12 17 -7 -7
-38 -12 -69 -12 -52 0 -57 -2 -52 -20 5 -18 2 -19 -26 -14 -28 6 -31 4 -31
-19 0 -34 -12 -40 -46 -22 -32 16 -57 4 -47 -22 5 -12 2 -15 -9 -10 -9 3 -25
-3 -37 -14 -17 -16 -20 -27 -14 -64 4 -36 2 -46 -11 -51 -14 -5 -14 -9 -4 -22
11 -13 10 -14 -9 -4 -20 11 -21 17 -17 97 3 55 1 85 -6 85 -5 0 -10 -4 -10
-10 0 -5 -7 -10 -15 -10 -9 0 -15 -9 -15 -25 0 -14 -4 -25 -9 -25 -4 0 -8 -13
-7 -29 1 -21 4 -27 13 -20 13 11 28 -5 19 -20 -3 -5 11 -23 31 -41 l36 -32
-19 -82 c-17 -70 -23 -81 -42 -84 -18 -3 -22 -8 -16 -25 3 -12 15 -31 25 -43
11 -11 19 -27 19 -35 1 -20 21 -43 49 -55 22 -9 39 -43 64 -129 14 -48 72
-111 110 -120 38 -10 112 28 126 64 6 14 18 60 27 101 23 105 29 118 67 134
19 8 38 19 41 25 13 20 25 12 41 -26 17 -41 30 -53 60 -53 11 0 32 -8 46 -18
l27 -17 -23 -85 c-27 -106 -69 -214 -102 -262 -28 -42 -113 -109 -158 -125
-16 -6 -57 -17 -90 -24 -88 -18 -93 -32 -10 -27 52 3 91 13 150 39 96 42 209
114 225 143 6 12 21 26 33 31 31 14 34 49 46 527 12 497 6 472 114 512 96 37
137 58 137 72 0 23 -32 74 -65 103 -19 17 -35 34 -35 38 0 12 -69 40 -120 48
-25 3 -52 8 -60 9 -8 1 -35 0 -60 -3z m-293 -427 c-3 -3 -12 -4 -19 -1 -8 3
-5 6 6 6 11 1 17 -2 13 -5z m-17 -39 c19 -36 10 -37 -25 -4 -27 26 -28 29 -9
29 12 0 26 -11 34 -25z m200 -5 c0 -5 -11 -10 -25 -10 -20 0 -25 -5 -26 -27 0
-25 -1 -25 -8 -8 -15 35 -12 40 21 46 18 4 34 7 36 8 1 0 2 -3 2 -9z m-127
-129 c9 -27 17 -58 17 -69 0 -11 7 -25 15 -32 10 -8 15 -30 15 -61 0 -26 5
-51 10 -54 13 -8 13 -42 0 -50 -12 -7 -40 58 -40 94 0 14 -11 44 -25 66 -18
30 -24 54 -25 98 0 31 3 57 8 57 4 0 15 -22 25 -49z m147 29 c0 -5 -5 -10 -11
-10 -5 0 -7 5 -4 10 3 6 8 10 11 10 2 0 4 -4 4 -10z m-93 -92 c-3 -8 -6 -5 -6
6 -1 11 2 17 5 13 3 -3 4 -12 1 -19z m-407 -172 c0 -11 -7 -29 -14 -39 -13
-16 -14 -13 -18 28 -2 26 -1 48 1 51 9 9 31 -20 31 -40z m650 -140 c0 -3 -4
-8 -10 -11 -5 -3 -10 -1 -10 4 0 6 5 11 10 11 6 0 10 -2 10 -4z"/>
<path d="M7792 2491 c-46 -8 -71 -24 -53 -35 6 -4 11 -31 11 -60 0 -40 5 -57
20 -71 21 -19 27 -45 11 -45 -15 0 -41 30 -41 46 0 9 -8 14 -17 13 -33 -3 -42
1 -37 16 5 12 0 14 -25 9 -49 -10 -41 26 16 70 l46 36 -29 0 c-21 0 -40 -11
-66 -37 -47 -49 -85 -130 -69 -146 6 -6 11 -24 11 -39 0 -45 81 -122 149 -142
69 -20 115 -20 145 0 20 12 35 13 88 5 126 -20 168 -34 168 -58 0 -16 -3 -16
-45 1 -43 18 -142 23 -157 8 -6 -6 -15 -34 -19 -63 -5 -29 -13 -57 -18 -62
-15 -15 -31 2 -31 33 0 39 -28 46 -79 20 -22 -11 -57 -21 -78 -21 l-38 -1 38
-8 c20 -4 39 -9 41 -11 3 -2 -1 -44 -9 -93 -11 -75 -17 -93 -42 -118 -28 -28
-33 -29 -69 -19 -90 25 -142 11 -206 -56 -67 -70 -83 -115 -83 -228 1 -87 4
-106 25 -144 54 -95 197 -134 298 -82 56 29 72 23 72 -29 0 -45 7 -49 38 -20
20 19 22 31 22 116 0 91 23 228 40 239 4 2 18 -4 32 -14 39 -31 103 -31 138
-1 28 24 42 25 96 4 30 -12 44 -23 50 -44 l9 -29 109 90 c194 159 316 278 316
308 0 55 32 210 62 304 30 92 31 98 15 115 -19 19 -82 22 -172 9 -27 -3 -41
-3 -31 1 29 12 9 19 -64 20 -56 1 -62 -1 -47 -12 28 -21 20 -26 -41 -26 -32 0
-63 -5 -69 -11 -6 -6 -17 -9 -24 -7 -8 3 0 12 19 23 18 11 32 23 32 27 0 12
-48 10 -55 -2 -3 -5 -16 -10 -28 -10 -12 0 -42 -11 -66 -25 -23 -14 -44 -25
-46 -25 -2 0 -2 28 -2 63 2 54 -2 70 -26 105 -31 47 -103 104 -126 100 -8 -2
-18 -12 -21 -23 -7 -26 -33 -65 -42 -65 -16 0 -7 33 18 66 15 19 22 34 16 34
-6 0 -16 2 -24 4 -7 2 -32 0 -56 -3z m-155 -220 l3 -54 -20 26 c-28 36 -26 94
4 84 5 -2 11 -27 13 -56z m223 -461 c0 -10 -5 -22 -10 -25 -13 -8 -24 20 -16
41 8 20 26 9 26 -16z m-100 -485 c0 -7 -14 -21 -32 -29 -39 -20 -38 -20 -38 3
0 12 12 26 28 34 30 15 42 13 42 -8z m-100 -35 c13 -9 12 -12 -4 -25 -28 -21
-34 -19 -32 10 1 27 12 31 36 15z"/>
<path d="M5863 2285 c-7 -8 -13 -22 -12 -32 0 -11 3 -13 6 -5 2 6 14 12 26 12
12 0 29 5 37 10 13 8 12 10 -2 10 -10 0 -18 5 -18 10 0 15 -23 12 -37 -5z"/>
<path d="M5029 2243 c-13 -32 -33 -500 -26 -611 5 -86 15 -99 79 -108 45 -6
48 -5 82 32 26 28 39 54 47 94 6 30 19 73 29 95 22 47 31 113 31 238 0 188
-66 287 -191 287 -35 0 -42 -4 -51 -27z"/>
<path d="M6175 2220 c3 -5 10 -10 16 -10 5 0 9 5 9 10 0 6 -7 10 -16 10 -8 0
-12 -4 -9 -10z"/>
<path d="M1151 2034 c0 -11 3 -14 6 -6 3 7 2 16 -1 19 -3 4 -6 -2 -5 -13z"/>
<path d="M1200 1988 c0 -19 26 -42 34 -30 3 5 -3 17 -14 27 -17 15 -20 16 -20
3z"/>
<path d="M7565 1990 c-25 -6 -20 -8 25 -8 39 0 49 2 35 8 -23 10 -21 10 -60 0z"/>
<path d="M7250 1975 c0 -8 6 -15 14 -15 8 0 21 -3 30 -6 27 -10 18 12 -9 24
-33 15 -35 15 -35 -3z"/>
<path d="M3607 1963 c-14 -13 -7 -42 8 -37 8 4 15 15 15 25 0 19 -11 25 -23
12z"/>
<path d="M7478 1963 c7 -3 16 -2 19 1 4 3 -2 6 -13 5 -11 0 -14 -3 -6 -6z"/>
<path d="M6817 1418 c-8 -29 3 -78 17 -78 15 0 95 28 124 42 12 6 22 17 22 25
0 18 -56 17 -64 -2 -8 -21 -43 -19 -55 4 -16 28 -38 33 -44 9z"/>
<path d="M7131 1120 c-1 -35 38 -96 88 -135 46 -37 131 -61 159 -46 19 11 20
10 -53 31 -69 20 -105 44 -144 95 -21 28 -40 57 -44 65 -3 9 -6 6 -6 -10z"/>
<path d="M5938 1083 c7 -3 16 -2 19 1 4 3 -2 6 -13 5 -11 0 -14 -3 -6 -6z"/>
<path d="M6743 1013 c15 -2 37 -2 50 0 12 2 0 4 -28 4 -27 0 -38 -2 -22 -4z"/>
<path d="M7080 1011 c0 -5 9 -7 20 -4 11 3 20 7 20 9 0 2 -9 4 -20 4 -11 0
-20 -4 -20 -9z"/>
<path d="M6959 988 c40 -5 74 -5 90 1 20 7 4 9 -64 9 l-90 0 64 -10z"/>
</g>
</svg>
